SplineFontDB: 3.0
FontName: CoelacanthBold
FullName: CoelacanthBold
FamilyName: Coelacanth
Weight: Bold

StartChar: a
Encoding: 97 97 0
Width: 413
VWidth: 1159
Flags: HMW
AnchorPoint: "Bottom" 203 -15 basechar 0
AnchorPoint: "Ogonek" 354 18 basechar 0
AnchorPoint: "Top" 201 465 basechar 0
LayerCount: 2
Fore
SplineSet
230.574 174.579 m 5
 224.297735962 174.89 218.919408752 175.043410156 212.641 174.89 c 5
 193.364275391 173.935896484 158.345206628 165.604758805 150.732 159.067 c 4
 132.224834961 143.551858279 125.048 127.449179688 125.048 104.402 c 7
 125.048 83.3015742188 146.59190918 57.426 170.914 57.426 c 7
 189.489835019 57.426 212.122966338 69.4224824219 226.507 76.823 c 5
 225.507 86.6180654297 225.507 100.922479493 225.507 113.555 c 7
 225.507 135.405880079 230.125738281 156.2718 230.574 174.579 c 5
226.579 413.732 m 7
 244.43773641 413.732 315.6715658 367.025495526 325.646 353.488 c 4
 333.396902344 343.053195313 334.646 319.472381836 334.646 305.866 c 7
 334.646 236.331791379 329.646 169.957876963 329.646 102.531 c 7
 329.646 88.6068496094 332.17049922 72.6867654127 337.024 65.689 c 4
 346.150210937 52.3068828125 358.406424805 51.646 363.158 51.646 c 7
 370.861274312 51.646 386.268354132 55.6104285715 397.823 60.378 c 5
 406.689 23.421 l 5
 358.148183066 8.15593333334 301.906513672 -8.933 276.33 -8.933 c 7
 262.71566569 -8.933 243.785610221 5.54951738281 227.818 53.134 c 5
 181.946581637 21.3548378906 143.872039566 -8.311 93.732 -8.311 c 7
 51.388765625 -8.311 29.976 26.4590273438 29.976 68.933 c 7
 29.976 97.5884954906 35.4160570248 125.102285645 41.799 140.335 c 4
 46.5481689453 151.622735351 57.0016064716 160.118329937 67.311 164.78 c 4
 145.037054932 200.122583984 175.72450825 193.646182618 233.641 213.78 c 5
 233.952 223.421 236.33 272.11 236.33 272.11 c 7
 236.33 306.378 221.924303078 320.993668857 214.306 329.067 c 4
 205.370451172 338.925741211 183.227116211 354.842 171.823 354.842 c 5
 162.493 354.842 153.048 347.9425 153.048 342.3445 c 7
 153.048 332.485941406 159.385465643 318.254571289 160.048 312.933 c 5
 60.933 271.22 l 5
 55.2791308594 278.201587891 47.11 307.679375 47.11 319.8325 c 7
 47.11 332.068283203 55.1351838429 343.058668775 75.8325 355.665 c 4
 148.113984234 399.339014649 210.193450826 413.732 226.579 413.732 c 7
EndSplineSet
Substitution2: "case-1" A
Substitution2: "pcap-1" a.pcap
Substitution2: "smcp-1" a.smcp
EndChar

StartChar: b
Encoding: 98 98 1
Width: 507
VWidth: 1159
Flags: HMW
AnchorPoint: "Bottom" 248 -15 basechar 0
AnchorPoint: "Top" 104 749 basechar 0
LayerCount: 2
Fore
SplineSet
171.45 337.512 m 5
 171.828 256.158 170.139 208.981 170.139 127.627 c 7
 170.139 116.115 176.206 101.536 184.584 91.402 c 4
 208.694 68.536 238.981 54.603 269.646 54.603 c 7
 331.488 54.603 372.507 98.067 372.507 159.33 c 7
 372.507 250.019 329.531 351.775 227.153 351.775 c 7
 203.823 351.775 176.627 341.311 171.45 337.512 c 5
0.244 685.067 m 5
 59.292 694.134 109.091 722.134 183.895 759 c 5
 204.206 738.866 l 5
 196.962 717 186.895 686.311 184.517 667 c 4
 180.206 629.316 171.45 456.44 171.45 376.957 c 5
 206.517 390.268 248.048 407.866 299.78 407.866 c 7
 399.957 407.866 472.512 317.756 472.512 231.957 c 7
 472.512 100.201 338.598 -4.866 203.799 -4.866 c 7
 157.646 -4.866 148.579 9.488 127.981 9.488 c 7
 93.957 9.488 75.512 -4.378 67.823 -10 c 5
 52.579 2.689 l 5
 53.201 4.555 57.89 16.488 59.823 24.11 c 4
 65.823 49 72.512 64.177 73.512 145 c 4
 75.512 288 77.512 367 77.512 510 c 7
 77.512 579.646 73.378 600.11 69.378 613.909 c 4
 58.866 645.732 49.11 651.866 19.397 651.866 c 7
 13.531 651.866 4.598 651.244 0.421 651.244 c 5
 0.244 685.067 l 5
EndSplineSet
Substitution2: "case-1" B
Substitution2: "pcap-1" b.pcap
Substitution2: "smcp-1" b.smcp
EndChar

StartChar: c
Encoding: 99 99 2
Width: 421
VWidth: 1159
Flags: HMW
AnchorPoint: "Bottom" 228 -15 basechar 0
AnchorPoint: "Top" 231 465 basechar 0
LayerCount: 2
Fore
SplineSet
309.751 285.44 m 5
 273.017814294 303.668050239 222.751257174 330.263 189.885 330.263 c 7
 152.918380829 330.263 133.56 309.576048884 133.56 252.072 c 7
 133.56 156.710365491 183.902144024 59.292 298.804 59.292 c 7
 327.338555942 59.292 351.483230532 69.4355 368.311 79.579 c 5
 385.689 48.756 l 5
 350.617302633 20.7768985765 289.757230647 -10.311 227.866 -10.311 c 7
 179.547892421 -10.311 32.622 -3.02124326903 32.622 179.244 c 7
 32.622 306.391757914 158.682338256 413 269.756 413 c 7
 317.756 413 366.756090361 392.038301052 397.756 367.933 c 5
 396.067 322.33 402.646 339.488 309.751 285.44 c 5
EndSplineSet
Substitution2: "case-1" C
Substitution2: "pcap-1" c.pcap
Substitution2: "smcp-1" c.smcp
EndChar

StartChar: d
Encoding: 100 100 3
Width: 511
VWidth: 1159
Flags: HMW
AnchorPoint: "Bottom" 224 -15 basechar 0
AnchorPoint: "Top" 390 734 basechar 0
AnchorPoint: "TopRight" 503.5 581 basechar 0
LayerCount: 2
Fore
SplineSet
327.928 30.952 m 5
 289.968624411 16.7010853476 246.446711554 -0.866 195.622 -0.866 c 7
 95.6220469981 -0.866 32.622 81.1721329386 32.622 172 c 7
 32.622 250.8209355 85.5873658928 321.194063447 137.067 356.244 c 4
 181.783533617 386.437817677 236.404821504 400.866 265.622 400.866 c 7
 283.265542376 400.866 323.492540248 391.880001081 333.373 390.823 c 5
 333.373 500.515242477 330.038396353 546.686966562 320.349 594.306 c 4
 317.378312335 608.159487013 306.023842105 634.641 288.081 634.641 c 7
 280.367126419 634.641 265.427178558 632.775 260.172 633.153 c 5
 250.105 671.354 l 5
 321.55390099 684.773902439 386.850405941 707.76604878 450.957 752.622 c 5
 470.268 730.421 l 5
 460.6852 716.791682 451.072010892 690.448725883 449.378 679.799 c 4
 423.092855875 526.717438605 425.622 351.90866165 425.622 185 c 7
 425.622 143.424418168 430.067 83.445 438.445 60.249 c 5
 440.445 52.2183906235 450.319174 50.938 453.823 50.938 c 5
 468.797913941 51.1485 490.559197492 52.603 501.311 53.158 c 5
 505.488 19.957 l 5
 438.483019338 1.61013616891 359.596169059 -22.354 345.172 -22.354 c 7
 340.462374817 -22.354 335.78678976 -19.3172845256 332.684 -12.933 c 4
 328.682636925 -3.4379689523 327.928 28.3704397166 327.928 30.952 c 5
214.909 345.22 m 7
 198.723397154 345.22 174.530691866 337.243185109 161.201 327.488 c 4
 138.453285715 310.116733334 125.56 283.376948779 125.56 253.56 c 7
 125.56 160.493547815 185.066316568 65.359 295.273 65.359 c 7
 308.024 65.359 319.909 77.914 327.684 84.134 c 5
 329.373 146.402983155 332.373 211.196391435 331.684 274.306 c 5
 331.684 325.042797468 290.526 331.043000001 253.502 339.11 c 4
 241.154368612 341.889206726 219.952505691 345.22 214.909 345.22 c 7
EndSplineSet
Substitution2: "case-1" D
Substitution2: "pcap-1" d.pcap
Substitution2: "smcp-1" d.smcp
EndChar

StartChar: e
Encoding: 101 101 4
Width: 409
VWidth: 1159
Flags: HMW
AnchorPoint: "Bottom" 213 -15 basechar 0
AnchorPoint: "Ogonek" 306.65 23 basechar 0
AnchorPoint: "Top" 217 465 basechar 0
LayerCount: 2
Fore
SplineSet
215.756 411.555 m 7
 289.162881613 411.555 337.650133172 361.541079777 355.445 329.268 c 4
 371.845058305 303.419583502 381.331948232 295.6171875 390.579 294.488 c 5
 390.579 270.488 l 5
 312.278527586 258.647368763 216.475408621 239.43984118 140.938 220.7225 c 5
 140.938 218.530253725 140.627 215.972246275 140.627 213.78 c 7
 140.627 103.2163875 214.375643509 58.603 270.316 58.603 c 7
 308.873141333 58.603 337.084679666 75.550340742 358.823 93.268 c 5
 383.957 60.756 l 5
 341.111124666 28.8198715645 279.902012 -9.311 209.512 -9.311 c 7
 86.9234211857 -9.311 31.177 83.6495793773 31.177 180.689 c 7
 31.177 337.777312055 164.925291151 411.555 215.756 411.555 c 7
187.976 355.598 m 7
 165.342645644 355.598 145.468133334 318.451295557 141.56 246.3445 c 5
 264.33 269.598 l 4
 271.641 270.9425 l 5
 261.042852987 309.077606642 225.358037338 355.598 187.976 355.598 c 7
EndSplineSet
Substitution2: "case-1" E
Substitution2: "pcap-1" e.pcap
Substitution2: "smcp-1" e.smcp
EndChar

StartChar: f
Encoding: 102 102 5
Width: 357
VWidth: 1159
Flags: HMW
AnchorPoint: "Bottom" 156 -15 basechar 0
AnchorPoint: "Top" 262 748 basechar 0
LayerCount: 2
Fore
SplineSet
385.871 755.311 m 7
 407.265551402 755.311 460.981 747.756 487.359 724.378 c 5
 485.67 688.421 471.512 680.957730469 403.909 633.507 c 5
 377.613110351 648.160236328 337.915407408 678.952 301.421 678.952 c 7
 173.472375431 678.952 228.29852979 580.079073651 222.694 501.445 c 4
 221.437628831 481.886771782 217.627 434.577049505 215.938 394.244 c 5
 262.00621192 397.622 303.64478808 397.622 349.713 401 c 5
 349.713 339.842 l 5
 303.370052632 343.22 260.591947368 344.909 214.249 348.287 c 5
 212.56 321.372074627 212.56 297.94057324 212.56 288.177 c 7
 212.56 212.086832636 216.266518513 141.00215555 222.694 66.402 c 4
 224.363116262 47.8784041313 234.545746133 39.3491620357 253.962 37.823 c 4
 279.281988043 36.134 302.868082192 36.134 328.34 35.823 c 5
 326.029 -6.689 l 5
 273.17725 -1.689 197.67475 0.311 144.823 0.311 c 7
 108.973 0.311 54.003 -2.689 18.153 -6.689 c 5
 17.153 35.512 l 5
 26.8898333334 35.823 38.1378529393 37.2185837907 49.019 38.512 c 4
 87.4564573294 43.6229916666 92.5468142287 59.180004916 97.043 93.402 c 4
 103.976335783 140.861478039 109.177 202.229027027 109.177 261.177 c 7
 109.177 279.623585334 107.488 313.999021277 107.488 348.287 c 5
 80.1602972974 346.598 53.9257027027 341.531 26.598 339.842 c 5
 26.598 401 l 5
 53.9257027027 399.311 80.1602972974 395.933 107.488 394.244 c 5
 107.488 435.76315625 107.488 483.669875 107.488 496.445 c 7
 107.488 603.034345972 156.677670873 655.466890927 237.78 704.689 c 4
 288.149562508 735.00045686 321.149748148 755.311 385.871 755.311 c 7
EndSplineSet
Substitution2: "salt-1" f.alt
Substitution2: "case-1" F
Substitution2: "pcap-1" f.pcap
Substitution2: "smcp-1" f.smcp
EndChar

StartChar: g
Encoding: 103 103 6
Width: 475
VWidth: 1159
Flags: HMW
AnchorPoint: "Bottom" 225 -318 basechar 0
AnchorPoint: "Top" 224 465 basechar 0
LayerCount: 2
Fore
SplineSet
176.56 12.091 m 7
 176.56 -4.282884375 196.078671057 -10.33 213.488 -10.33 c 7
 244.488 -10.33 272.803277122 -0.196 302.488 -0.196 c 7
 399.0432226 -0.196 444.488 -58.9925888873 444.488 -109.239 c 7
 444.488 -254.034604992 282.1285586 -330.866 167.488 -330.866 c 7
 68.9810975277 -330.866 14.488 -271.275451851 14.488 -228.335 c 7
 14.488 -139.045830882 94.5400739672 -84.7941838235 108.043 -74.622 c 5
 81.774175 -53.9746273168 62.4901961462 -25.3361250545 57.177 4.622 c 5
 88.177 29.5024 149.712721803 49.319925926 174.799 60.622 c 5
 92.4514042554 74.8174790419 39.488 136.622253772 39.488 225.622 c 7
 39.488 350.339991 180.000338977 409.488 227.488 409.488 c 7
 267.732183921 409.488 303.499339574 396.016578948 338.933 370.11 c 5
 367.880704118 374.732 393.707290081 381.488 426.89 381.488 c 7
 440.8565 381.488 458.5474 378.488 464.134 374.488 c 5
 439.244 290.684 l 5
 417.37536226 302.44 387.762934426 316.437529411 374.732 317.775 c 4
 373.177 317.775 369.866 317.775 368 317.464 c 5
 379.937932138 292.337051107 389.488 252.083846832 389.488 233.11 c 7
 389.488 134.456061023 292.013541787 91.0315523355 230.421 59.244 c 4
 179.831606299 33.5187779986 176.56 25.7697325165 176.56 12.091 c 7
178.507 356.775 m 7
 152.005673659 356.775 136.115 322.132655 136.115 277.981 c 7
 136.115 173.85667224 198.938 112.488 243.067 97.134 c 5
 266.421998737 112.134820191 281.038 142.682913742 281.038 194.263 c 7
 281.038 273.548387038 249.04892672 356.775 178.507 356.775 c 7
75.646 -182.732 m 7
 75.646 -229.108104492 170.260045298 -235.928 226.603 -235.928 c 7
 253.7905918 -235.928 383.33 -220.397591311 383.33 -148.086 c 7
 383.33 -117.95805488 350.9477868 -101.89 304.177 -101.89 c 7
 277.085102 -101.89 249.024898 -110.335 221.933 -110.335 c 7
 192.5746696 -110.335 162.1293344 -107.4163563 144.732 -101.579 c 5
 87.6040068508 -124.765627843 75.646 -145.696580705 75.646 -182.732 c 7
EndSplineSet
Substitution2: "case-1" G
Substitution2: "pcap-1" g.pcap
Substitution2: "smcp-1" g.smcp
EndChar

StartChar: h
Encoding: 104 104 7
Width: 531
VWidth: 1159
Flags: HMW
AnchorPoint: "Top" 120 733 basechar 0
AnchorPoint: "Bottom" 275 -15 basechar 0
LayerCount: 2
Fore
SplineSet
181.67 328.622 m 1
 180.0145 289.485530303 176.981 236.616733241 176.981 189 c 3
 176.981 136.631397441 182.056118142 88.5447738546 186.115 69.158 c 0
 191.061288113 47.0926879959 207.142278602 38.9717738078 216.048 36.134 c 0
 222.031463553 34.3081771751 238.463473684 33.512 246.469 33.201 c 1
 243.158 -7.689 l 1
 198.832216216 -1.74180439368 167.58132759 3.311 117 3.311 c 3
 86.3540625 3.311 49.5789375 -1.689 18.933 -5.689 c 1
 16.622 30.067 l 1
 22.4791071428 31.2402 24.1905766087 30.6885966851 31.531 33 c 0
 54.1836313885 42.970227313 63.959413403 55.4264785364 70.909 94.603 c 0
 78.6794502548 141.767282441 83.732 215.107045455 83.732 274 c 3
 83.732 490.126141075 79.982018175 575.771283807 78.665 594.995 c 0
 76.8722529141 622.73063524 67.0716666667 647.043 43.641 647.043 c 3
 37.9362857143 647.043 26.1690571428 645.177 18.177 644.177 c 1
 10.177 682.378 l 1
 73.9655677419 693.585643836 147.56776129 723.492191781 200.316 756.756 c 1
 219.316 738 l 1
 213.906571428 725.484 208.208820407 701.180655117 206.694 691.512 c 0
 189.038444445 579.99737393 182.746555555 473.80948503 181.67 361 c 1
 237.262923077 397.47026 314.88323077 419.823 358.938 419.823 c 3
 419.862368421 419.823 459.140401815 379.584149893 460.536 301 c 0
 460.938467096 280.713843998 461.847 234.695238095 461.847 183 c 3
 461.847 131.479953488 460.847 81.7676279069 460.847 66.402 c 0
 460.847 46.7042727273 478.136294061 39.6236552868 487.091 37.512 c 0
 492.912238595 35.9380425376 515.00273913 34.512 522.756 33.89 c 1
 519.823 -7.689 l 1
 477.307168225 1.311 448.963280374 3.311 403.177 3.311 c 3
 369.043 3.311 336.0468 -1.689 306.464 -7.689 c 1
 306.22 31.512 l 1
 317.475185185 31.9962 322.997174213 32.0813135069 330.464 34.445 c 0
 350.781898018 41.0797344028 357.568568805 60.1881509696 362.909 102.182 c 0
 364.208292582 112.460276492 365.22 133.34140575 365.22 142.311 c 3
 365.22 188.17446875 363.054684524 253.03070055 358.842 275.732 c 0
 350.227145183 322.194303121 336.943209303 353.598 286.622 353.598 c 3
 229.376198003 353.598 203.199325459 339.74275 181.67 328.622 c 1
EndSplineSet
Substitution2: "case-1" H
Substitution2: "pcap-1" h.pcap
Substitution2: "smcp-1" h.smcp
EndChar

StartChar: k
Encoding: 107 107 10
Width: 486
VWidth: 1159
UnlinkRmOvrlpSave: 1
Flags: HMW
AnchorPoint: "Top" 123 739 basechar 0
AnchorPoint: "Bottom" 242 -15 basechar 0
LayerCount: 2
Fore
SplineSet
172.737 252.158 m 1
 193.812310345 268.640142857 226.971828683 291.51621812 244.641 312.153 c 0
 250.337115962 319.286281452 257.129 334.704851852 257.129 342.598 c 3
 257.129 365.0210387 245.332284899 364.816695047 225.885 365.732 c 1
 227.885 401 l 1
 259.788477273 399 302.735465909 399 335.866 399 c 3
 371.602861111 399 418.169074074 397.622 452.823 403 c 1
 454.823 365.488 l 1
 402.332820895 357.0835 331.096901513 317.330194551 291.885 292.818 c 2
 228.091 252.933 l 1
 293.60475701 190.24135468 359.925873153 129.393581281 425.555 65.78 c 1
 437.421 52.847 487.179298109 31.7091600877 482.177 34.201 c 1
 479.866 -6.689 l 1
 441.380170213 -0.689 421.005319149 3.311 373.464 3.311 c 3
 341.21726087 3.311 306.82073913 -3.689 274.574 -5.689 c 1
 271.574 33.512 l 1
 298.074595744 37.65075 298.074595744 41.8919 306.172 42.823 c 1
 265.440598098 90.0768571429 201.410331492 159.394915851 156.866 202.086 c 1
 176.115 215.378 l 1
 176.115 149.13495 176.932488419 83.7430231624 186.249 59.512 c 0
 189.627 49.335 202.499510475 41.7089627214 207.249 38.512 c 0
 214.194338358 33.4268759717 221.574882353 32.823 231.603 32.512 c 1
 227.981 -9.067 l 1
 189.049210526 -2.31536363636 167.293210526 3.311 119.201 3.311 c 3
 85.5406875 3.311 45.1483125 -3.689 11.488 -5.689 c 1
 9.488 33.512 l 1
 18.59325 33.5474 26.2889814782 33.4899236287 35.976 37.134 c 0
 60.9465310924 47.4979831338 66.480737489 60.3321090271 72.799 102.182 c 0
 79.3301111111 147.305919192 84.555 217.601417808 84.555 274 c 3
 84.555 516.696704545 80.1718700935 572.595026334 77.799 602.574 c 0
 76.1387083334 622.9836 66.1769583334 640.842 37.952 640.842 c 3
 34.6743902439 640.842 18.2616829268 639.513571428 15.555 639.354 c 1
 7.555 678.244 l 1
 72.3507142857 689.659287671 145.868928572 720.094383561 199.45 754 c 1
 220.139 735.244 l 1
 214.729571428 723.099 209.403040445 699.578509419 207.517 690.134 c 0
 190.955095238 616.97542539 172.737 373.113510022 172.737 252.158 c 1
EndSplineSet
Substitution2: "smcp-1" k.smcp
Substitution2: "pcap-1" k.pcap
Substitution2: "case-1" K
EndChar

StartChar: l
Encoding: 108 108 11
Width: 248
VWidth: 1159
Flags: HMW
AnchorPoint: "Bottom" 119 -15 basechar 0
AnchorPoint: "TopRight" 242 581 basechar 0
AnchorPoint: "Top" 121 734 basechar 0
LayerCount: 2
Fore
SplineSet
175.158 300 m 3
 175.158 220.067 182.447983734 90.6261893469 190.804 60.201 c 0
 194.143468469 47.6146665319 210.247419549 38.0451934839 214.536 37.134 c 0
 223.646 34.512 237.512 34.201 246 33.89 c 1
 240.311 -7 l 1
 199.591256 -1 149.910746285 4 109.799 4 c 3
 75.5018312898 4 37.257 -1 8.622 -5 c 1
 6.622 34.201 l 1
 15.3687837838 33.9608 29.0543708558 35.0094966407 36.043 39.89 c 0
 48.6933404256 48.3179047619 61.1471164777 64.2283492893 65.086 94.603 c 0
 71.377875 141.717363636 75.153 215.107045455 75.153 274 c 3
 75.153 512.63865625 73.3377766613 584.201657796 71.464 606.019 c 0
 70.6367991486 617.042201682 61.2486666666 644.287 36.44 644.287 c 3
 30.2308981545 644.287 17.55856 642.7655 10.976 642.799 c 1
 7.11 681.689 l 1
 70.2051225807 692.585178082 143.007187097 720.32090411 195.182 754 c 1
 214.182 737.311 l 1
 211.786 727.309660715 203.894302311 695.757645066 201.871 686 c 0
 184.797266666 611 175.158 424 175.158 300 c 3
EndSplineSet
Substitution2: "case-1" L
Substitution2: "pcap-1" l.pcap
Substitution2: "smcp-1" l.smcp
EndChar

StartChar: m
Encoding: 109 109 12
Width: 791
VWidth: 1159
Flags: HMW
AnchorPoint: "Bottom" 390 -15 basechar 0
AnchorPoint: "Top" 407 465 basechar 0
LayerCount: 2
Fore
SplineSet
709.512 154.799 m 3
 709.512 114.217018691 712.297763106 76.6854504974 714.579 64.335 c 0
 718.024 48.0638502674 737.300333223 40.7548104709 746.847 36.823 c 0
 752.541937485 34.7053329953 772.685693878 33.823 779.311 31.823 c 1
 773.622 -9.067 l 1
 737.110055555 -0.067 711.832555555 1.933 672.512 1.933 c 3
 634.815723404 1.933 587.067106383 -3.067 554.397 -9.067 c 1
 550.397 30.134 l 1
 558.79171875 31.5828 568.281205474 32.0446482765 574.818 33.756 c 0
 584.707070119 36.3452522241 597.119046699 46.0286722598 599.684 60.842 c 0
 603.641297666 79.5875016198 612.885 138.131385073 612.885 176.761 c 3
 612.885 215.966866273 612.451136439 257.308745791 604.818 280.402 c 0
 595.072062692 313.861139569 583.52826087 337.153 534.866 337.153 c 3
 523.417343708 337.153 480.547742857 326.312923078 456.737 311.531 c 1
 457.737 307.047347826 457.737 302.525010854 457.737 296.799 c 3
 457.737 269.292106126 453.292 217.941857143 453.292 176.799 c 3
 453.292 128.849232558 456.456003361 78.9639835006 458.359 64.335 c 0
 460.426 49.5229090909 479.876732535 36.0870009407 488.56 34.067 c 0
 493.782609203 32.8650019531 503.717142857 31.756 509.78 31.134 c 1
 504.78 -9.067 l 1
 462.385768421 -0.067 447.167326316 1.933 401.512 1.933 c 3
 368.137306122 1.933 321.412734694 -3.067 292.488 -9.067 c 1
 289.177 30.823 l 1
 298.277594594 31.445 305.322851304 32.4023556381 315.153 35.823 c 0
 328.143180232 40.2871111111 344.887941087 56.7344051416 347.976 76 c 0
 352.21525 100.062328358 356.665 139.044567164 356.665 176.761 c 3
 356.665 215.73296875 353.335882564 263.504764145 346.909 290.134 c 0
 341.34708791 316.785475993 321.934222689 343.708 294.134 343.708 c 3
 263.4968 343.708 231.1112 323.323123873 207.206 305.909 c 1
 202.373444445 227.639777196 194.761 116.033128756 194.761 81.335 c 3
 194.761 51.7749 217.368245731 38.9028342819 236.029 34.756 c 0
 240.886058737 33.6766536141 249.306157894 32.9608 254.048 32.512 c 1
 250.737 -9.067 l 1
 215.237864865 -4.445 175.740837838 1.933 130.091 1.933 c 3
 96.4306875 1.933 56.0383125 -3.067 22.378 -7.067 c 1
 20.067 32.823 l 1
 30.7963214286 35.0986 36.6927967145 35.0498308023 47.378 38.512 c 0
 63.4684039098 43.5332261221 80.5211531608 55.4962455378 86.311 74.622 c 0
 95.2969411765 103.028447155 97.067 162.068836138 97.067 192.799 c 3
 97.067 209.994476654 93.5230594476 268.599276599 86.689 286.641 c 0
 76.6215319352 312.861148941 62.7501386348 315.33 46.421 315.33 c 3
 36.3800454546 315.33 31.0697674242 315.019 26.488 315.019 c 1
 27.933 354.354 l 1
 77.2683225806 362.74525 126.603645161 367.54025 193.273 416.689 c 1
 213.584 396.177 l 1
 208.813666666 381.805140844 208.569666666 361.045788732 206.962 339.488 c 1
 253.643913044 372.929028572 302.560000001 415 355.67 415 c 3
 411.418591397 415 444.016480799 377.50358209 453.493 341.11 c 1
 489.821614035 366.739576922 542.917280702 401.689 612.78 401.689 c 3
 683.886168225 401.689 712.89 361.232836207 712.89 297.402 c 3
 712.89 253.828861111 709.512 203.653731481 709.512 154.799 c 3
EndSplineSet
Substitution2: "case-1" M
Substitution2: "pcap-1" m.pcap
Substitution2: "smcp-1" m.smcp
EndChar

StartChar: n
Encoding: 110 110 13
Width: 526
VWidth: 1159
Flags: HMW
AnchorPoint: "Bottom" 269 -15 basechar 0
AnchorPoint: "Top" 272 465 basechar 0
LayerCount: 2
Fore
SplineSet
85.311 285.263 m 0
 75.9039248047 319.483900391 69.8421650391 322.909 49.866 322.909 c 3
 41.6517480469 322.909 36.866 322.598 27.866 322.598 c 1
 27.244 359.866 l 1
 75.7571630859 367.515301757 124.26965332 371.886042969 189.828 416.689 c 1
 210.139 398.244 l 1
 206.957044922 383.427185189 204.684397461 366.44418413 200.761 339.799 c 1
 245.311913777 370.114709961 293.574925667 415.689 352.048 415.689 c 3
 413.965828318 415.689 452.134 376.456723632 452.134 301.933 c 3
 452.134 257.191947382 448.756 208.382616092 448.756 159.574 c 3
 448.756 117.795920899 450.310624602 77.8333851914 452.445 65.024 c 0
 455.823 45.8497716323 476.188066008 37.8711030329 480.201 36.823 c 0
 486.852075195 34.3715166016 503.907961914 35.0630654297 511.555 33.89 c 1
 509.311 -8.378 l 1
 466.623100586 0.0583746744789 443.636842774 1.933 397.665 1.933 c 3
 365.994982422 1.933 320.600303711 -2.7535633138 293.153 -8.378 c 1
 293.287 32.201 l 1
 299.500333984 33.0988691406 308.085932393 32.610755142 314.751 34.445 c 0
 327.444077149 37.883984375 343.463203909 47.4634835181 346.129 70.488 c 0
 348.557606445 91.8650415039 350.751 136.259097656 350.751 165.048 c 3
 350.751 202.232125 347.195164547 258.789424228 345.062 273.22 c 0
 339.380097924 309.248851402 325.254675111 337.641 283.354 337.641 c 3
 248.942910156 337.641 220.367644531 324.218306641 198.938 315.732 c 1
 192.019455078 232.899015482 191.316 117.493411985 191.316 82.024 c 3
 191.316 51.4995402425 208.139336303 42.4186988586 221.56 38.201 c 0
 228.071794922 36.1135292969 240.42200293 34.7520654297 247.158 33.89 c 1
 244.536 -7.689 l 1
 203.115080078 -2.44063636364 171.253299805 1.933 126.646 1.933 c 3
 94.2775625 1.933 55.4354375 -2.30144444445 23.067 -5.689 c 1
 22.134 33.512 l 1
 32.8635136719 35.512 38.9700732475 35.240412968 49.445 38.512 c 0
 65.2885507812 43.3038759766 81.6477997686 57.7636425606 86.311 87.024 c 0
 90.8423076172 114.412132813 92.933 165.280191406 92.933 192.799 c 3
 92.933 209.765147718 91.5725155827 262.79689065 85.311 285.263 c 0
EndSplineSet
Substitution2: "case-1" N
Substitution2: "pcap-1" n.pcap
Substitution2: "smcp-1" n.smcp
EndChar

StartChar: o
Encoding: 111 111 14
Width: 505
VWidth: 1159
Flags: HW
AnchorPoint: "Middle" 256 206 basechar 0
AnchorPoint: "Bottom" 250 -15 basechar 0
AnchorPoint: "Ogonek" 342 19.6582 basechar 0
AnchorPoint: "Horn" 421.5 341.8 basechar 0
AnchorPoint: "Top" 252 465 basechar 0
LayerCount: 2
Fore
SplineSet
257 416.933 m 7
 392 416.933 473 311.019317757 473 207.067 c 7
 473 78.8517216479 378.701653971 -11 255.311 -11 c 7
 130.695797214 -11 32 68.5196 32 187.799 c 7
 32 347.683364258 167 416.933 257 416.933 c 7
223.598 363.665 m 7
 177.426627388 363.665 143.828 311.703432378 143.828 244.914 c 7
 143.828 146.253112472 205.558631579 38.335 275.335 38.335 c 7
 329.955000409 38.335 361.928 100.338271933 361.928 166.531 c 7
 361.928 300.565776194 272.204790678 363.665 223.598 363.665 c 7
EndSplineSet
Substitution2: "case-1" O
Substitution2: "pcap-1" o.pcap
Substitution2: "smcp-1" o.smcp
EndChar

StartChar: p
Encoding: 112 112 15
Width: 513
VWidth: 1159
Flags: HMW
AnchorPoint: "Bottom" 286 -15 basechar 0
AnchorPoint: "Top" 251 465 basechar 0
LayerCount: 2
Fore
SplineSet
93.134 24.799 m 7
 93.134 130.754641794 85 234.978224 79.622 252.349 c 5
 71.9425555555 284.459463212 51.3550981433 298.617 30.775 298.617 c 7
 22.8261868852 298.617 12.7222470589 295.818 5.311 295.818 c 5
 0 338.531 l 5
 43.7481378158 346.5502112 111.143965825 375.1888944 160.804 419.866 c 5
 182.27775 418.124131111 182.627 414.468893959 185.316 357.799 c 5
 220.957304129 379.72243225 270.690169594 406.866 312.134 406.866 c 7
 409.133760348 406.866 485.134 306.151250987 485.134 215.311 c 7
 485.134 76.5895235669 365.133963254 -12.067 248.134 -12.067 c 7
 227.936238364 -12.067 208.390445 -8.48473459789 191.45 -8.847 c 5
 191.45 -84.4399985584 191.185368174 -243.090604768 199.895 -277.11 c 4
 203.273 -290.446887355 223.444059626 -297.066824338 231.895 -297.799 c 4
 250.878131678 -299.282869361 275.2611136 -301.488 292.608 -303.177 c 5
 292.297 -344.067 l 5
 240.015147 -343.067 204.525291579 -341.067 152.048 -341.067 c 7
 113.6268353 -341.067 52.1531647 -346.067 13.732 -350.067 c 5
 11.421 -311.866 l 5
 23.6841666666 -311.555 33.3884372485 -310.424722406 44.866 -306.866 c 4
 63.6121829 -300.774133334 73.1677912866 -281.892190551 77.933 -253.598 c 4
 86.378 -204.854903 93.134 -118.617699 93.134 24.799 c 7
237.818 344.019 m 7
 201.919181087 344.019 191.591228116 330.8097005 184.694 318.287 c 5
 190.828 75.713 l 5
 220.7705976 49.0065865775 254.343079675 40.646 298.804 40.646 c 7
 368.23291776 40.646 390.196 83.5674611871 390.196 151.129 c 7
 390.196 254.449709943 329.64876282 344.019 237.818 344.019 c 7
EndSplineSet
Substitution2: "case-1" P
Substitution2: "pcap-1" p.pcap
Substitution2: "smcp-1" p.smcp
EndChar

StartChar: q
Encoding: 113 113 16
Width: 491
VWidth: 1159
Flags: HMW
AnchorPoint: "Bottom" 218 -15 basechar 0
AnchorPoint: "Top" 272 465 basechar 0
LayerCount: 2
Fore
SplineSet
325.483 70.756 m 5
 327.329888889 143.683421277 329.794 184.906034332 329.794 257.038 c 7
 329.794 264.748620689 326.625783097 282.564067316 319.794 294.306 c 4
 294.463790381 336.924412379 245.911596491 346.952 204.416 346.952 c 7
 165.753569343 346.952 135.627 295.40215 135.627 238.426 c 7
 135.627 145.342629834 174.519249013 51.225 284.804 51.225 c 7
 310.517785539 51.225 320.580980801 59.8906422893 325.483 70.756 c 5
323.794 21.866 m 5
 298.215104166 11.1732 258.684083334 -4.866 212.177 -4.866 c 7
 107.177 -4.866 27.177 91.0017263158 27.177 181 c 7
 27.177 302.266504202 146.177 404.732 287.177 404.732 c 7
 360.499781482 404.732 363.278748148 378.665 389.665 378.665 c 7
 408.911475355 378.665 424.037473684 403.28225 431.799 411.488 c 5
 460.445 392.22 l 5
 457.943909091 386.872736842 454.369748117 379.247740807 450.756 371.244 c 4
 442.342124138 353.026421052 437.257754103 332.588386411 428.177 255.866 c 4
 425.402815201 232.385851474 427.177 132.539722543 427.177 93 c 7
 427.177 -116.280092485 434.155804384 -196.401689545 442.378 -230.263 c 4
 449.359897971 -259.133847391 465.862459674 -282.802903358 480.646 -283.531 c 4
 490.719441982 -284.078673914 512.646 -287.22 519.646 -287.22 c 5
 517.646 -331.488 l 5
 489.523737374 -330.488 447.95169697 -329.488 396.598 -329.488 c 7
 358.62296063 -329.488 273.81203937 -334.488 235.837 -338.488 c 5
 234.526 -300.976 l 5
 244.741965518 -300.14825 251.347034081 -299.633512756 261.459 -297.665 c 4
 284.898706207 -293.166035715 310.924536094 -266.449854869 317.038 -237.263 c 4
 322.841245502 -208.917309871 323.794 -83.2352727273 323.794 21.866 c 5
EndSplineSet
Substitution2: "case-1" Q
Substitution2: "pcap-1" q.pcap
Substitution2: "smcp-1" q.smcp
EndChar

StartChar: r
Encoding: 114 114 17
Width: 358
VWidth: 1159
Flags: HMW
AnchorPoint: "Bottom" 145 -15 basechar 0
AnchorPoint: "Top" 165.5 465 basechar 0
LayerCount: 2
Fore
SplineSet
185.493 185.665 m 1
 185.493 152.43324043 193.326934471 76.0187100118 204.139 63.024 c 0
 221.002023447 44.1701214225 238.65191585 39.0519985584 274.23 36.756 c 0
 286.223404695 35.9369263361 299.933291666 36.445 310.517 35.445 c 1
 308.828 -2.067 l 1
 259.992862745 -1.067 169.835686275 1.933 117.244 1.933 c 3
 84.0286666666 1.933 50.8133333334 -3.067 17.598 -7.067 c 1
 16.976 32.134 l 1
 29.87075 32.9371428572 43.6150968268 33.5447922089 54.488 38.512 c 0
 65.3195517241 43.201 76.2734090686 62.610912263 80.11 87.024 c 0
 83.488 108.263612676 85.488 185.635367032 85.488 207.665 c 3
 85.488 222.020180722 84.7529596693 248.054387856 80.799 267.239 c 0
 76.5362244898 286.932100114 63.6704441651 309.062 42.708 309.062 c 3
 30.9874606326 309.062 25.665 306.885 15.976 306.885 c 1
 12.732 346.22 l 1
 59.7746969697 353.470545455 127.160181818 385.580103896 180.56 425.976 c 1
 189.794444445 420.5749 199.005 419.3559 199.005 403.909 c 3
 199.005 392.721864198 194.938 367.067610351 192.182 328.421 c 1
 216.149257812 349.579 286.445 411.665 294 421.622 c 1
 312.970679688 420.933 354.512 386.569169922 354.512 348.708 c 3
 354.512 296.349 321.378 265.703 255.507 265.703 c 1
 247.331670899 302.812594726 232.114625 305.282 223.574 305.282 c 3
 215.42656543 305.282 191.888960118 291.080579227 191.182 281.976 c 0
 187.182 247.516014649 185.493 201.708657546 185.493 185.665 c 1
EndSplineSet
Substitution2: "case-1" R
Substitution2: "pcap-1" r.pcap
Substitution2: "smcp-1" r.smcp
EndChar

StartChar: s
Encoding: 115 115 18
Width: 352
VWidth: 1159
Flags: HMW
AnchorPoint: "Bottom" 164 -15 basechar 0
AnchorPoint: "Top" 182.5 465 basechar 0
LayerCount: 2
Fore
SplineSet
51.933 136.713 m 5
 83.3657894219 61.5775717033 153.975125391 35.134 179.378 35.134 c 5
 207.780160156 35.134 226.574 49.6117646484 226.574 77.043 c 5
 226.574 126.043048061 178.958871094 148.07077274 149.019 167.043 c 4
 108.035580319 191.044680278 47.622 209.304313374 47.622 282.488 c 5
 47.622 341.953601434 115.990444445 408 194.378 408 c 5
 228.587772944 408 259.687375298 402.689 291.823 397.378 c 5
 291.823 397.378 301.095362305 332.666217014 306.89 289.909 c 5
 291.201 282.842 l 5
 254.31445614 314.352447368 217.19842501 361.732 175.689 361.732 c 5
 153.585300781 361.732 139.115 349.46330957 139.115 326.713 c 5
 139.115 307.046464958 151.630729493 282.316783074 218.048 252.201 c 4
 290.193105299 223.656805664 322.134 172.516139649 322.134 119.713 c 5
 322.134 35.6579611388 227.916119466 -11.067 154.378 -11.067 c 5
 107.820558051 -11.067 69.895421658 -1.88571777344 33.689 9.799 c 5
 36.311 23.799 37.622 37.8265869141 37.622 52.799 c 5
 37.622 69.003422428 35.2283818359 116.264577572 29.244 132.469 c 5
 51.933 136.713 l 5
EndSplineSet
Substitution2: "case-1" S
Substitution2: "pcap-1" s.pcap
Substitution2: "smcp-1" s.smcp
EndChar

StartChar: t
Encoding: 116 116 19
Width: 341
VWidth: 1159
Flags: HMW
AnchorPoint: "Bottom" 183 -15 basechar 0
AnchorPoint: "TopRight" 313 531 basechar 0
AnchorPoint: "Top" 143.5 508 basechar 0
LayerCount: 2
Fore
SplineSet
4.354 360.354 m 1
 57.9412568359 407.165869141 126.485393555 458.036521484 171.005 487.646 c 1
 190.828 482.579 l 1
 185.220557618 453.750332031 186.368442382 429.356999024 184.139 398.311 c 1
 226.988606445 401.689 277.552393555 400 320.402 403.378 c 1
 313.646 340.531 l 1
 271.27680957 340.531 222.13019043 343.909 179.761 345.598 c 1
 174.9428125 289.608904002 177.517 236.452639711 177.517 109.756 c 3
 177.517 82.5464179688 186.817804688 54.536 242.139 54.536 c 3
 272.790685547 54.536 288.715976562 63.2733828125 316.579 73.823 c 1
 316.579 73.823 317.756 65.646 326.201 48.756 c 1
 287.3828125 22.5253544922 222.0048125 -10 162.756 -10 c 3
 142.756 -10 70.756 -0.386216796875 70.756 92.866 c 3
 70.756 189.421216681 75.2153333334 249.284915821 77.445 343.909 c 1
 77.445 343.909 35.6760645239 338.842 9.421 338.842 c 1
 4.354 360.354 l 1
EndSplineSet
Substitution2: "case-1" T
Substitution2: "pcap-1" t.pcap
Substitution2: "smcp-1" t.smcp
EndChar

StartChar: u
Encoding: 117 117 20
Width: 506
VWidth: 1159
Flags: HMW
AnchorPoint: "Bottom" 255 -15 basechar 0
AnchorPoint: "Ogonek" 391.65 -3 basechar 0
AnchorPoint: "Horn" 434.5 333 basechar 0
AnchorPoint: "Top" 264 465 basechar 0
LayerCount: 2
Fore
SplineSet
258.507 368.311 m 1
 325.721914662 379.121588235 395.472536738 393.175352941 447.469 405.067 c 1
 454.335 387.689 l 1
 432.442734666 342.840152 419.933 171.599096 419.933 132.866 c 3
 419.933 111.084192772 423.18935509 87.4838538015 425.933 72.603 c 0
 427.849880162 64.0518166958 432.662390608 57.359 446.134 57.359 c 3
 450.07888 57.359 477.0986 61.603 495.445 65.914 c 1
 495.933 27.335 l 1
 449.233936107 18.3132261433 389.852163487 -2.06223813899 349.349 -13.933 c 0
 342.460181409 -16.0059349734 341.849 -16.488 334.349 -16.488 c 3
 321.608470526 -16.488 322.986470526 4.89748648649 317.861 55.445 c 1
 284.885477747 39.2167142857 222.958338279 -11 176.311 -11 c 3
 137.45763905 -11 98.30599206 5.65168721952 82.244 45.378 c 0
 72.6650625 68.9860808081 68.311 93.5384848485 68.311 138.866 c 3
 68.311 187.587538462 71.311 256.756687023 71.311 288.574 c 0
 71.311 296.736666666 64.6237286059 309.641 47.665 309.641 c 3
 31.464 309.641 16.6649941111 305.909 10.665 305.287 c 1
 2.732 341.799 l 1
 47.4786690921 345.60307907 132.609463517 392.08213881 190.029 422.689 c 1
 203.895 401.866 l 1
 184.957813894 332.076788572 177.383 250.323132571 177.383 173.555 c 3
 177.383 116.164036324 191.608381366 66.048 246.847 66.048 c 3
 276.352124181 66.048 298.923513981 81.3302187273 316.861 93.268 c 1
 318.55 167.385769758 327.684 264.348798501 327.684 273.196 c 3
 327.684 318.5817792 304.065949495 328.043 262.062 331.11 c 1
 258.507 368.311 l 1
EndSplineSet
Substitution2: "case-1" U
Substitution2: "pcap-1" u.pcap
Substitution2: "smcp-1" u.smcp
EndChar

StartChar: v
Encoding: 118 118 21
Width: 418
VWidth: 1159
Flags: HMW
AnchorPoint: "Bottom" 193 -15 basechar 0
AnchorPoint: "Top" 210 465 basechar 0
LayerCount: 2
Fore
SplineSet
419 378.488 m 1
 382.067 350.199671875 385.177207498 350.825639766 360 302.775 c 0
 330.712758621 246.485962567 306.927767192 190.467851776 275.067 133 c 0
 251.165982999 89.9991719227 220.937777778 38 213.445 -20 c 1
 172.799 -20 l 1
 149.583416 106.558214286 94.0908793779 238.546323275 48.799 337.11 c 0
 44.1487788895 347.229866548 35.8106220187 356.302296675 28.488 360.11 c 0
 21.1049151076 364.295118166 11.2219354839 369.253555555 3 371.866 c 1
 6 405 l 1
 33.4448902439 401 76.4021097561 400 103.847 400 c 3
 137.235886956 400 185.355165218 405 216.78 411 c 1
 221.78 373.488 l 1
 212.594836364 368.870777778 190.206 365.177 190.206 365.177 c 1
 180.264447525 361.908075247 177.139 350.309050884 177.139 339.019 c 3
 177.139 326.066215905 181.258289065 309.743298851 185.51145439 294.081001302 c 0
 196.257608654 247.208577263 222.826304448 189.500651994 241.225 148.919 c 1
 271.264264282 196.59539995 286.873222278 228.720836553 305.068323243 289.684 c 0
 308.554083514 301.18347368 312.354 315.344579809 312.354 328.22 c 3
 312.354 347.994 300.182224138 368.191 260.555 375.488 c 1
 268.555 412 l 1
 297.85984127 405 311.094285715 404 328.11 404 c 3
 355.376447368 404 388.09618421 409 411 415 c 1
 419 378.488 l 1
EndSplineSet
Substitution2: "case-1" V
Substitution2: "pcap-1" v.pcap
Substitution2: "smcp-1" v.smcp
EndChar

StartChar: w
Encoding: 119 119 22
Width: 657
VWidth: 1159
Flags: HMW
AnchorPoint: "Bottom" 294 -15 basechar 0
AnchorPoint: "Top" 323 465 basechar 0
LayerCount: 2
Fore
SplineSet
659 379.177 m 1
 610.59515 350.92096875 609.815692418 352.00606037 584.531 297.263 c 0
 559.594739703 243.669347162 524.503934387 187.769069633 499.756 133 c 0
 479.906227709 88.7599845135 453.862512545 38 448.091 -20 c 1
 410.201 -20 l 1
 392.28489759 78.8841182433 359.65282272 182.663489865 321.689 269.799 c 1
 297.42661194 222.261545454 274.751131462 177.291162307 247.799 128.177 c 0
 225.213867576 86.864225792 195.354 36.8606732026 191 -20 c 1
 145.354 -20 l 1
 147.661705882 97.7766428571 96.2906380408 246.290437368 54.378 343.311 c 0
 50.4461814645 352.414364623 45.1846635969 357.176089124 32 362.866 c 0
 23.3662278152 366.42948493 12 371.386174603 2 372.555 c 1
 5 405 l 1
 35.3437317073 401 82.8382682927 400 113.182 400 c 3
 145.15475 400 180.889 401.6555 210.981 406.622 c 1
 214.981 369.11 l 1
 207.954023256 365.8325 198.331681052 365.40056838 196.096 365.177 c 0
 186.059813368 364.08008037 180.273 352.230704349 180.273 337.641 c 3
 180.273 324.817280464 182.472504978 309.442959205 185.301144621 294.770001115 c 0
 193.047533187 252.166977124 210.517677664 204.496486552 228.67 167.742 c 1
 257.87456 216.10922449 283.78 259.426 298.354 311.378 c 1
 294.092214285 318.5885 290.048211338 327.458031437 286.421 333.665 c 0
 281.496305492 341.811087665 274.220850896 353.950523783 265.732 360.799 c 0
 260.106154383 364.802512668 250.8373125 369.942555555 244.067 372.555 c 1
 247.067 405 l 1
 272.414703703 401 310.987296297 400 336.335 400 c 3
 369.927591304 400 418.340443478 404.060454545 449.957 408.933 c 1
 454.957 371.421 l 1
 446.861 367.569333334 428.139 364.488 428.139 364.488 c 0
 421.942833334 363.488 417.517 362.488 417.517 353.488 c 3
 417.517 352.488 418.327460719 342.613124203 418.828 337.488 c 0
 424.6700625 283.599584362 448.515734375 205.423432099 472.493 153.053 c 1
 498.961833334 193.804 517.491750933 241.634755944 532.574 297.952 c 0
 534.215804749 304.836733438 534.129 310.952 534.129 319.952 c 3
 534.129 350.502666666 524.044996335 364.163552083 484.775 374.11 c 1
 494.842 409.933 l 1
 519.27 404.741625 531.878 404 546.062 404 c 3
 580.838351351 404 619.787864865 409 649 415 c 1
 659 379.177 l 1
EndSplineSet
Substitution2: "case-1" W
Substitution2: "pcap-1" w.pcap
Substitution2: "smcp-1" w.smcp
EndChar

StartChar: x
Encoding: 120 120 23
Width: 435
VWidth: 1159
Flags: HW
AnchorPoint: "Bottom" 211 -15 basechar 0
AnchorPoint: "Top" 220 465 basechar 0
LayerCount: 2
Fore
SplineSet
8 26.445 m 1
 38 35.9613478261 46.9725254145 43.269355772 60 57.713 c 2
 178.287 192.421 l 1
 114.488 301.641 l 2
 84.4901206723 352.323747062 75.662338843 366.866 19 364.799 c 1
 19 404 l 1
 36 403 69 401 86 401 c 0
 124 401 169 403 205 407 c 1
 209 369.488 l 1
 190.89 372.683227169 188.713 365.308369053 188.713 360.488 c 3
 188.713 358.31575 188.977799913 353.681343005 190.024 351.799 c 2
 240.579 259.402 l 1
 278.464 310.531 l 2
 283.537472212 317.341015417 294.397 326.591266666 294.397 339.153 c 3
 294.397 369.995166666 270.11 368.555 256.933 372.799 c 1
 263 405 l 1
 279 404 306 404 322 404 c 0
 352 404 399 406 420 407 c 1
 423 381.311 l 1
 394.480571428 366.188434782 360.731169559 333.09854466 346.11 318.086 c 0
 317.825803989 288.311164788 289.134 258.873999999 260.646 229.268 c 1
 293.259448276 174.394000001 322.385764277 123.171419917 355.225 64.646 c 0
 371.915586058 35.4254051665 393.427285699 36.6938125 427 25.756 c 1
 423 -5 l 1
 396 -1 346 2 318 2 c 0
 288.040431818 2 254.752022727 -1 220.354 -5 c 1
 217.354 25.823 l 1
 251.976 27.1476428572 253.531 30.3151428572 253.531 37.756 c 3
 253.531 42.7088571428 249.696461259 53.9120020574 249.086 55.091 c 2
 195.665 159.598 l 1
 132.713 73.713 l 2
 128.926063353 68.5595047437 125.713 63.713 125.713 58.713 c 3
 125.713 39.2195217392 134.425 35.2423913044 167.689 28.823 c 1
 163 -6 l 1
 141 -4 111 -1 88 -1 c 0
 63 -1 34 -4 11 -6 c 1
 8 26.445 l 1
EndSplineSet
Substitution2: "case-1" X
Substitution2: "pcap-1" x.pcap
Substitution2: "smcp-1" x.smcp
EndChar

StartChar: y
Encoding: 121 121 24
Width: 446
VWidth: 1159
Flags: HMW
AnchorPoint: "Bottom" 291 -15 basechar 0
AnchorPoint: "Top" 232.5 465 basechar 0
LayerCount: 2
Fore
SplineSet
136.426 -346 m 1
 131.522393443 -346 108.230262295 -343 61.646 -343 c 3
 28.4385862069 -343 20.6901896552 -345 -2.555 -346 c 1
 -2.555 -346 -1.555 -323.058962963 -3.555 -307.287 c 1
 89.8007741936 -263.692340909 74.4002258064 -228.160318182 160.842 -46.469 c 1
 144.082585368 69.2451642053 91.7027824346 267.890843348 61.9059033203 327.33 c 0
 51.8498602515 348.079362744 44.4226574309 359.221036336 30.11 366.555 c 0
 23.1220210804 368.653428572 13.7774193548 370.488690476 6 371.866 c 1
 10 406 l 1
 36.7171975309 402 77.3738024691 400 104.091 400 c 3
 145.567382979 400 179.724404256 401.295285715 218.761 409.067 c 1
 222.761 375.555 l 1
 220.005 374.866 207.759315884 371.740709009 204.23 370 c 0
 190.399979166 363.941563667 187.718 338.030426039 187.718 322.483 c 3
 187.718 315.507812572 189.012099917 306.667988607 189.777353516 297.77 c 0
 195.92689522 235.709952854 216.107605797 153.914194698 240.469 101.517 c 1
 283.50725 152.174692611 315.240497078 235.282304927 329.598 301.775 c 0
 331.236984423 310.257303422 333.22 322.563635697 333.22 332.287 c 3
 333.22 348.799575836 328.014604651 365.123068966 266.177 376.177 c 1
 272.177 411 l 1
 301.551858696 404 342.297630435 400 359.354 400 c 3
 387.147243243 400 418.275675676 402 441.622 408 c 1
 446.622 373.866 l 1
 414.70391358 364.298084746 404.419955753 354.540158326 381.622 305.22 c 0
 365.933 271.44216875 273.247162797 93.7086410016 221.622 -12.689 c 0
 198.981 -58.038 140.56 -260.33 136.426 -346 c 1
EndSplineSet
Substitution2: "case-1" Y
Substitution2: "pcap-1" y.pcap
Substitution2: "smcp-1" y.smcp
EndChar

StartChar: z
Encoding: 122 122 25
Width: 453
VWidth: 1159
Flags: HMW
AnchorPoint: "Bottom" 226 -15 basechar 0
AnchorPoint: "Top" 232.5 465 basechar 0
LayerCount: 2
Fore
SplineSet
317.105 1.378 m 2
 172.756 1.378 l 2
 146.021844417 1.378 52.9385390071 -5.378 33.134 -15.512 c 1
 17.177 18.622 l 1
 111.027176517 120.840714705 199.209621938 237.94565 263.703 356.043 c 1
 258.222296388 358.867491009 246.34492541 359.421 234.531 359.421 c 3
 191.833304348 359.421 154.883698014 358.331315938 113.756 350.976 c 0
 77.2081875458 343.844340767 50.689 313.533685185 43.445 296.11 c 1
 16.067 307.555 l 1
 50 427.335 l 1
 73.7093224043 413.268 101.768065574 398.622 235.756 398.622 c 3
 329.09048421 398.622 405.178378948 399 428.512 408.756 c 1
 438.512 388.067 l 1
 350.559236267 274.787405714 242.830359117 160.505337142 190.053 37.201 c 1
 274.043 38.89 l 2
 307.769771941 39.7502061407 334.268480554 45.9153047084 360.933 63.158 c 0
 378.162134178 74.2839203082 392.316268022 88.6939577895 403.311 108.914 c 0
 408.430277597 118.446338271 413.004363637 127.904416666 416.378 141.469 c 1
 441.756 133.469 l 1
 409.512 -15.512 l 1
 391.279330619 -6.68837418443 377.231720676 1.378 317.105 1.378 c 2
EndSplineSet
Substitution2: "case-1" Z
Substitution2: "pcap-1" z.pcap
Substitution2: "smcp-1" z.smcp
EndChar

StartChar: A
Encoding: 65 65 26
Width: 705
VWidth: 1159
Flags: HMW
AnchorPoint: "Bottom" 353 -15 basechar 0
AnchorPoint: "Ogonek" 523 27 basechar 0
AnchorPoint: "Top" 367 699 basechar 0
LayerCount: 2
Fore
SplineSet
247.291264649 271.206828125 m 1
 281.528798828 262.866120118 369.377852539 264.79734668 408.06909375 265.761542969 c 1
 379.597202149 340.941394531 358.599853516 384.009757812 320.067730469 457.603310547 c 1
 286.395083984 380.193486328 273.308981445 337.89602832 247.291264649 271.206828125 c 1
417.057 -9.29687011719 m 1
 417.057 -9.29687011719 406.923 10.6980322266 400.167 35.2040791016 c 1
 444.584555664 45.4543798828 474.95809082 63.1304130859 466.134235351 92.706231445 c 0
 451.357154297 140.141829101 442.169388672 159.638513672 428.483 202.928 c 1
 378.892013672 220.169228516 298.030358399 225.40890625 227.201 216.751 c 1
 210.107536132 174.653276368 194.392254882 152.8995625 184.353679688 108.71628418 c 0
 177.139 72.1820400391 211.735739257 39.8053232422 274.5505 39.2078710938 c 1
 271.1725 -10.7811806641 l 1
 230.725988436 -3.48288264815 163.217696038 0.678818455968 103.815107533 0.678818455968 c 3
 71.0282882608 0.678818455968 40.5818107017 -0.892264339015 18.378 -4.24977050781 c 1
 18.378 -4.24977050781 14.9290654297 19.5505351562 14.067 41.3986757812 c 1
 76.2858417969 54.8812529297 99.1689082031 85.1009726563 105.279295899 98.9683583988 c 0
 193.00803418 302.165013672 264.525782226 466.97687793 330.927759766 636.347088868 c 0
 339.092933594 657.175244141 340.025078125 675.823467774 340.66822168 711.311 c 1
 398.96415625 711.311 l 1
 401.298991211 684.304944336 399.295199219 661.045914062 406.565337891 638.504536132 c 0
 468.885307618 426.641290039 507.480291016 301.525336914 618.330307618 74.9544111328 c 0
 633.103801757 44.9953525391 672.168417969 39.1412587891 690.622 39.3757988281 c 1
 690.622 39.3757988281 688.933 15.5218076172 687.244 -4.74619238281 c 1
 654.834622308 -1.09525060943 614.001542796 0.969323543869 572.905208354 0.969323543869 c 3
 512.06480735 0.969323543869 450.543404779 -2.12065820476 417.057 -9.29687011719 c 1
EndSplineSet
Position2: "cpsp-1" dx=0 dy=0 dh=50 dv=100
Substitution2: "c2pc-1" a.pcap
Substitution2: "c2sc-1" a.smcp
EndChar

StartChar: B
Encoding: 66 66 27
Width: 584
VWidth: 1159
Flags: HMW
AnchorPoint: "Bottom" 282 -15 basechar 0
AnchorPoint: "Top" 249 699 basechar 0
LayerCount: 2
Fore
SplineSet
11.244 41.579 m 1
 45.0558333334 42.201 106.335 43.652402262 106.957 84.024 c 0
 106.957 88.7093793019 112.024 180.543120212 112.024 289.244 c 3
 112.024 450.28883589 100.348813588 599.005401971 98.512 596.086 c 0
 97.0422272726 594.954516 91.5048949349 623.925696721 70.756 631.531 c 0
 62.9153398838 634.563122 15.124375 643.0114 7.177 644.287 c 1
 16.244 692.622 l 1
 26.7689330929 692.622 70.5777528294 681.933 126.756 681.933 c 3
 182.447426137 681.933 240.407301138 691.933 293.024 691.933 c 3
 456.197225054 691.933 499.359 578.657375976 499.359 520.067 c 3
 499.359 450.313121094 452.860519531 406.711979493 355.981 369.506657226 c 1
 466.022551757 357.141481445 560.024 267.996903089 560.024 178.244 c 3
 560.024 68.4842 458.023750964 -4.689 299.024 -4.689 c 3
 242.592576219 -4.689 190.46701115 0.87535308277 130.756 1.311 c 3
 69.1925525336 1.311 22.2371679085 -2.689 14.933 -2.689 c 1
 11.244 41.579 l 1
293.024 380.311 m 0
 339.150255968 389.435394889 373.531 434.1435 373.531 487.976 c 3
 373.531 565.262457031 340.823667969 640.598 284.67 640.598 c 3
 277.571438476 640.598 261.911438741 641.215220958 255.273 638.665 c 0
 245.338737819 635.872995703 241.060865511 618.912570448 239.919 596.086 c 0
 234.554280668 510.406187395 233.297 378.311 233.297 378.311 c 1
 282.768178072 378.311 287.020358325 379.342418089 293.024 380.311 c 0
269.024 344.177 m 0
 229.919 344.177 l 1
 231.608 255.518263946 232.999999473 168.716279942 234.986 115.292 c 0
 236.270696339 79.0909620491 240.176615102 49.7812938563 264.23 45.823 c 0
 270.34063577 44.8078102682 298.1771916 42.957 314.225 42.957 c 3
 381.070813675 42.957 424.55 87.2679209863 424.55 173.177 c 3
 424.55 257.176830574 379.672205033 344.177 269.024 344.177 c 0
EndSplineSet
Position2: "cpsp-1" dx=0 dy=0 dh=50 dv=100
Substitution2: "c2pc-1" b.pcap
Substitution2: "c2sc-1" b.smcp
EndChar

StartChar: C
Encoding: 67 67 28
Width: 743
VWidth: 1159
Flags: HW
AnchorPoint: "Bottom" 416 -15 basechar 0
AnchorPoint: "Top" 426 699 basechar 0
LayerCount: 2
Fore
SplineSet
38.177 343.177 m 3
 38.177 512.270034776 159.42088048 698.287 442.177 698.287 c 3
 506.915172125 698.287 544.629791034 690.939770824 605.067 672.464 c 0
 647.417877833 659.767575487 645.084024286 684.4823 667.043 686.933 c 1
 698.866 671.555 l 1
 660.158378378 610.443422415 661.177 572.757469195 661.177 550.35006543 c 0
 661.177 516.57006543 676.024 504.74706543 621.976 504.74706543 c 1
 610.770219178 523.36667391 604.186333663 559.456882274 567.062 592.47906543 c 0
 521.716752604 630.918704556 478.67270519 647.263 418.531 647.263 c 3
 297.009646276 647.263 195.608 553.980441279 195.608 376.957 c 3
 195.608 170.890903181 325.361433079 43.469 456.823 43.469 c 3
 544.197201672 43.469 605.684 125.142 670.244 200.627 c 1
 699.311 189.182 l 1
 689.455741304 133.276675 680.695594565 102.350325 667.555 46.445 c 1
 604.182145 14.682199832 519.148233529 -10.933 433.177 -10.933 c 3
 213.176676188 -10.933 38.177 136.860665815 38.177 343.177 c 3
EndSplineSet
Position2: "cpsp-1" dx=0 dy=0 dh=50 dv=100
Substitution2: "c2pc-1" c.pcap
Substitution2: "c2sc-1" c.smcp
EndChar

StartChar: D
Encoding: 68 68 29
Width: 792
VWidth: 1159
Flags: HW
AnchorPoint: "Bottom" 357 -15 basechar 0
AnchorPoint: "Top" 357 699 basechar 0
LayerCount: 2
Fore
SplineSet
338.78 54.914 m 5
 514.310407226 54.914 618.483 168.738599609 618.483 335.866 c 7
 618.483 529.462860351 506.879639649 650.043 312 650.043 c 7
 300.801941406 650.043 286.888128906 647.646262695 271.4215 645.486369141 c 4
 244.455 640.177 234.1535 596.615369141 234.1535 590.395369141 c 4
 230.0195 479.687474685 231.12489062 362.868667281 231.12489062 251.977718431 c 7
 231.12489062 208.545298129 232.069236553 163.710070087 236.187 117.694 c 4
 236.187 99.694 249.791140625 72.7524755859 276.144 64.603 c 4
 295.112741211 59.3977802734 313.733270507 54.914 338.78 54.914 c 5
12.311 688.689 m 29
 60.1151601562 685.311 87.9088398438 678.555 135.713 678.555 c 23
 222.689450195 678.555 270.739914063 696.689 357.713 696.689 c 7
 566.100214844 696.689 760.713 566.335230469 760.713 352.756 c 7
 760.713 70.3036835937 529.950311524 -2.866 333.713 -2.866 c 7
 259.713 -2.866 216.643023438 8.268 142.713 8.268 c 7
 60.7323076172 8.268 46.4790703125 1.201 13.244 -5.866 c 13
 11.933 41.78 l 5
 36.0525 47.3941708984 98.5663183594 47.5961689453 100.713 85.981 c 5
 106.939399989 135.398339267 109.18066146 186.800058608 109.18066146 241.136919174 c 7
 109.18066146 388.120613729 101.234374385 540.853899033 91.579 603.287 c 5
 88.8704873047 631.105125 52.9425 637.563929688 10.622 635.976 c 13
 12.311 688.689 l 29
EndSplineSet
Position2: "cpsp-1" dx=0 dy=0 dh=50 dv=100
Substitution2: "c2pc-1" d.pcap
Substitution2: "c2sc-1" d.smcp
EndChar

StartChar: E
Encoding: 69 69 30
Width: 619
VWidth: 1159
Flags: HW
AnchorPoint: "Bottom" 296 -15 basechar 0
AnchorPoint: "Ogonek" 535 15 basechar 0
AnchorPoint: "Top" 299 699 basechar 0
LayerCount: 2
Fore
SplineSet
18.378 685.488 m 1
 140.865992876 679.333043444 201.486823364 676.990891601 285.174776367 676.990891601 c 3
 442.176103217 676.990891601 528.869446932 684.113987873 556.78 690.555 c 1
 569.306845295 679.676617922 573.74730957 674.533224283 573.74730957 666.238203125 c 3
 573.74730957 650.394503451 560.729179749 623.198433489 553.536 524.976 c 1
 515.268 519.909 l 1
 510.469 542.605425532 512.580330949 588.724146785 490.024 600.684 c 0
 454.885689512 620.795278096 397.249631845 630.123247171 342.76578667 630.123247171 c 3
 314.265947467 630.123247171 286.631651927 627.558090917 263.541 622.641 c 0
 252.893921875 620.675988281 242.492760408 588.248564189 241.876 580.373 c 0
 235.12 513.590358509 228.742 437.775620014 227.053 375.201 c 1
 272.339652344 378.579 402.096263316 378.528965384 412 380.268 c 0
 450.639066406 388.804507812 464.6795 441.37743457 476.89 464.914 c 1
 517.78 453.091 l 1
 509.580820768 418.21496874 506.266439366 383.60236991 506.266439366 348.999060595 c 3
 506.266439366 311.855706283 510.085549165 274.722704092 515.78 237.287 c 1
 471.512 222.086 l 1
 450.4785 287.36743457 455.042999637 309.284172876 412 322.488 c 0
 380.864921875 330.933 292.861722656 329.244 227.053 330.933 c 1
 225.364 249.256692382 232.808464866 166.888933816 247.565 111.316 c 0
 251.65987207 96.9872207031 266.54861888 71.9658373381 272.742 71.048 c 0
 301.239091467 60.1323041523 327.409083947 56.6935049827 355.200012451 56.6935049827 c 1
 382.639518853 56.6935049827 427.495295681 66.5733387528 457.622 82.115 c 0
 515.151146484 113.046819336 530.526557618 135.369257812 578.024 192.158 c 1
 609.469 184.469 l 1
 587.79753418 101.714323243 581.726844726 72.1647685547 569.091 4.134 c 1
 392.143538996 3.21272805752 343.461731866 9.3189493598 263.219643234 9.3189493598 c 3
 173.094384267 9.3189493598 125.282437552 5.06752121519 25.622 -11.067 c 1
 12.866 26 l 1
 68.880375 41.4487609245 106.78 66.1729033463 106.78 99.048 c 1
 109.816604693 157.723436383 111.48830101 191.694341974 111.48830101 283.216749754 c 3
 111.48830101 415.311252303 108.621244036 519.032021736 103.402 597.641 c 0
 101.713 627.071339844 85.2180039063 627.077395507 9.933 649.665 c 1
 18.378 685.488 l 1
EndSplineSet
Position2: "cpsp-1" dx=0 dy=0 dh=50 dv=100
Substitution2: "c2pc-1" e.pcap
Substitution2: "c2sc-1" e.smcp
EndChar

StartChar: F
Encoding: 70 70 31
Width: 566
VWidth: 1159
Flags: HW
AnchorPoint: "Bottom" 171 -15 basechar 0
AnchorPoint: "Top" 309 699 basechar 0
LayerCount: 2
Fore
SplineSet
380.077 -8.244 m 1
 318.9645 -2.78223925781 272.61875 -0.206858886719 225.378875 -0.206858886719 c 1
 169.182 -0.206858886719 111.402 -3.47123925781 23.976 -7.622 c 1
 17.421 35.646 l 1
 67.665 40.134 107.823 71.048 107.823 102.493 c 1
 109.579946421 122.189718604 110.420405915 163.572790637 110.420405915 214.578504627 c 3
 110.420405915 344.788014673 105.497133551 538.302083686 102.756 593.708 c 0
 101.067 628.287 80.177 628.287 9.933 651.244 c 1
 14.244 687.067 l 1
 70.7989326299 682.753561175 135.169648842 680.992129419 198.568363965 680.992129419 c 3
 364.832351492 680.992129419 525.076907178 693.192658238 532.158 706.89 c 1
 544.137427854 696.31721891 549.024 693.335 549.024 668.201 c 1
 549.024 638.622 542.519554727 594.727355748 539.646 491.282 c 1
 503.823 486.215 l 1
 489.378 501.545 481.036438477 577.687701172 448.421 600.885 c 0
 400.579 632.665 326.486141602 638.979948242 263.364 629.976 c 0
 241.23 626.598 237.506680664 597.886822266 236.541 584.708 c 0
 229.785 509.22 231.474 437.043 231.474 366.866 c 1
 269.981 370.244 348.956245117 365.592356445 358.105 366.866 c 0
 400.617 375.311 411.44 419.914 426.062 463.225 c 1
 469.019 457.603 l 1
 462.335082486 422.510310537 459.237359288 388.17896366 459.237359288 353.161177782 c 1
 459.237359288 306.420268783 464.558946627 258.993310537 475.287 211.483 c 1
 428.952 200.416 l 1
 405.507 281.751 406.662740234 289.036424805 358.105 309.086 c 0
 331.33 317.531 286.268 315.842 229.785 317.531 c 1
 235.474 216.933 229.73871582 135.757935547 252.431 93.402 c 0
 256.431 83.981 287.168 42.689 383.321 42.689 c 1
 380.077 -8.244 l 1
EndSplineSet
Position2: "cpsp-1" dx=0 dy=0 dh=50 dv=100
Substitution2: "c2pc-1" f.pcap
Substitution2: "c2sc-1" f.smcp
EndChar

StartChar: G
Encoding: 71 71 32
Width: 803
VWidth: 1159
Flags: HW
AnchorPoint: "Bottom" 426 -15 basechar 0
AnchorPoint: "Top" 449 699 basechar 0
LayerCount: 2
Fore
SplineSet
43 355 m 3
 43 623.986259429 326.804 713.378 466 713.378 c 3
 535.292769325 713.378 589.297650583 698.053437284 637.800267962 693.388437284 c 0
 656.029522932 691.211437284 658.818795772 696.690316015 665.067 709.579 c 1
 692.445 705.134 l 1
 708.756 533.555 l 1
 673.622 524.799 l 1
 600.684 618.043 515.862279652 665.732 427.153 665.732 c 3
 257.891980067 665.732 192.986 499.838662214 192.986 370.823 c 3
 192.986 185.7910612 348.808516129 34.402 510.56 34.402 c 3
 544.888943446 34.402 564.493448529 40.3486923274 584.172 59.378 c 0
 593.876852401 74.3310765742 598.105 105.652 598.105 114.225 c 0
 598.105 141.015673965 601.483 185.430989052 601.483 225.617 c 0
 601.483 272.539163636 565.856 295.22 520.301 308.866 c 0
 508.376076285 310.295105156 497.684 311.866 487.732 312.177 c 1
 489.732 349.689 l 1
 599.481285171 339.459333334 719.990304183 341.378 772.713 346 c 1
 775.713 322 l 1
 750.451333333 313.3464 734.073962802 301.872935502 731.89 271.842 c 0
 728.512 214.204819765 725.731509216 163.82673097 723.445 120.249 c 0
 721.793259923 91.7899212211 730.440724138 79.4890227273 751.445 52.134 c 1
 745 33.201 l 1
 666 20.4135714285 502 -11.555 448 -11.555 c 3
 238.603 -11.555 43 125.14113717 43 355 c 3
EndSplineSet
Position2: "cpsp-1" dx=0 dy=0 dh=50 dv=100
Substitution2: "c2pc-1" g.pcap
Substitution2: "c2sc-1" g.smcp
EndChar

StartChar: H
Encoding: 72 72 33
Width: 831
VWidth: 1159
Flags: HW
AnchorPoint: "Bottom" 419 -15 basechar 0
AnchorPoint: "Top" 427 699 basechar 0
LayerCount: 2
Fore
SplineSet
11.732 690.311 m 1
 71.9310839844 684.311 125.533491211 681 183.67 681 c 1
 226.543708984 681 271.909129882 683 324.541 686.311 c 1
 325.852 640.354 l 1
 297.577619141 639.11 247.142674166 632.200959437 244.852 622.732 c 0
 235.407 587.421 230.029 463.866 228.718 362.933 c 1
 625.807206055 351.11 424.270386719 368.689 612.392 362.933 c 1
 611.014 428.866 611.669891606 526.130010569 599.813 601.732 c 0
 594.712337592 632.697003536 537.935231445 646.378 516.057 648.043 c 1
 518.301 690.311 l 1
 570.353932618 684.311 612.952302734 680.311 655.239 680.311 c 1
 704.230560547 680.311 754.254417969 685.311 818.512 697.311 c 1
 822.445 653.421 l 1
 773.215557618 650.190090909 755.457071557 641.225918516 752.177 614.732 c 0
 738.976 508.244 733.799 312.842 733.799 179.086 c 3
 733.799 122.881013793 737.783968455 73.3569494529 750 56.201 c 0
 765.201 35.335 799.488125 29.512 820.445 30.957 c 1
 820.445 30.957 820.957 12.335 817.134 -11.311 c 1
 773.459597656 -4.311 728.74549707 0 681.952 0 c 1
 632.92718457 0 582.14406543 -3.622 528.258 -15.689 c 1
 528.258 -15.689 524.325 8 520.258 28.268 c 1
 553.962453125 32.756 599.103458162 45.0635916939 601.014 65.201 c 0
 610.081 157.54425 612.081 215.556325758 612.392 311.909 c 1
 499.131008789 320.354 469.574879882 318.665 228.407 311.909 c 1
 228.096 230.381950191 227.480218122 134.855610452 234.23 71.268 c 0
 237.858300781 37.335 310.403150391 36.512 327.12 34.335 c 1
 327.12 34.335 325.187 10.646 324.187 -13 c 1
 259.103401368 -4 203.701258789 0.689 150.048 0.689 c 1
 103.592416993 0.689 59.2155576172 -2.311 13.488 -11 c 1
 13.488 -11 11.244 12.311 9.244 39.957 c 1
 28.8849599609 40.445 85.4277528563 47.3634626482 86.933 66.445 c 0
 97.378 192.31208 98.244 351.2393675 98.244 484.67 c 3
 98.244 543.933 94.652661128 602.034444173 85.732 617.732 c 0
 75.0710146484 636.976 28.8691367187 643.866 10.11 642.665 c 1
 11.732 690.311 l 1
EndSplineSet
Position2: "cpsp-1" dx=0 dy=0 dh=50 dv=100
Substitution2: "c2pc-1" h.pcap
Substitution2: "c2sc-1" h.smcp
EndChar

StartChar: I
Encoding: 73 73 34
Width: 341
VWidth: 1159
Flags: HW
AnchorPoint: "Bottom" 167 -15 basechar 0
AnchorPoint: "Ogonek" 234 15 basechar 0
AnchorPoint: "Top" 171 699 basechar 0
LayerCount: 2
Fore
SplineSet
17.866 695 m 1
 76.8036917168 686.334529453 122.833940373 682.561039447 169.99099153 682.561039447 c 3
 215.647516667 682.561039447 262.36027628 686.040168354 322.866 692 c 1
 324.866 636.598 l 1
 294.426 635.287 263.316 637.019 252.426 616 c 0
 241.066196257 581.943885633 230.743327266 432.501966794 230.743327266 296.649137965 c 3
 230.743327266 232.125101355 234.599298349 158.966766028 243.737 80.469 c 0
 247.127196599 30.8067130594 299.804 37.512 329 39.646 c 1
 328 -9 l 1
 276.492887966 -3.82569560034 219.264209149 -0.810369429872 164.006450153 -0.810369429872 c 3
 110.909581234 -0.810369429872 59.6324923437 -3.61817107432 17 -10 c 1
 10.622 40.335 l 1
 40.995 38.268 102.818 39.402 108.263 97.67 c 0
 114.673451716 164.041348425 119.312197948 251.20474966 119.312197948 336.857634235 c 3
 119.312197948 442.868011388 112.801969818 546.446223765 100.062 610.555 c 0
 93.2726613103 642.003952966 35.861 640.799 13.866 639.598 c 1
 17.866 695 l 1
EndSplineSet
Position2: "cpsp-1" dx=0 dy=0 dh=50 dv=100
Substitution2: "c2pc-1" i.pcap
Substitution2: "c2sc-1" i.smcp
EndChar

StartChar: J
Encoding: 74 74 35
Width: 337
VWidth: 1356
Flags: HMW
AnchorPoint: "Bottom" 189 -138.8 basechar 0
AnchorPoint: "Top" 172 699 basechar 0
LayerCount: 2
Fore
SplineSet
99.507 602.976 m 0
 88.6378963432 635.961071506 55.976 635.287 14 640.976 c 1
 18 692 l 1
 72.8071125339 686.836167284 116.452596706 684.600071368 160.221930354 684.600071368 c 3
 209.083333595 684.600071368 265.693437268 686.954649118 323 692 c 1
 325 635.909 l 1
 291.804 633.22 255.870948666 633.574009778 251.871 606.354 c 0
 233.510676757 491.223039062 233.158 374.225302734 233.158 225 c 3
 233.158 75.0957050781 249.493 15.1338525391 249.493 -34.45 c 3
 249.493 -96.3957392578 181.442895374 -149.665659633 100.201 -202.067 c 0
 66.933 -223.201 49.7416666666 -235.648470589 24.512 -251 c 1
 -8.067 -209.732 l 1
 12.8778793103 -199.516694445 30.4524816295 -189.475019888 46.488 -178.555 c 0
 51.6994395131 -175.140177207 56.457554806 -171.964303827 60.488 -168.244 c 0
 123.961694445 -110.622 121.464 -11.6654677734 121.464 65 c 3
 121.464 102.530492188 111.33 567.599733399 99.507 602.976 c 0
EndSplineSet
Position2: "cpsp-1" dx=0 dy=0 dh=50 dv=100
Substitution2: "c2pc-1" j.pcap
Substitution2: "c2sc-1" j.smcp
EndChar

StartChar: K
Encoding: 75 75 36
Width: 687
VWidth: 1159
UnlinkRmOvrlpSave: 1
Flags: HW
AnchorPoint: "Bottom" 359 -15 basechar 0
AnchorPoint: "Top" 335 699 basechar 0
LayerCount: 2
Fore
SplineSet
372.397 685 m 1
 401.613907236 683.004664367 433.675106816 681.949571772 466.741023273 681.949571772 c 3
 512.626433009 681.949571772 560.921831532 685.101999391 604 692 c 1
 615.756 647.043 l 1
 582.335 637.732 541.36649562 615.521483959 506.976 585.196 c 0
 421.555 510.397 358.335272401 442.912415638 293.431 370.445 c 1
 305.833 356.665 530.058410821 146.656944252 556.708 124.206 c 0
 607.574058119 81.5539588916 668.981 45.579 678.378 23 c 1
 673 -1 l 1
 645 1 606 4 578 4 c 3
 530.550317757 4 470.159813084 1 424.148 -4 c 1
 420.148 21.689 l 1
 437.746 28.1626666666 465.459 32.311 444.837 73.158 c 0
 431.995730463 95.4556468892 290.037827476 227.641674419 215.206 302.22 c 1
 215.895 236.055303798 220.059146268 155.799795887 224.34 108.627 c 0
 229.826314696 47.092569028 268.952513889 33.311 310.45 24.134 c 1
 306.45 -10 l 1
 249.312139205 -2.8 190.838588158 1.88 126.488 1.88 c 3
 91.8 1.88 55 -0.2 15 -5 c 1
 12 34.201 l 1
 46.33 33.134 79.4367618485 44.5217392176 85.488 95.804 c 0
 94.9419527014 182.233443718 99.513267791 275.341331624 99.513267791 367.184455971 c 3
 99.513267791 430.986325409 96.0740500229 491.274294954 91.555 557.306 c 0
 86.4705863273 628.298896139 68.354 640.177 12.933 652.177 c 1
 21 688 l 1
 56.6601886794 683.542476415 94.1086338448 681.667989976 131.662527565 681.667989976 c 3
 184.916206015 681.667989976 238.355812754 684.566018868 288.292 689 c 1
 291.292 651.488 l 1
 261.374689655 643.732 237.002260989 640.033562829 230.407 588.708 c 0
 221.962 510.703123506 215.206 436.41276494 215.206 355.622 c 1
 268.841697959 418.704008811 323.301207643 477.381340171 375.459 544.038 c 0
 387.61888943 560.942474059 407.806558802 595.565590336 412.55 611.354 c 0
 419.302442229 636.970314519 398.110350877 644.036669391 371.397 649.043 c 1
 372.397 685 l 1
EndSplineSet
Position2: "cpsp-1" dx=0 dy=0 dh=50 dv=100
Substitution2: "c2sc-1" k.smcp
Substitution2: "c2pc-1" k.pcap
EndChar

StartChar: L
Encoding: 76 76 37
Width: 614
VWidth: 1159
Flags: HW
AnchorPoint: "Bottom" 300 -15 basechar 0
AnchorPoint: "TopRight" 348.5 581 basechar 0
AnchorPoint: "Top" 157 699 basechar 0
LayerCount: 2
Fore
SplineSet
321.828 693 m 1
 325.828 640.287 l 1
 240.638808451 625.298052632 235.862586965 626.339921318 230.474 536.727 c 0
 227.554017692 486.770133 221.680952151 230.754942453 226.096 148.311 c 0
 226.502430301 122.372565533 229.035593759 73.8397558903 287.01 70.603 c 0
 303.3797277 70.1436666666 384.493609489 71.328918712 395.971 72.292 c 0
 493.435965518 84.9501566265 528.043 115.804 556.488 193.56 c 1
 599.067 185.182 l 1
 602.549243243 130.922857143 578.799 102.019 559.378 -22.378 c 1
 534.622 -9.933 538.217993805 1.46601260348 486 -0.311 c 0
 474.985240492 -0.78376503077 386 2 284 2 c 3
 69 2 34 -7 23 -7 c 1
 16.622 43.89 l 1
 61.842 49.678 90.311 60.4488564167 90.622 90.469 c 0
 90.622 94.210625 94 185.8804375 94 300 c 3
 94 445.476858247 85.0425589126 585.167048031 83.866 595.708 c 0
 80.488 626.946203752 56.775 642.488 12 634.842 c 1
 16 696 l 1
 56.3726980984 686.141550464 101.593828395 682.453832817 146.076608846 682.453832817 c 3
 209.221379303 682.453832817 271.181623575 687.163949757 321.828 693 c 1
EndSplineSet
Position2: "cpsp-1" dx=0 dy=0 dh=50 dv=100
Substitution2: "c2pc-1" l.pcap
Substitution2: "c2sc-1" l.smcp
EndChar

StartChar: M
Encoding: 77 77 38
Width: 958
VWidth: 1159
Flags: HW
AnchorPoint: "Bottom" 483 -15 basechar 0
AnchorPoint: "Top" 499 699 basechar 0
LayerCount: 2
Fore
SplineSet
945 1 m 1
 909.585780987 7.78061556545 870.161972762 11.5117575791 828.131102097 11.5117575791 c 3
 765.847766767 11.5117575791 730.768163218 7.28208971954 679.201 -2 c 1
 673.512 45.646 l 1
 700.77 47.689 739.617 87.56 741.995 167.962 c 0
 751.307858761 279.853148894 744.9716446 391.677905178 727.306 493.459 c 1
 658.888724324 389.016839844 595.479712411 279.473775467 545.689 160.579 c 0
 525.666004181 116.031834506 518.091 69.536 506.024 9 c 1
 454.378 9 l 1
 453.378 88.115 440.487065347 127.312310697 421.847 162 c 2
 239.627 500.349 l 1
 215.426 396.090719726 203.532272885 281.15372559 207.938 164.541 c 0
 213.68966965 53.4903618358 249.785171428 54.646 302.737 42.713 c 1
 296.359 -10 l 1
 252.137331524 -4.00303937763 199.659490791 0.210654811152 144.866745887 0.210654811152 c 3
 101.680222848 0.210654811152 56.9714448602 -2.72240825842 14 -10 c 1
 12 42.713 l 1
 94.421 47.201 125.667866087 87.9132970398 129.89 151.029 c 2
 153.823 487.66 l 2
 156.09208779 531.155051528 149 561.349 130.067 596.44 c 0
 111.005488185 625.294254802 87.067 635.397 16.866 641.22 c 1
 29 699 l 1
 107.654535265 689.032 186.908904815 679.603312444 276.876 685.311 c 0
 298.216266144 686.384360079 298.331770776 672.908549687 302.498 661 c 0
 357.638812155 517.716694337 422.396298343 379.911889649 517.67 258.503 c 1
 740.062 680.067 l 0
 745.062 689.067 754.116696975 693.616376768 760.062 692.067 c 0
 820.311118812 682.622 882.251673268 686 941 691 c 1
 945.689 639.287 l 1
 882.402 635.22 851.383900232 616.844211914 850.957 536.904 c 0
 848.485178952 409.582260426 851.146374762 282.998678934 859.89 160.584 c 0
 865.891031915 66.225 900.60506383 47.067 946 57.091 c 1
 945 1 l 1
EndSplineSet
Position2: "cpsp-1" dx=0 dy=0 dh=50 dv=100
Substitution2: "c2pc-1" m.pcap
Substitution2: "c2sc-1" m.smcp
EndChar

StartChar: N
Encoding: 78 78 39
Width: 836
VWidth: 1159
Flags: HW
AnchorPoint: "Bottom" 431 -15 basechar 0
AnchorPoint: "Top" 427 699 basechar 0
LayerCount: 2
Fore
SplineSet
14 692 m 1
 62.5677045455 687.6555 127.393525712 680.431904633 178.383 683.311 c 0
 193.412510145 684.091451053 194.753637624 679.659818931 201.383 672.311 c 0
 347.646 510.704692054 505.421 366.230345525 683.842 235.9 c 1
 692.83991013 304.701046873 695.988875977 373.502552201 695.988875977 445.006477539 c 3
 695.988875977 456.93502576 695.984892136 468.845810142 695.909 481.057 c 0
 695.025883928 658.620762712 607.77 654.756 597 652.799 c 1
 601 699.756 l 1
 656.519569006 692.581488666 703.298806499 690.019700695 747.271593481 690.019700695 c 3
 776.164943343 690.019700695 803.846621969 691.125742847 832 692.756 c 1
 837 644.799 l 1
 805.225 638.799 774.440225957 639.854626154 768.512 589.842 c 0
 748.918666666 422.329445451 745 243.989288277 745 64.641 c 0
 745 44.4050116279 752.7225 9.21198837209 760.445 -11.024 c 1
 715.866 -21.335 l 1
 706.619645731 15.6374627694 673.778808554 58.7151373552 642.823 88.464 c 0
 495.728444444 229.816760198 343.666555556 362.218427873 181.67 494.191 c 1
 166.469 217.388 l 2
 158.016447442 90.2712970536 223.206 49.2737451172 279.756 49.469 c 1
 269 -11 l 1
 230.475274138 -2.82996917899 193.353344449 0.0350683801344 158.148197194 0.0350683801344 c 3
 109.280738727 0.0350683801344 64.1064561839 -5.48516570496 24 -10 c 1
 17.622 47.091 l 1
 55.641 40.201 82.9450091773 63.6069766558 90.11 122.627 c 0
 101.45978324 222.206173252 106.63207391 325.847924518 106.63207391 430.331351559 c 3
 106.63207391 460.637421264 104.321093654 490.847534182 103.622 521.392 c 0
 101.952267367 595.014368769 46.263 633.153 12 633.531 c 1
 14 692 l 1
EndSplineSet
Position2: "cpsp-1" dx=0 dy=0 dh=50 dv=100
Substitution2: "c2pc-1" n.pcap
Substitution2: "c2sc-1" n.smcp
EndChar

StartChar: O
Encoding: 79 79 40
Width: 845
VWidth: 1159
Flags: HW
AnchorPoint: "Horn" 713.5 573 basechar 0
AnchorPoint: "Middle" 423.697 364.853 basechar 0
AnchorPoint: "Bottom" 422 -15 basechar 0
AnchorPoint: "Ogonek" 486 11 basechar 0
AnchorPoint: "Top" 426 699 basechar 0
LayerCount: 2
Fore
SplineSet
365.507 628.995 m 7
 264.890466657 628.995 183.541 550.902606179 183.541 408.182 c 7
 183.541 224.760314967 321.35029448 55.603 462.091 55.603 c 7
 576.643467934 55.603 647.947 172.935952945 647.947 305.153 c 7
 647.947 469.377399144 520.393537569 628.995 365.507 628.995 c 7
428 695.22 m 7
 635.000205558 695.22 802 534.939314243 802 338.933 c 7
 802 149.191268953 643.999839234 -4.732 430 -4.732 c 7
 215.999757472 -4.732 43 148.222429862 43 338.933 c 7
 43 529.14587853 218.000323257 695.22 428 695.22 c 7
EndSplineSet
Position2: "cpsp-1" dx=0 dy=0 dh=50 dv=100
Substitution2: "c2pc-1" o.pcap
Substitution2: "c2sc-1" o.smcp
EndChar

StartChar: P
Encoding: 80 80 41
Width: 596
VWidth: 1159
Flags: HW
AnchorPoint: "Bottom" 162 -15 basechar 0
AnchorPoint: "Top" 294 699 basechar 0
LayerCount: 2
Fore
SplineSet
259.11 286.268 m 3
 339.884699765 286.268 430.215 343.384387694 430.215 453.488 c 3
 430.215 541.373148128 392.309764392 595.606806704 370.244 615.775 c 0
 350.229839489 634.900400785 313.954395473 652.244 277.565 652.244 c 3
 253.82 652.244 236.231560928 630.775001334 236.407 612.531 c 0
 237.663761036 540.179606487 233.33984375 366.536132812 237.2734375 290 c 5
 244.803710938 287.201171875 249.854505468 286.268 259.11 286.268 c 3
15 687 m 1
 41 685 75 683 114 683 c 3
 185 683 224 694 295 694 c 3
 460 694 564 578.067 564 467 c 3
 564 340.272941822 445.117811275 243.378 283.493 243.378 c 3
 276.34 243.378 245.56 243.244 239.34 244.488 c 1
 242.521142857 186.022653409 247.220830787 112.343018675 250.474 95.359 c 0
 260.608 46.8565107413 293.699 50.6814 355.053 46.646 c 1
 352.431 -10 l 1
 275.761641183 -4.9735775227 222.66551827 3.523620653 165.069841603 3.523620653 c 3
 122.064617136 3.523620653 76.4302243064 -0.39972579506 15.33 -11 c 1
 2.708 37.335 l 1
 84.67284 61.8208378906 107.448537329 65.5269191589 109.933 100.359 c 0
 112.766549502 139.903895479 114.34375 185.375208819 114.34375 233.62318182 c 3
 114.34375 348.461546427 108.735294346 468.207509619 101.622 585.507 c 0
 99.9405714286 616.086 66.153 633.665 11.311 633.976 c 1
 15 687 l 1
EndSplineSet
Position2: "cpsp-1" dx=0 dy=0 dh=50 dv=100
Substitution2: "c2pc-1" p.pcap
Substitution2: "c2sc-1" p.smcp
EndChar

StartChar: Q
Encoding: 81 81 42
Width: 785
VWidth: 1361
Flags: HW
AnchorPoint: "Middle" 392.697 364.853 basechar 0
AnchorPoint: "Top" 395 699 basechar 0
AnchorPoint: "Bottom" 343 -15 basechar 0
LayerCount: 2
Fore
SplineSet
371.799 657.464 m 3
 267.90013924 657.464 193.364 555.483828487 193.364 407.225 c 3
 193.364 228.836761984 277.694391635 60.469 412.957 60.469 c 3
 525.364222256 60.469 586.636 168.902130937 586.636 321.574 c 3
 586.636 546.129176743 487.037237548 657.464 371.799 657.464 c 3
546.34 43.737 m 1
 673.487452229 -60.9303539366 781.073757962 -105.732 853.45 -105.732 c 3
 859.67 -105.732 867.335 -105.11 872 -103.555 c 1
 874.933 -138.378 l 1
 816.367109375 -156.777066666 777.0908125 -161.134 750.378 -161.134 c 3
 624.045252809 -161.134 501.820887641 -101.0335 384.732 -0.866 c 1
 181.49204 8.38628571431 44.378 165.682495962 44.378 361.622 c 3
 44.378 569.612511393 199.378 694.976 390.378 694.976 c 3
 582.378 694.976 742.378 553.508946534 742.378 363.622 c 3
 742.378 219.395779803 633.859797688 83.5604386981 546.34 43.737 c 1
EndSplineSet
Position2: "cpsp-1" dx=0 dy=0 dh=50 dv=100
Substitution2: "salt-1" Q.alt
Substitution2: "c2pc-1" q.pcap
Substitution2: "c2sc-1" q.smcp
EndChar

StartChar: R
Encoding: 82 82 43
Width: 734
VWidth: 1159
Flags: HMW
AnchorPoint: "Bottom" 357 -15 basechar 0
AnchorPoint: "Top" 284 699 basechar 0
LayerCount: 2
Fore
SplineSet
217.962 370.445 m 1
 240.298796116 368.58375 255.907203884 365.756 281 365.756 c 3
 371.730388572 365.756 419.483 425.458949764 419.483 495.976 c 3
 419.483 540.46779576 372.727514592 650.909 272.799 650.909 c 3
 254.48545812 650.909 233.222941012 646.74309382 223.718 580.239 c 0
 214.917941665 514.962167822 214.813666666 436.170557311 217.962 370.445 c 1
12 692.689 m 1
 49.0472882883 691.689 74.9287117117 690.689 136.091 690.689 c 0
 216.523728814 690.689 232.354875706 706.689 300 706.689 c 0
 436.771069959 706.689 549.89 620.257419552 549.89 514.555 c 0
 549.89 427.249392832 465.421 359.716852301 412.292 337.622 c 1
 535.719867435 147.419079176 614.718729106 14.8724277286 742.067 12.957 c 1
 733 -33 l 1
 537.920563381 -37.7696348315 338.282 167.323191285 284.263 306.598 c 1
 281.464 306.287 270.708 307.665 268.531 307.665 c 0
 249.861161905 308.7674 239.387838095 310.5626 220.718 311.976 c 1
 225.1668 232.646439024 227.995385751 177.589848459 238.919 108.694 c 0
 247.303733334 63.2800742465 279.01 51.536 316.785 47.225 c 1
 306.029 -11.244 l 1
 249.022454948 -2.14634312909 212.241192802 2.71869789687 134.851643625 2.71869789687 c 3
 97.7732825116 2.71869789687 60.3047525563 -0.971147643206 23 -8.244 c 1
 14.622 45.158 l 1
 51.9950972222 36.1443609023 76.6123888889 48.8886165414 83.177 90.493 c 1
 91.8028655333 205.739029599 95.6717768683 283.208577779 95.6717768683 359.717055714 c 3
 95.6717768683 421.291733984 92.8253955451 482.102107901 88.244 565.416 c 1
 79.2844303798 625.098960784 61.7781772152 644.921137255 12 646.732 c 1
 12 692.689 l 1
EndSplineSet
Position2: "cpsp-1" dx=0 dy=0 dh=50 dv=100
Substitution2: "salt-1" R.alt
Substitution2: "c2pc-1" r.pcap
Substitution2: "c2sc-1" r.smcp
EndChar

StartChar: S
Encoding: 83 83 44
Width: 575
VWidth: 1159
Flags: HW
AnchorPoint: "Bottom" 286 -15 basechar 0
AnchorPoint: "Top" 308 699 basechar 0
LayerCount: 2
Fore
SplineSet
28.622 204.335 m 1
 69.512 210.335 l 1
 75.6146386719 197.324404297 89.667030426 167.817718509 119.646 134.45 c 0
 161.932492188 88.1061103516 254.348702149 50.225 320.158 50.225 c 3
 374.672173828 50.225 408.349 106.710673828 408.349 150.22 c 3
 408.349 265.288956055 269.763065326 287.200703769 181.287 333.273828125 c 0
 144.879229493 352.682311524 67.311 395.170516601 67.311 494.842 c 3
 67.311 576.671330859 126.019 703.378 309.311 703.378 c 3
 358.637270507 703.378 402.255908807 693.13254631 419.019 687.89 c 0
 432.247682523 683.787051562 453.768206349 665.067 469.22 699.201 c 1
 511.622 688.134 l 1
 487.732 603.975104493 498.542630093 621.578299863 517.067 556.201 c 0
 523.007116211 535.250791016 514.277357422 503.770882813 459.952 516.311 c 1
 457.775 521.287 457.216386788 539.310356152 447.153 557.775 c 0
 418.878801757 608.941439453 358.589925781 655.732 287.354 655.732 c 3
 269.101400391 655.732 185.828 650.838940636 185.828 547.914 c 3
 185.828 455.817844726 275.313020436 458.058238711 378.397 405.651 c 0
 493.310199194 344.917017473 528.311 269.910333007 528.311 192.024 c 3
 528.311 109.138139649 473.311 -5.866 281.311 -5.866 c 3
 229.333449219 -5.866 174.709768349 4.66243731153 127.268 18 c 0
 109.402285156 23.0581503906 110.145255859 21.3691503906 94.823 -10.89 c 1
 57.311 -4.134 l 1
 58.3358955078 70.01196875 55.2618818359 89.3549804688 28.622 204.335 c 1
EndSplineSet
Position2: "cpsp-1" dx=0 dy=0 dh=50 dv=100
Substitution2: "c2pc-1" s.pcap
Substitution2: "c2sc-1" s.smcp
EndChar

StartChar: T
Encoding: 84 84 45
Width: 728
VWidth: 1159
Flags: HMW
AnchorPoint: "Bottom" 358 -15 basechar 0
AnchorPoint: "Top" 358 699 basechar 0
LayerCount: 2
Fore
SplineSet
125 687.067 m 0
 250.171147774 683.85475214 375.31580054 682.171572875 500.827254201 682.171572875 c 3
 550.522179573 682.171572875 600.267811887 683.506820418 650.11 683.689 c 0
 666.690210526 683.689 682.234157894 690.5158 689.488 700.756 c 1
 719.311 682 l 1
 703.557181818 635.110439024 684.427545455 583.010926829 682.177 521.794 c 1
 635.531 529.172 l 1
 638.976 537.44 639.424156252 553.460781261 641.531 563.995 c 0
 651.281229732 610.88014866 499.249 615.086 439.493 615.775 c 1
 432.427328312 498.81466204 429.466955322 383.696952475 429.466955322 266.567380197 c 3
 429.466955322 226.767120675 429.822737721 186.597033681 430.359 146.029 c 0
 431.651603587 59.8871523125 434.352792793 55.9364328358 522.067 51.469 c 1
 513 -7 l 1
 474.745360611 -1.66214334103 425.212355377 0.945200232948 374.874776298 0.945200232948 c 3
 284.488779143 0.945200232948 247.969467552 -3.11635527979 203 -11 c 1
 190.866 52.847 l 1
 283.751 61.0048088379 281.644443524 82.7169705476 283.751 105.249 c 0
 289.732392957 171.833306567 296.890585523 320.265555291 296.890585523 442.616951152 c 3
 296.890585523 524.671702912 293.440416434 594.583200152 283.751 617.464 c 1
 237.342489362 618.8085 193.283033418 613.455415054 147.426 606.641 c 0
 86.643076819 596.260388673 77.1874452381 603.3815 43.89 527.129 c 1
 -2.689 546.818 l 1
 18 594.455107143 47.99905 690.950785715 59.378 717.823 c 1
 75.488 697.756 109.193527623 687.35516466 125 687.067 c 0
EndSplineSet
Position2: "cpsp-1" dx=0 dy=0 dh=50 dv=100
Substitution2: "c2pc-1" t.pcap
Substitution2: "c2sc-1" t.smcp
EndChar

StartChar: space
Encoding: 44 44 46
Width: 200
VWidth: 1159
Flags: HW
LayerCount: 2
Fore
SplineSet
25.086 -157.115 m 1
 10.464 -125.914 l 1
 44.464 -115.249 108.615888555 -74.734507317 88.622 -29.158 c 0
 76.555 -0.957 48.0302543162 18.2037476021 22.531 31.244 c 0
 16.153 33.4736666666 12.775 42.4258333334 12.775 49.689 c 3
 12.775 57.1654285715 16.2317761097 62.7953880548 23.22 65.445 c 0
 47.665 78.512 65.3630736609 100.329123606 80.177 123.091 c 0
 82.9425555555 129.469 90.6267777778 135.536 98.311 135.536 c 3
 105.689 135.536 113.886901827 129.392530419 116.445 122.402 c 0
 127.644447368 100.024 151.349158164 80.2186139453 175.402 65.445 c 0
 181.78 62.756 186.847 57.067 186.847 49.689 c 1
 186.847 45.756 199.584 -72.134 25.086 -157.115 c 1
EndSplineSet
Position2: "cpsp-1" dx=0 dy=0 dh=7 dv=14
EndChar

StartChar: period
Encoding: 46 46 48
Width: 200
VWidth: 1159
Flags: HW
LayerCount: 2
Fore
SplineSet
176.95225 29.9681308594 m 0
 151.322121991 16.2661091058 129.353698031 -1.17288347422 115.92825 -27.3310654297 c 0
 113.271193102 -33.7090654297 106.628195946 -37.536 98.6563154297 -37.536 c 3
 91.2786999163 -37.536 82.6705206008 -33.7090654297 80.2113154297 -27.3310654297 c 0
 66.8114545648 -1.17288347422 47.3204763747 16.2661091058 21.7383808594 29.9681308594 c 0
 15.3603808594 32.1752790282 12.8093154297 41.0016608969 12.8093154297 47.622 c 3
 12.8093154297 55.5938805159 15.3603808594 62.2368776721 21.7383808594 64.8939345703 c 0
 47.3204763747 78.4516883154 66.8114545648 98.1723331721 80.2113154297 124.055869141 c 0
 82.6705206008 130.433869141 91.2786999163 135.536 98.6563154297 135.536 c 3
 106.628195946 135.536 113.271193102 130.433869141 115.92825 124.055869141 c 0
 129.353698031 98.1723331721 151.322121991 78.4516883154 176.95225 64.8939345703 c 0
 183.33025 62.2368776721 187.15718457 55.5938805159 187.15718457 47.622 c 3
 187.15718457 41.0016608969 183.33025 32.1752790282 176.95225 29.9681308594 c 0
EndSplineSet
Position2: "cpsp-1" dx=0 dy=0 dh=7 dv=14
EndChar

StartChar: dotlessi
Encoding: 305 305 50
Width: 263
VWidth: 1159
Flags: HMW
AnchorPoint: "Top" 136 465 basechar 0
LayerCount: 2
Fore
SplineSet
187.292 189.799 m 3
 187.292 156.097706055 193.248958334 99.278765625 198.359 67.091 c 0
 200.531037367 50.5682141438 214.244125 39.134 223.091 36.445 c 0
 235.661774631 32.8440009766 247.818208334 32.5935576172 258 31.823 c 1
 253.311 -9.067 l 1
 213.451401545 -3.067 168.480721413 1.933 125.555 1.933 c 3
 93.1865625 1.933 54.3444375 -5.067 21.976 -9.067 c 1
 17.6006914063 30.8196357422 l 1
 29.5969539284 32.5093085937 47.9733317239 36.7344287109 59.043 39.268 c 0
 67.0645071847 41.3472939453 73.7704326172 50.5884599609 78.842 91.158 c 0
 80.8581484375 111.053748047 83.909 149.352043945 83.909 169.799 c 3
 83.909 189.799 81.8845322266 259.321993164 77.153 294.799 c 0
 75.464 306.665 64.3201923828 312.775 54.842 312.775 c 1
 52.976 312.775 48.311 311.428053711 34.1435 311.08206543 c 1
 26.11 353.555 l 1
 57.2872626953 358.01031543 117.554469726 378.983076172 192.914 425.488 c 1
 211.536 405.354 l 1
 207.860702149 397.745416993 204.277727539 371.705576172 202.671345703 362.724130859 c 0
 193.314977598 304.944130859 187.292 207.401875 187.292 189.799 c 3
EndSplineSet
Substitution2: "case-1" I
Substitution2: "pcap-1" i.pcap
Substitution2: "smcp-1" i.smcp
EndChar

StartChar: uniFB01
Encoding: 64257 64257 51
Width: 576
VWidth: 1159
Flags: HW
LayerCount: 2
Fore
SplineSet
355.914 341.22 m 0
 308.071657895 344.9798 262.713342105 345.4602 214.249 348.287 c 1
 212.56 321.372074627 212.56 297.94057324 212.56 288.177 c 1
 212.56 212.086832636 216.266518513 141.00215555 222.694 66.402 c 0
 224.363116262 47.8784041313 234.539198117 39.2686655208 253.962 37.823 c 0
 268.521062043 36.134 278.607191781 36.134 293.225 35.823 c 1
 290.914 -6.689 l 1
 247.306333334 -1.689 188.430666666 0.311 144.823 0.311 c 1
 108.973 0.311 54.003 -2.689 18.153 -6.689 c 1
 17.153 35.512 l 1
 26.8898333334 35.823 38.1462783512 37.1307646201 49.019 38.512 c 0
 87.4564573294 43.6229916666 92.0489807095 59.2605828513 97.043 93.402 c 0
 103.976335783 140.861478039 109.177 202.229027027 109.177 261.177 c 1
 109.177 279.623585334 107.488 313.999021277 107.488 348.287 c 1
 80.1602972974 346.598 53.9257027027 341.531 26.598 339.842 c 1
 26.598 401 l 1
 53.9257027027 399.311 80.1602972974 395.933 107.488 394.244 c 1
 107.488 435.76315625 107.488 483.669875 107.488 496.445 c 1
 107.488 603.034345972 150.661750693 651.609797704 237.78 704.689 c 0
 288.149562508 735.00045686 334.211748148 755.311 393.646 755.311 c 1
 419.575617767 755.311 497.231545455 737.6536 533.005 685.684 c 1
 531.316 649.727 516.536 642.263730469 448.933 594.813 c 1
 415.553665527 619.677460273 364.248611112 678.952 301.11 678.952 c 1
 181.558375431 678.952 228.961290158 588.473749819 222.694 501.445 c 0
 221.437628831 481.575771782 217.627 434.577049505 215.938 394.244 c 1
 241.32605298 395.9665 295.37294702 395.9665 320.761 397.689 c 1
 352.249262695 397.943688532 416.870469726 403.79536485 500.316 425.488 c 1
 518.938 405.354 l 1
 515.262702149 397.745416993 510.865345234 371.736221667 509.451345703 362.724130859 c 0
 500.094977598 304.944130859 494.072 207.401875 494.072 189.799 c 1
 494.072 156.097706055 500.870658473 99.3550626759 505.45 67.091 c 0
 507.622037367 50.5682141438 520.904653143 38.7879697141 529.871 36.445 c 0
 542.441774631 32.8440009766 554.909208334 32.5935576172 565.091 31.823 c 1
 560.091 -9.067 l 1
 520.231401545 -3.067 475.260721413 1.933 432.335 1.933 c 1
 399.9665625 1.933 361.4354375 -5.067 329.067 -9.067 c 1
 325.002691406 30.8196357422 l 1
 336.998953929 32.5093085937 355.056587674 36.7656858003 366.134 39.268 c 0
 374.359861816 41.3472939453 386.322717028 50.4122919952 390.555 91.158 c 0
 392.571148437 114.21568232 395.311 161.639446713 395.311 185.311 c 1
 395.311 206.63388 391.178649567 283.046476777 385.488 320.134 c 0
 383.986909091 332 369.491576231 339.77092708 355.914 341.22 c 0
EndSplineSet
LCarets2: 1 298
Ligature2: "liga-1" f i
EndChar

StartChar: uni0237
Encoding: 567 567 52
Width: 265
VWidth: 1159
Flags: HMW
AnchorPoint: "Top" 120 465 basechar 0
LayerCount: 2
Fore
SplineSet
-27 -328.622 m 1
 -21.5570714285 -273.607290909 -18.9866730903 -256.556144525 12.933 -216.555 c 0
 29.6518312411 -195.747286727 46.1800356258 -164.27780381 54.976 -140 c 0
 64.665 -113.622 74.421 -28.818 74.421 96 c 3
 74.421 227.840406279 68.695022393 253.156426561 61.531 301 c 0
 59.7509518962 313.367378054 49.9359779411 323.11 31.33 323.11 c 3
 20.7629142857 323.11 10.1639017857 321.866 4.086 321.555 c 1
 -2.225 360.445 l 1
 64.9135915493 371.886351351 112.68528169 385.234594594 181.115 431 c 1
 201.115 410.177 l 1
 195.804 397.4755 190.415727832 372.884102154 188.115 363 c 0
 177.130714285 319 172.737 217 172.737 196 c 3
 172.737 123.139 172.426 -21.665 172.426 -84 c 3
 172.426 -127.096490196 161.468492991 -166.364010904 147.804 -187.378 c 0
 122.359 -226.89 83.4891629458 -253.125696493 42.268 -273.201 c 0
 24.8685315062 -281.831923098 2.58064705882 -317.352161765 1.378 -335 c 1
 -27 -328.622 l 1
EndSplineSet
EndChar

StartChar: U
Encoding: 85 85 53
Width: 815
VWidth: 1159
Flags: HW
LayerCount: 2
Fore
SplineSet
11.555 689.311 m 1
 46.1972458858 685.811 101.913524685 684.061 160.661 684.061 c 3
 221.939959448 684.061 286.380732528 685.811 335.163 689.311 c 1
 339.163 645.043 l 1
 280.744122082 640.391439046 238.146294546 635.855919604 238.785 561.373 c 0
 238.894133084 554.092927734 228.718 282.202740688 228.718 252.622 c 0
 228.718 203.088671233 245.435 159.158 272.718 130.048 c 0
 311.162009275 88.6604991875 359.932975349 63.115 471.938 63.115 c 3
 499.320718957 63.115 560.957 74.4722142857 595.909 112.091 c 0
 634.703255804 153.848726501 639.713125148 189.627281285 642.641 256.689 c 0
 646.408010103 346.790889461 644.893103432 495.178140535 639.507 584.574 c 0
 636.296915234 644.207425143 593.758428572 648.736142857 533.172 641.665 c 1
 533.794 692 l 1
 572.120479795 687.878263908 651.675820387 684.796652821 718.796500645 684.796652821 c 3
 758.101925385 684.796652821 792.322472544 686.299374976 806.134 690 c 1
 808.445 641.354 l 1
 767.783831775 648.454969697 731.831315121 648.057498712 726 601.464 c 0
 724.311 590.838119614 721.325918089 476.868721791 719 254.689 c 0
 718.401469465 174.925484445 691.627375066 118.1888135 649.933 73.689 c 0
 596.379472 15.1558571429 515.527252 -11.555 402 -11.555 c 3
 289.645061653 -11.555 228.007591638 13.766989065 183.359 49.287 c 0
 129.560883117 89.909 98.311 155.897838967 98.311 219.842 c 0
 98.311 248.875901948 103.242421948 549.749699674 103.311 564.373 c 0
 103.546144763 621.785635012 86.7101798771 628.243741341 6.555 638.287 c 1
 11.555 689.311 l 1
EndSplineSet
Position2: "cpsp-1" dx=0 dy=0 dh=50 dv=100
Substitution2: "c2pc-1" u.pcap
Substitution2: "c2sc-1" u.smcp
EndChar

StartChar: V
Encoding: 86 86 54
Width: 841
VWidth: 1159
Flags: HW
AnchorPoint: "Bottom" 417 -15 basechar 0
AnchorPoint: "Top" 431 704 basechar 0
LayerCount: 2
Fore
SplineSet
322.053 694 m 1
 322.053 691.977408203 322.053 663.705108399 322.053 649.732 c 1
 305.077 650.043 288.095643927 648.894101689 270.321 647.732 c 0
 224.852 644.488 238.598335417 614.522827689 246.431 598.641 c 2
 467.981 163.321 l 1
 633.928 582.684 l 2
 644.464860815 610.287778259 643.444995118 647.799 602.904 648.421 c 0
 591.392 648.421 548.014 649.043 545.081 646.976 c 1
 546.081 698 l 1
 581.989165578 690.913021417 674.852531431 687.843940271 716.180707465 687.843940271 c 3
 762.324241673 687.843940271 805.206314112 691.66969722 830 698 c 1
 835 642.22 l 1
 817.359 655 767.579 640.598 717.354 561.105 c 0
 692.606977691 526.448357869 538.088043945 220.938571377 469.689 60 c 0
 459.238607145 33.7574001394 455.268 5.512 451.268 -27 c 1
 390.11 -27 l 1
 390.488 4.134 380.284466373 21.5594342752 366.933 57.689 c 0
 324.194532217 172.777185453 222.471782715 379.869075378 101.201 585.818 c 0
 69.0723237046 644.488707507 39.909 647.555 6 647.665 c 1
 11 696 l 1
 69.8566726843 688.556145795 88.8397974971 686.071915039 119.686023744 686.071915039 c 3
 180.654124097 686.071915039 256.370361739 692.445493051 322.053 694 c 1
EndSplineSet
Position2: "cpsp-1" dx=0 dy=0 dh=50 dv=100
Substitution2: "c2pc-1" v.pcap
Substitution2: "c2sc-1" v.smcp
EndChar

StartChar: W
Encoding: 87 87 55
Width: 1130
VWidth: 1159
Flags: HW
AnchorPoint: "Bottom" 578 -15 basechar 0
AnchorPoint: "Top" 579 699 basechar 0
LayerCount: 2
Fore
SplineSet
1121 693 m 1
 1129.067 648.043 l 1
 1044.11 606.497956056 1035.62158539 557.053564847 964.861 380.583 c 0
 862.043 143.617 821.595411132 72.0396357422 808.488 42 c 0
 797.80774707 19.1412988281 791.620939453 7.689 788.866 -15 c 1
 745.976 -16.689 l 1
 744.42493457 8.53608007812 743.140033203 19.9419921875 726.665 58.689 c 0
 679.346082031 168.043 637.865532226 277.397 588.445 386.751 c 1
 494.32552832 192.34 436.207871496 57.5198833733 424.622 22.311 c 0
 419.106 2.62418181818 415.166 -3.69593181818 414.378 -21 c 1
 370.488 -21 l 1
 363.885111111 5.76472727273 359.183552696 40.4705971184 323.464 126.206 c 0
 239.362285715 340.039345407 137.876070124 509.876434046 131.268 520.837 c 0
 120.344745118 538.803407227 114.041344413 551.561904631 81.421 598.885 c 0
 55.7533093607 633.877523805 29.555 638.827941176 5 641.598 c 1
 11 695 l 1
 42 686 93.25 682 145.375 682 c 3
 197.5 682 275.304 686 309.804 693 c 1
 319.871 651.421 l 1
 283.23 650.732 256.096 636.14128125 256.096 586.909 c 0
 256.096 570.420407226 265.251077396 530.870478055 272.364 516.081 c 2
 440.981 156.608 l 1
 560.244 441.708 l 1
 499.700092774 576.987375 457.921337891 611.547085938 451.708 618.598 c 1
 435.086 634.641 412.287 644.287 392.11 653.421 c 1
 400.177 690 l 1
 437.992392903 684.958109049 493.210262045 682.4375 542.102043113 682.4375 c 3
 589.231754014 682.4375 667.512115885 685.958109049 709.383 693 c 1
 713.383 650.421 l 1
 708.072 650.421 683.780209961 650.556773438 677.565 649.799 c 0
 619.656137695 641.572003906 624.158330078 608.059228516 632.029 588.33 c 2
 807.579 162.809 l 1
 839.019 236.909 868.587165775 304.475489857 909.526 434.387 c 0
 949.172 563.278022462 953.019 657.629529297 838.818 652.866 c 1
 838.818 688 l 1
 865.242774434 684.754875871 927.735594389 682.584305724 968.652078053 682.584305724 c 3
 1015.99540112 682.584305724 1069.50477037 685.490279012 1121 693 c 1
EndSplineSet
Position2: "cpsp-1" dx=0 dy=0 dh=50 dv=100
Substitution2: "c2pc-1" w.pcap
Substitution2: "c2sc-1" w.smcp
EndChar

StartChar: X
Encoding: 88 88 56
Width: 761
VWidth: 1159
Flags: HW
AnchorPoint: "Bottom" 371 -15 basechar 0
AnchorPoint: "Top" 364 699 basechar 0
LayerCount: 2
Fore
SplineSet
13 685 m 1
 57.995726729 682.979465194 91.5563485075 681.795874747 121.969454011 681.795874747 c 3
 186.384120753 681.795874747 240.279042886 684.743198768 327.364 692 c 1
 328.364 651.799 l 1
 325.12 651.177 315.374423418 650.918195518 307.967 649.555 c 0
 274.699 641.11 277.843215778 615.107202828 286.455 592.952 c 1
 298.857 552.301 368.0904049 446.115447963 387.646 411.914 c 1
 416.835742187 452.564041016 445.998118809 511.656509913 460.526 539.971 c 0
 485.55 597.866 493.368692531 633.064505237 447.703 640.933 c 0
 436.940520964 642.594475709 417.6151 646.785764706 407.55 647.732 c 1
 415.995 689.445 l 1
 466.796216182 685.014684103 518.474049527 681.868707696 570.181401645 681.868707696 c 3
 614.37006491 681.868707696 658.585712798 683.831632476 702 689 c 1
 704 646.421 l 1
 684.647054545 643.502333334 657.351646241 629.150141623 585.732 571.995 c 0
 569.934117119 558.692659079 481.07065332 467.188239258 410.268 380.268 c 1
 459.450095436 322.451748054 609.689901725 145.852085922 625.775 127.895 c 0
 683.339128966 64.0635366475 692.331 60.0607037037 751.756 46.335 c 1
 742 -2 l 1
 713.157233926 3.8521554354 672.607337968 6.55911179773 629.84557086 6.55911179773 c 3
 549.53244873 6.55911179773 463.435469262 1.31182235955 406.124 -8 c 1
 403.124 31.201 l 1
 413.435 33.067 427.751236912 34.2177139079 440.411 38.311 c 0
 483.99 52.378 463.54821267 102.840377623 450.856 129.249 c 0
 431.728142756 166.77021398 403.881880597 224.104671431 353.043 290.33 c 1
 302.424535715 225.439979653 269.419295046 159.521753261 248.541 116.139 c 0
 228.584 66.756 229.293709069 40.8788290931 268.053 35.823 c 0
 293.028377395 32.6949706029 300.541 30.134 303.651 29.823 c 1
 304.34 -6 l 1
 241.758670001 -2.91258870663 187.577961958 -0.619519787796 134.593382787 -0.619519787796 c 3
 96.7821846861 -0.619519787796 59.7762418928 -2.66025403784 19 -8 c 1
 17 31.89 l 1
 31.823 49.737 67.6666375825 53.9858874071 132.713 108.627 c 0
 147.15057766 121.027500122 211.388 190.894723633 325.354 329.421 c 1
 159.383 535.738046875 117.066812641 585.846196305 106.134 595.708 c 0
 56.7024739371 634.591639807 33 644.665 12 650.732 c 1
 13 685 l 1
EndSplineSet
Position2: "cpsp-1" dx=0 dy=0 dh=50 dv=100
Substitution2: "c2pc-1" x.pcap
Substitution2: "c2sc-1" x.smcp
EndChar

StartChar: Y
Encoding: 89 89 57
Width: 735
VWidth: 1159
Flags: HW
AnchorPoint: "Bottom" 393 -15 basechar 0
AnchorPoint: "Top" 387 699 basechar 0
LayerCount: 2
Fore
SplineSet
328.431 640.665 m 1
 328.431 640.665 309.831595229 640.006959903 300.388 639.354 c 0
 284.705300781 637.976 263.063261531 625.747666551 269.431 611.665 c 0
 332.775545642 480.061202619 404.838462365 397.982329109 408.579 393.493 c 1
 447.426644445 471.61 484.961127119 546.375981453 485.703 549.727 c 0
 502.8705 579.066777778 509.999321035 615.973552162 477.014 632.665 c 0
 465.703 638.354 452.083121094 640.354 444.483 641.665 c 1
 446.483 691 l 1
 469.641269592 687.343643596 568.314609615 682.572593564 628.046975448 682.572593564 c 3
 666.327781965 682.572593564 703.613081447 684.532048312 729 690 c 1
 728.311 633.909 l 1
 668.134 640.373857143 630.946073302 601.291971688 591.708 568.306 c 0
 533.819111455 517.271339389 483.924355556 429.173565523 450.292 353.603 c 1
 448.921 305.899666666 442.937537109 258.014605023 468.115 110.316 c 0
 478.146337326 58.3591899729 505.312320856 46.3924166666 552.067 45.091 c 1
 545.689 -11 l 1
 491.048766253 -3.57281355981 440.985948075 0.771260726902 390.788644074 0.771260726902 c 3
 343.714940198 0.771260726902 296.52633326 -2.83462095222 245.555 -11 c 1
 228.043 44.091 l 1
 294.682577586 53.4155936651 330.952 82.7894868433 330.952 142.029 c 2
 328.33 291.11 l 1
 322.708 316.704736328 257.74334713 449.01365265 125.713 580.44 c 0
 91.7874143295 615.587489098 59.9561666667 617.334363636 5.311 641.665 c 1
 10 692 l 1
 45.1714158843 688.297745696 113.467325179 684.214750089 174.244228645 684.214750089 c 3
 211.964454466 684.214750089 299.152201733 685.787220355 321.364 690 c 1
 328.431 640.665 l 1
EndSplineSet
Position2: "cpsp-1" dx=0 dy=0 dh=50 dv=100
Substitution2: "c2pc-1" y.pcap
Substitution2: "c2sc-1" y.smcp
EndChar

StartChar: Z
Encoding: 90 90 58
Width: 710
VWidth: 1159
Flags: HW
AnchorPoint: "Bottom" 357 -15 basechar 0
AnchorPoint: "Top" 366 699 basechar 0
LayerCount: 2
Fore
SplineSet
8.555 540.952 m 1
 72.13075 667.283 35.6137142857 712.445 83.579 721.756 c 1
 97.9653080214 700.390453125 118.905743295 690.201104519 131.598 687.756 c 0
 164.464202313 681.79809899 528.084483826 679.43242319 636.555 684.911203125 c 0
 647.654999804 685.536503258 655.986706328 686.632854497 660.866 687.756 c 1
 672.866 663.689 l 1
 654.128242188 640.099609375 l 0
 225.187 52.713 l 1
 256.826231441 50.646 288.881768559 49.335 320.521 49.335 c 0
 491.57456166 49.335 646.689 116.517 669.622 180.493 c 1
 699.378 162.359 l 1
 661 57.9235 648.553081081 16.6083571428 622.622 -30.445 c 1
 591.137217392 -19.5215555555 586.026662045 -5.19635528595 503 -3.378 c 0
 352 4.41037831256e-016 108 13.512 29 1.689 c 1
 15.555 36.957 l 1
 52.6591801242 52.1653069307 79.8868472476 88.1468784205 101.531 117.378 c 0
 224.472740625 283.919520507 349.7986875 455.833808594 464.344 628.354 c 0
 466.966 632.354 l 1
 182.89 631.665 l 2
 130.598525846 631.52562712 61.663710145 546.13237509 42.067 518.818 c 1
 8.555 540.952 l 1
EndSplineSet
Position2: "cpsp-1" dx=0 dy=0 dh=50 dv=100
Substitution2: "c2pc-1" z.pcap
Substitution2: "c2sc-1" z.smcp
EndChar

StartChar: parenleft
Encoding: 40 40 59
Width: 383
VWidth: 1515
Flags: HW
LayerCount: 2
Fore
SplineSet
340.445 720.555 m 1
 368.335 676.598 l 1
 186.847798278 587.046265075 101.536 431.411217472 101.536 213.067 c 3
 101.536 -7.58297838468 177.656752896 -149.094056971 366.335 -248.775 c 1
 341.89 -298.244 l 1
 148.478109324 -194.119024214 37 -17.6621826807 37 213.067 c 3
 37 442.537664189 147.931578516 619.953126431 340.445 720.555 c 1
EndSplineSet
Position2: "cpsp-1" dx=0 dy=0 dh=50 dv=100
Position2: "'case' vertical ajustments for all-caps-1" dx=0 dy=125 dh=0 dv=0
EndChar

StartChar: zero
Encoding: 48 48 63
Width: 502
VWidth: 1159
Flags: HW
LayerCount: 2
Fore
SplineSet
230.555 345.598 m 3
 183.82899428 345.598 165.895 288.519224481 165.895 245.316 c 3
 165.895 139.729199604 190.108773623 45.024 275.89 45.024 c 3
 322.222995363 45.024 336.306 99.3221714654 336.306 149.239 c 3
 336.306 258.942553799 317.900366666 345.598 230.555 345.598 c 3
258.134 389.866 m 3
 364.60718 389.866 451.134 301.206297678 451.134 194 c 3
 451.134 89.8305179672 370.022381188 5.134 259.134 5.134 c 3
 148.099056248 5.134 59.134 90.307950639 59.134 194 c 3
 59.134 298.863869555 150.585786254 389.866 258.134 389.866 c 3
EndSplineSet
Substitution2: "'zero' Slashed Zero lookup 22-1" zero.alt
Substitution2: "dnom-1" zero.denom
Substitution2: "numr-1" zero.numerator
Substitution2: "lnum-1" zero.proportionallining
Substitution2: "tnum-1" zero.tabulartext
EndChar

StartChar: one
Encoding: 49 49 64
Width: 371
VWidth: 1159
Flags: HW
LayerCount: 2
Fore
SplineSet
79.421 387.866 m 1
 139.652994673 383.751564556 242.680512359 384.703815266 306.914 397.866 c 1
 307.536 375.555 l 1
 253.259763735 363.237170967 254.306192908 348.34683616 248.737 322.177 c 0
 247.113266601 313.518744 236.914 247.139011 236.914 200 c 3
 236.914 147.935829 246.682638074 72.1587282142 248.737 65.579 c 0
 259.172921348 35.811796748 305.861078652 30.5022542498 313.225 31.823 c 1
 312.914 4.134 l 1
 229.712785355 10.6115390625 152.884736221 11.4240390625 69.421 4.134 c 1
 66.732 30.134 l 1
 66.8822580645 32.3920666667 112.713183997 37.0482830741 133.531 69.579 c 0
 139.481883801 78.7694464874 150.421 99.8214988 150.421 200 c 3
 150.421 294.21543919 143.416107272 314.609942124 141.287 320.177 c 0
 131.448285715 346.358777778 138.011562572 361.429678555 77.732 365.555 c 1
 79.421 387.866 l 1
EndSplineSet
Substitution2: "dnom-1" one.denom
Substitution2: "numr-1" one.numerator
Substitution2: "tnum-1" one.tabulartext
Substitution2: "lnum-1" one.proportionallining
EndChar

StartChar: two
Encoding: 50 50 65
Width: 445
VWidth: 1159
Flags: HW
LayerCount: 2
Fore
SplineSet
57.378 367 m 1
 83.7185679076 414.314453125 122.678020143 458 190 458 c 1
 265.620550724 458 327.311 405 327.311 335 c 3
 327.311 239.957542751 167.666942029 116.093836431 153.383 95.627 c 1
 338.689 100.005 l 2
 384.12211083 99.9722437673 407.260785714 124.985347826 417.067 144.201 c 1
 437.756 126.512 l 1
 437.756 126.512 373.955639344 33.8059269973 367.244 -18.579 c 1
 333.756043716 8.445 259.888767692 2.79914186324 187 3.378 c 0
 97 4.067 38 0.689 33 0.689 c 1
 27 18 l 1
 48.6138798283 73.1664071661 228.995 166.378336005 228.995 318.11 c 3
 228.995 363.0266625 190.535571429 385.019 154.531 385.019 c 1
 116.369301075 385.019 93.9700430108 370.241 77.378 353 c 1
 57.378 367 l 1
EndSplineSet
Substitution2: "dnom-1" two.denom
Substitution2: "numr-1" two.numerator
Substitution2: "tnum-1" two.tabulartext
Substitution2: "lnum-1" two.proportionallining
EndChar

StartChar: three
Encoding: 51 51 66
Width: 388
VWidth: 1159
Flags: HW
LayerCount: 2
Fore
SplineSet
84.11 -201.799 m 1
 193.011795058 -146.776562189 226.885 -109.877850746 226.885 -16.646 c 3
 226.885 61.2248333333 179.70325 112.47740991 140.799 132.866 c 1
 137.105222223 132.866 110.325333333 120.0708 90.933 120.622 c 1
 79.866 150.067 l 1
 132.522710526 166.914901639 213.263 220.266590164 213.263 321.354 c 3
 213.263 371.542098592 177.764532258 378.574 164.354 378.574 c 3
 125.340191358 378.574 114.533569023 363.652525 88.866 351.665 c 1
 77.622 372.421 l 1
 88.8965249546 410.986358386 163.808720508 449.866 197.823 449.866 c 3
 257.931663636 449.866 309.89 405.993454545 309.89 342.622 c 3
 309.89 263.523330233 217.521990099 185.389627907 213.713 181.646 c 1
 262.574157025 166.123343648 331.957 100.171650602 331.957 6 c 3
 331.957 -139.4507 142.35572973 -222.986575 95.488 -229.866 c 1
 84.11 -201.799 l 1
EndSplineSet
Substitution2: "dnom-1" three.denom
Substitution2: "numr-1" three.numerator
Substitution2: "tnum-1" three.tabulartext
Substitution2: "lnum-1" three.proportionallining
EndChar

StartChar: four
Encoding: 52 52 67
Width: 463
VWidth: 1159
Flags: HW
LayerCount: 2
Fore
SplineSet
242.531 61.347 m 1
 242.531 130.340134698 254.043910156 206.4025159 239.153 253.0405 c 1
 239.153 253.0405 137.530577891 126.566104046 65.335 61.347 c 1
 242.531 61.347 l 1
346.067 412.256 m 1
 344.031157073 388.193117188 342.325717491 367.760699838 340.847 345.256 c 0
 334.091 236.627137205 333.262994141 184.179203596 327.335 61.0025 c 1
 368.930490656 57.8688564261 403.38839709 66.0119681034 437.378 107.945 c 1
 437.378 107.945 453.6983125 101.28484375 458.378 98.945 c 1
 458.378 98.945 435.131103586 34.3181462462 418.445 -7 c 1
 390.896449079 3.41789038086 353.154886898 1.75476147461 327.335 1.689 c 1
 325.892916992 -42.8874863281 328.133152344 -146.567692383 351.56 -172.2655 c 1
 293.92944 -198.094414383 261.419893334 -224.472880137 240.732 -252.5 c 1
 240.732 -252.5 214.844021702 -234.580862459 210.976 -226.61 c 1
 247.76632353 -190.254158458 239.509602539 -76.1336689455 240.842 0 c 1
 83.4743039272 0 41.8746494024 1.12158823529 2.933 -19.067 c 1
 2.933 -19.067 -14.564623884 -0.650998291019 -20.134 4.378 c 1
 -4.88829420505 20.5094572518 300.399023867 372.175028424 321.878 427.122804688 c 1
 346.067 412.256 l 1
EndSplineSet
Substitution2: "dnom-1" four.denom
Substitution2: "numr-1" four.numerator
Substitution2: "tnum-1" four.tabulartext
Substitution2: "lnum-1" four.proportionallining
EndChar

StartChar: five
Encoding: 53 53 68
Width: 362
VWidth: 1159
Flags: HW
LayerCount: 2
Fore
SplineSet
95.311 393.5 m 1
 162.885109801 395.450195312 252.362878009 395.603831302 268.579 398.5 c 0
 291.141544434 402.759765625 302.843267822 428.610351562 313 448.5 c 1
 313 448.5 334.538928385 437.413690011 339.756 435.189 c 1
 309.029300003 388.574122835 290.882190569 293.431525467 274.579 294.806 c 0
 242.459106392 297.056070312 187.250951926 291.806 122 291.806 c 1
 122 291.806 119.830094238 249.921861817 118.134 216.811 c 1
 202.3035 224.6625 313.823 179.0905311 313.823 48.5 c 3
 313.823 -96.3492662328 152.937363636 -207.330933587 41.555 -216.378 c 1
 41.555 -216.378 42.0119199219 -186.286255188 38.866 -179.555 c 1
 115.453310345 -180.933905213 223.952 -100.899166067 223.952 14.22 c 3
 223.952 66.3933514444 185.940377143 135.039774193 65.488 123.751 c 1
 76.82074 186.301492754 90.968025625 294.827863002 95.311 393.5 c 1
EndSplineSet
Substitution2: "dnom-1" five.denom
Substitution2: "numr-1" five.numerator
Substitution2: "tnum-1" five.tabulartext
Substitution2: "lnum-1" five.proportionallining
EndChar

StartChar: six
Encoding: 54 54 69
Width: 487
VWidth: 1159
Flags: HW
LayerCount: 2
Fore
SplineSet
373.823 626.555 m 1
 373.823 626.555 381.991240234 612.087874024 388.579 602.866 c 1
 250.043181818 529.237936585 178.139 425.832548799 178.139 264.67 c 3
 178.139 154.365409417 224.136442432 42.402 300.646 42.402 c 3
 333.766042419 42.402 350.885 72.2705590483 350.885 117.196 c 3
 350.885 228.616299462 312.144398626 308.287 255.244 308.287 c 3
 244.665189074 308.287 238.115 303.311 230.517 296.469 c 1
 219.163 326.316 l 1
 233.168871752 346.051207164 268.064155447 359.866 310.981 359.866 c 3
 376.903399482 359.866 441.067 273.130566578 441.067 178 c 3
 441.067 73.3721232826 341.57894969 -5.866 259.067 -5.866 c 3
 129.788696684 -5.866 73.067 131.880364534 73.067 214 c 3
 73.067 408.474430089 198.213587545 569.035693454 373.823 626.555 c 1
EndSplineSet
Substitution2: "dnom-1" six.denom
Substitution2: "numr-1" six.numerator
Substitution2: "tnum-1" six.tabulartext
Substitution2: "lnum-1" six.proportionallining
EndChar

StartChar: seven
Encoding: 55 55 70
Width: 420
VWidth: 1159
Flags: HW
LayerCount: 2
Fore
SplineSet
92.823 426.823 m 1
 96.1837333334 407.696282163 116.012176581 401.108336519 125.823 400.488 c 0
 246.381795181 392.165056641 421.138363636 397.11 435.201 403.866 c 1
 435.201 403.866 440.620122069 388.764759766 445.89 382.177 c 1
 398.177 353.555 172.493 -92.038 176.493 -167.244 c 1
 176.493 -167.244 111.882492188 -170.816118163 71.043 -172.134 c 1
 167.520182297 -19.4084907217 232.260082212 84.5073987621 324.373 268.77 c 0
 329.768724278 279.585150776 320.992627304 294.949430873 308.172 297.105 c 0
 247.134885336 306.065527344 224.667234418 310.531506298 146.823 303.861 c 0
 81.3890273817 296.721131109 63.3728182778 285.543266531 43.933 243.727 c 1
 43.933 243.727 24.0277558594 252.470885743 13.488 255.105 c 1
 17.9814782608 264.372535211 61.503811606 388.744834866 68.823 428.378 c 1
 92.823 426.823 l 1
EndSplineSet
Substitution2: "dnom-1" seven.denom
Substitution2: "numr-1" seven.numerator
Substitution2: "tnum-1" seven.tabulartext
Substitution2: "lnum-1" seven.proportionallining
EndChar

StartChar: eight
Encoding: 56 56 71
Width: 468
VWidth: 1159
UnlinkRmOvrlpSave: 1
Flags: HW
LayerCount: 2
Fore
SplineSet
220.311 592.732 m 3
 198.069512617 592.732 165.493 571.570203098 165.493 524.445 c 3
 165.493 377.837161133 421.89 330.782286209 421.89 155 c 3
 421.89 61.4849813578 341.645935434 -2.866 231.89 -2.866 c 3
 155.8646547 -2.866 71.89 47.7271906032 71.89 141.957 c 3
 71.89 317.59365721 307.842 327.607227815 307.842 474.622 c 3
 307.842 510.507495607 282.263005634 592.732 220.311 592.732 c 3
243.957 626.866 m 3
 310.07371296 626.866 386.89 596.966510406 386.89 497 c 3
 386.89 351.797261571 166.139 341.840687559 166.139 186.091 c 3
 166.139 115.859460312 224.537263394 37.335 275.048 37.335 c 3
 314.800006197 37.335 331.086 72.2102345906 331.086 115.775 c 3
 331.086 181.197311856 298.921340466 239.406801363 251.077407226 278.63706543 c 0
 178.068760541 339.741583388 102.89 398.758175966 102.89 484 c 3
 102.89 579.370075051 195.804887163 626.866 243.957 626.866 c 3
EndSplineSet
Substitution2: "dnom-1" eight.denom
Substitution2: "numr-1" eight.numerator
Substitution2: "lnum-1" eight.proportionallining
Substitution2: "tnum-1" eight.tabulartext
EndChar

StartChar: uniFB00
Encoding: 64256 64256 73
Width: 642
VWidth: 1159
Flags: HW
LayerCount: 2
Fore
SplineSet
391.421 394.933 m 1
 391.421 432.813375 390.799 476.5215 390.799 488.177 c 1
 390.799 533.790946954 398.971356365 569.52097159 414.297132813 599.433944336 c 1
 384.66657791 617.545877571 338.916521063 648.33 301.421 648.33 c 1
 173.472375431 648.33 225.596707564 557.161733593 222.072 478.598 c 1
 221.126628831 463.364181552 217.627 427.229990099 215.938 394.933 c 1
 246.913753798 397.468853009 281.576875129 398.332011634 313.580288086 399.631134766 c 1
 345.903094209 400.694241151 369.760467306 396.463732035 391.421 394.933 c 1
497.469 688.445 m 1
 504.845796875 694.053400391 512.587201765 699.553760569 521.091 704.689 c 0
 571.460562508 735.00045686 604.460748148 755.311 669.182 755.311 c 1
 690.576551402 755.311 744.292 747.756 770.67 724.378 c 1
 768.981 688.421 754.823 680.957730469 687.22 633.507 c 1
 660.924110351 648.160236328 621.226407408 678.952 584.732 678.952 c 1
 456.783375431 678.952 509.08579625 574.965082393 506.005 493.177 c 1
 505.059628831 475.251653298 500.938 431.896089109 499.249 394.933 c 1
 545.31721192 398.311 587.57778808 398.311 633.646 401.689 c 1
 633.646 340.531 l 1
 587.303052632 343.909 543.902947368 345.598 497.56 348.976 c 1
 495.871 318.050477613 495.871 291.048195207 495.871 279.909 c 1
 495.871 206.655552302 499.577518513 138.214109444 506.005 66.402 c 0
 507.674116262 47.8784041313 517.850198117 39.2686655208 537.273 37.823 c 0
 562.592988043 36.134 586.179082192 36.134 611.651 35.823 c 1
 609.34 -6.689 l 1
 556.48825 -1.689 480.98575 0.311 428.134 0.311 c 3
 395.389586314 0.311 361.271240366 -1.3534757771 325.89 -6 c 1
 325.89 -6 323.641846293 30.9376033886 322.195759766 37.8858203125 c 1
 330.269231681 38.1212926149 339.737040339 37.3223083634 348.177 38.512 c 0
 368.678407823 42.2449916666 375.414111879 59.5754809633 380.354 93.402 c 0
 387.287335783 140.861478039 393.11 202.229027027 393.11 261.177 c 1
 393.11 279.769139922 391.421 314.416819149 391.421 348.976 c 1
 368.751298767 347.374156866 346.542679533 341.996286847 312.969338868 343.399936524 c 1
 281.461816341 340.833254642 245.191805792 346.463429794 214.249 348.976 c 1
 212.56 318.050477613 212.56 291.048195207 212.56 279.909 c 1
 212.56 206.655552302 216.266518513 134.962287015 222.694 66.402 c 0
 224.464580457 47.8750052705 236.074950104 38.5752670141 256.029 37.823 c 0
 267.985220141 37.3782589351 274.914739759 37.7092095167 286.78 37.4533193359 c 1
 283.335 30.5456860156 282.713 -7 282.713 -7 c 1
 243.802978653 -1.30512530633 190.10394862 0.311 144.823 0.311 c 3
 108.973639444 0.311 54.003 -2.689 18.153 -6.689 c 1
 17.153 35.512 l 1
 26.8898333334 35.823 38.1462783512 37.1307646201 49.019 38.512 c 0
 87.4564573294 43.6229916666 92.0489807095 59.2605828513 97.043 93.402 c 0
 103.976335783 140.861478039 109.177 202.229027027 109.177 261.177 c 1
 109.177 279.769139922 107.488 314.416819149 107.488 348.976 c 1
 80.1602972974 347.287 53.9257027027 342.22 26.598 340.531 c 1
 26.598 401.689 l 1
 53.9257027027 400 80.1602972974 396.622 107.488 394.933 c 1
 107.488 407.062 107.488 469.866 107.488 473.598 c 1
 107.488 580.187345972 156.570750693 625.030797704 237.78 674.067 c 0
 288.149562508 704.37845686 322.393748148 724.689 387.115 724.689 c 1
 409.007620693 724.689 468.140138578 714.333385491 497.469 688.445 c 1
EndSplineSet
Substitution2: "salt-1" uniFB00.alt
LCarets2: 1 311
Ligature2: "liga-1" f f
EndChar

StartChar: question
Encoding: 63 63 74
Width: 378
VWidth: 1159
Flags: HW
LayerCount: 2
Fore
SplineSet
38 512.428265429 m 1
 41.3116153281 536.189615418 42.6472592651 556.622976478 42.6472592651 574.202282904 c 1
 42.6472592651 655.338035412 25.8638845344 676.061051945 25.8638845344 690.790349379 c 1
 25.8638845344 700.433702138 32.9858601135 697.424371189 53.378 699.9732 c 1
 81.2931634782 639.379106383 87.8621398771 640.1502 118.268 640.1502 c 3
 206.104871106 640.1502 301 562.434857042 301 444.800134571 c 3
 301 285.910358729 211.120447463 269.706223941 199.56 264.556134571 c 0
 154.288709545 242.28813457 131.043037409 229.202183454 126.622 189.134 c 1
 126.622 189.134 113.413732 187.93386543 108.622 187.93386543 c 1
 103.177720312 222.728402763 98.256377547 253.071366653 98.256377547 281.240957001 c 3
 98.256377547 328.12126129 105.725855292 379.67230915 148.536 383.207134571 c 1
 170.540158865 387.595033571 271.933 337.909363367 271.933 429.599134571 c 3
 271.933 483.568036673 208.474316269 511.575077293 78.6646765734 511.575077293 c 3
 66.3600833927 511.575077293 52.8684252492 511.839028023 38 512.428265429 c 1
EndSplineSet
Refer: 48 46 S 1 0 0 1 18 0 2
Position2: "cpsp-1" dx=0 dy=0 dh=50 dv=100
Substitution2: "smcp-1" question.smcp
Substitution2: "pcap-1" question.pcap
EndChar

StartChar: exclam
Encoding: 33 33 75
Width: 266
VWidth: 1159
Flags: HW
LayerCount: 2
Fore
SplineSet
100.732 209.689 m 1
 100.732 339.412549383 97.354 437.204148148 85.531 533 c 0
 78.775 580.535353 38.239 604.808886 41.617 655.378 c 1
 178.426 672.268 234.517 719.56 242.962 667.201 c 1
 215.938 629.457316169 219.316 585.509079851 209.182 533 c 0
 190.603 408 160.201 342 160.201 208 c 1
 100.732 209.689 l 1
EndSplineSet
Refer: 48 46 N 1 0 0 1 23 0 2
Substitution2: "pcap-1" exclam.pcap
Substitution2: "smcp-1" exclam.smcp
Position2: "cpsp-1" dx=0 dy=0 dh=50 dv=100
EndChar

StartChar: paragraph
Encoding: 182 182 76
Width: 591
VWidth: 1159
UnlinkRmOvrlpSave: 1
Flags: HW
LayerCount: 2
Fore
SplineSet
354.005 667.488 m 1
 405.029 681 l 1
 393.651 44.311 l 1
 346.005 64.579 l 1
 354.005 667.488 l 1
556.378 738.244 m 1
 558.378 661.885 l 1
 522.098302326 660.521375 386.647982507 666.886023966 335.517 640.067 c 0
 289.187631538 614.116421551 279.919 596.17666106 279.919 231.124 c 3
 279.919 133.5664 311.169867331 107.658298061 315.938 91.756 c 0
 324.534233781 78.758686849 447.838642523 61.9711053602 475.201 69.426 c 1
 461.067 -5.244 l 1
 264.289099022 38.4902265087 226.272630238 72.9289912964 172.445 135.134 c 0
 117.54884466 200.276 92.055248526 281.696024025 74.957 344.378 c 0
 71.8094879291 355.891302496 68.7686015625 365.329768509 68.7686015625 374.686451172 c 3
 68.7686015625 380.954083414 70.8657641126 389.365204919 73.957 397.622 c 0
 103.162 475.413697674 152.207666863 586.018719497 251.134 654.933 c 0
 352.221298701 725.350630953 556.378 738.244 556.378 738.244 c 1
EndSplineSet
Position2: "cpsp-1" dx=0 dy=0 dh=50 dv=100
EndChar

StartChar: ampersand
Encoding: 38 38 78
Width: 676
VWidth: 1159
Flags: HW
LayerCount: 2
Fore
SplineSet
191.3205 339.605869141 m 1
 147.810410789 318.792696455 122.072 276.586545869 122.072 246.316 c 3
 122.072 132.98725122 173.397292235 72.871 271.627 72.871 c 3
 317.344283052 72.871 344.122001846 110.468719142 365.6745 131.117869141 c 1
 294.641 300.933 227.3281395 324.707072149 191.3205 339.605869141 c 1
171.8515 571.538869141 m 1
 140.510058069 571.538869141 128.646 549.397 128.646 538.091 c 3
 128.646 471.158875266 190.357883574 444.72298979 230.8565 414.586869141 c 1
 257.6543894 435.788547333 270.7415 452.663708237 270.7415 475.050869141 c 3
 270.7415 501.678859633 245.05357817 571.538869141 171.8515 571.538869141 c 1
663.2585 448.322130859 m 1
 612.218633362 448.322130859 588.246881776 418.94652827 559.933 375.038 c 0
 516.353348706 303.459682808 487.551606594 266.723287605 449.7225 191.610869141 c 1
 492.074134943 80.5853252859 534.468041505 57.5550350052 563.526909059 57.5550350052 c 3
 607.026719699 57.5550350052 621.716303714 89.2288618402 635.488 126.512 c 1
 672.689 111.445 l 1
 644.998132316 42.865729157 626.612443075 -0.866 523.11 -0.866 c 3
 476.564169653 -0.866 418.44151948 27.9548329146 392.22 84.574 c 1
 364.354 51.818 320.509772681 -6.866 199 -6.866 c 3
 70.3539659553 -6.866 17 98.67831411 17 172 c 3
 17 265.949266862 83.0117587931 335.478800572 158.3205 361.739869141 c 1
 116.145629747 391.04279518 81 440.632041246 81 506 c 3
 81 590.145556071 156 621.364881322 231 648.177 c 1
 321.61260828 616.620678998 358.9235 566.155422361 358.9235 485.184869141 c 3
 358.9235 479.701336027 296.067179709 418.753044114 271.3685 395.830869141 c 1
 338.585571428 369.457122714 392.2703285 307.227848551 425.244 235.292 c 1
 457.430008856 290.709481987 508.344232138 388.526541827 514.976 417.507 c 0
 523.274923053 455.61860247 481.192869465 479.645255022 461.3205 487.590130859 c 1
 475.421 527.067 l 1
 524.611165291 507.265787 610.109126173 489.939295 668.67 491.177 c 1
 663.2585 448.322130859 l 1
EndSplineSet
Substitution2: "pcap-1" ampersand.pcap
Substitution2: "smcp-1" ampersand.smcp
Position2: "cpsp-1" dx=0 dy=0 dh=50 dv=100
EndChar

StartChar: quotesingle
Encoding: 39 39 79
Width: 200
VWidth: 1159
Flags: HW
LayerCount: 2
Fore
SplineSet
37.909 703.83413457 m 1
 161.469 703.83413457 l 1
 160.231449714 587.35056057 131.147821143 595.829260571 127.957 441.56613457 c 1
 71.421 441.56613457 l 1
 68.0824866857 595.621513571 39.3325418857 587.61404457 37.909 703.83413457 c 1
EndSplineSet
Position2: "cpsp-1" dx=0 dy=0 dh=7 dv=14
EndChar

StartChar: bracketleft
Encoding: 91 91 85
Width: 246
VWidth: 1515
Flags: HW
LayerCount: 2
Fore
SplineSet
98.158 666.732 m 1
 98.158 -179.732 l 1
 219 -194.933 l 1
 219 -234.134 l 1
 37 -234.134 l 1
 37 721.134 l 1
 219 721.134 l 1
 219 683.622 l 1
 98.158 666.732 l 1
EndSplineSet
Position2: "cpsp-1" dx=0 dy=0 dh=50 dv=100
Position2: "'case' vertical ajustments for all-caps-1" dx=0 dy=90 dh=0 dv=0
EndChar

StartChar: asterisk
Encoding: 42 42 87
Width: 362
VWidth: 1159
Flags: HW
LayerCount: 2
Fore
SplineSet
188.003318283 524.421628683 m 1
 160.646054852 461.020861321 182.814652645 436.730353571 150.618072985 376.158265673 c 1
 111.771072985 369.402265673 68.4534773748 416.514177532 60.0084773748 446.916177532 c 1
 100.881900843 501.027204372 125.275302017 486.38458532 169.756418953 533.894987172 c 1
 101.250892923 537.618402292 86.5967671719 512.115555155 19.2079279602 521.797530746 c 1
 -1.06007203975 560.644530746 35.1766657276 615.615231775 55.4446657276 630.816231775 c 1
 120.797174056 610.932703976 110.733689762 582.571891193 172.854404006 554.859118755 c 1
 157.25337845 617.627372109 125.588773719 621.235145836 116.713864386 693.364439703 c 1
 142.048864386 720.388439703 206.642862566 710.560078033 233.666862566 690.292078033 c 1
 232.206230825 618.846338294 204.832228866 618.778171866 195.150858612 557.087937071 c 1
 249.013232649 593.104866527 246.500050729 622.362291941 308.924252214 652.191224774 c 1
 335.948252214 640.368224774 356.506584445 586.338758258 341.305584445 542.424758258 c 1
 273.712471651 521.329432438 265.565422499 548.226600753 204.216121281 537.046644855 c 1
 255.277466148 494.478829925 281.385788819 507.711091982 331.136695888 456.402483902 c 1
 327.758695888 422.622483902 274.289580247 393.023960219 235.442580247 393.023960219 c 1
 194.588047239 452.708434853 219.075026529 470.080086911 188.003318283 524.421628683 c 1
EndSplineSet
EndChar

StartChar: Acute
Encoding: 58018 58018 90
Width: 222
VWidth: 1159
Flags: HW
AnchorPoint: "Top" 64 699 mark 0
LayerCount: 2
Fore
SplineSet
26.2179677734 783.780203125 m 5
 76.8156738281 823.806103515 162.381194336 874.888936524 218.419960938 904.341022461 c 5
 219.290092774 903.421385742 252.378124024 858.68058789 268.123439453 808.605079101 c 5
 205.883378907 803.475875976 123.500851563 778.659141601 39.1914716797 739.287462891 c 5
 26.2179677734 783.780203125 l 5
EndSplineSet
EndChar

StartChar: acutecomb
Encoding: 769 769 92
Width: 0
VWidth: 1159
Flags: HW
AnchorPoint: "TopMark" -216 403 mark 0
AnchorPoint: "Top" -198.5 402 mark 0
AnchorPoint: "TopMark" -191 616 basemark 0
LayerCount: 2
Fore
SplineSet
-236.409979 451.122625 m 5
 -214.212175562 511.986810565 -168.823858875 601.681491 -137.205516 657.235452 c 5
 -136.063575197 657.000500251 -88.0214090078 640.290451734 -51.5527899 609.40118 c 5
 -99.7095220781 569.67958493 -154.928468578 502.73810816 -204.833349 423.094239 c 5
 -236.409979 451.122625 l 5
EndSplineSet
EndChar

StartChar: uni0302
Encoding: 770 770 93
Width: 0
VWidth: 1159
Flags: HW
AnchorPoint: "TopMark" -198.5 587 basemark 0
AnchorPoint: "TopMark" -200.5 384 mark 0
AnchorPoint: "Top" -198.5 401 mark 0
LayerCount: 2
Fore
SplineSet
-85.95575 435.6622 m 5
 -105.23913457 421.911269141 l 5
 -197.1555 500.043384359 l 5
 -289.760865429 421.911269141 l 5
 -309.04425 435.6622 l 5
 -215.13805 606.9866 l 5
 -179.86195 606.9866 l 5
 -85.95575 435.6622 l 5
EndSplineSet
EndChar

StartChar: gravecomb
Encoding: 768 768 94
Width: 0
VWidth: 1159
Flags: HW
AnchorPoint: "TopMark" -195 625 basemark 0
AnchorPoint: "Top" -198.5 409 mark 0
AnchorPoint: "TopMark" -196 410 mark 0
LayerCount: 2
Fore
SplineSet
-166.746874 454.878961 m 1
 -198.321815 426.850575 l 1
 -248.226695422 506.49275516 -303.445641922 573.435242265 -351.600854 613.157516 c 1
 -315.222092595 644.005094625 -266.637068323 660.634733842 -265.951337 660.990099 c 1
 -234.331305125 605.437827 -188.946366437 515.7438459 -166.746874 454.878961 c 1
EndSplineSet
EndChar

StartChar: Grave
Encoding: 58019 58019 96
Width: 222
VWidth: 1159
Flags: HW
AnchorPoint: "Top" 64 699 mark 0
LayerCount: 2
Fore
SplineSet
117.544520508 784.003640625 m 5
 104.574011718 739.512246094 l 5
 20.2642626953 778.882275391 -62.1178955078 803.700290039 -124.357652344 808.831511719 c 5
 -108.668827148 858.81284668 -75.0679589844 903.821148437 -74.6555195312 904.562810547 c 5
 -18.6154072266 875.113046875 66.9461416016 824.029237305 117.544520508 784.003640625 c 5
EndSplineSet
EndChar

StartChar: uni030A
Encoding: 778 778 98
Width: 0
VWidth: 1159
Flags: HW
AnchorPoint: "TopMark" -200.5 382 mark 0
AnchorPoint: "TopMark" -198.5 562 basemark 0
AnchorPoint: "Top" -198.5 395 mark 0
LayerCount: 2
Fore
SplineSet
-198 542.451115375 m 5
 -219.860392657 542.451115375 -240.100970945 524.639253117 -240.100970945 500.349801132 c 5
 -240.100970945 475.868566916 -220.669455341 459.548884625 -198 459.548884625 c 5
 -176.139607343 459.548884625 -155.899029055 477.360746883 -155.899029055 501.650198868 c 5
 -155.899029055 524.498894595 -175.330544659 542.451115375 -198 542.451115375 c 5
-198 579.42481832 m 5
 -154.855575517 579.42481832 -117.875111406 545.664638558 -117.875111406 502.700070274 c 5
 -117.875111406 456.474490135 -156.39656561 422.57518168 -198 422.57518168 c 5
 -241.144424483 422.57518168 -278.124888594 453.265246889 -278.124888594 499.299929726 c 5
 -278.124888594 545.524645396 -239.60343439 579.42481832 -198 579.42481832 c 5
EndSplineSet
EndChar

StartChar: uni031B
Encoding: 795 795 99
Width: 0
VWidth: 1159
Flags: HW
AnchorPoint: "Horn" -73.5 341.8 mark 0
LayerCount: 2
Fore
SplineSet
-13.3815791016 394.135369141 m 7
 -13.3815791016 403.915901278 -28.3224276662 416.657028636 -45.4525556641 434.107259766 c 5
 -30.0695498056 469.840105398 -2.71635692506 492.322265625 23.25003125 492.322265625 c 7
 61.073920614 492.322265625 75.625 459.900421875 75.625 444.775390625 c 7
 75.625 399.205078125 -15.2378927954 330.428 -84.5 330 c 5
 -85 348 l 5
 -53.0894123877 349.009829066 -13.3815791016 368.072854987 -13.3815791016 394.135369141 c 7
EndSplineSet
EndChar

StartChar: tildecomb
Encoding: 771 771 100
Width: 0
VWidth: 1159
Flags: HW
AnchorPoint: "TopMark" -214 389 mark 0
AnchorPoint: "TopMark" -198.5 538 basemark 0
AnchorPoint: "Top" -210 382 mark 0
LayerCount: 2
Fore
SplineSet
-348.664514 430.430406 m 1
 -322.193637154 493.746010114 -280.085713785 541.861059211 -273.62210107 541.861059211 c 3
 -231.758227732 541.861059211 -187.369651608 507.833855867 -143.176307812 507.833855867 c 3
 -131.17146779 507.833855867 -115.121091521 528.217094569 -106.620656 553.903736 c 1
 -68.9387977 539.044371 l 1
 -88.8770585004 480.442620429 -131.849690312 423.029855867 -138.924870812 423.029855867 c 3
 -176.257712292 423.029855867 -234.667843759 457.992765211 -276.053580922 457.992765211 c 3
 -291.443025147 457.992765211 -307.201 422.010219 -309.03839 416.577405 c 1
 -348.664514 430.430406 l 1
EndSplineSet
EndChar

StartChar: uni0306
Encoding: 774 774 105
Width: 0
VWidth: 1159
Flags: HW
AnchorPoint: "TopMark" -200.5 396 mark 0
AnchorPoint: "TopMark" -202 541 basemark 0
AnchorPoint: "Top" -198.5 393 mark 0
LayerCount: 2
Fore
SplineSet
-331.815151548 542.81611254 m 5
 -300.508531058 562.375008796 l 5
 -286.24836053 532.921251572 -242.736108316 516.292391 -197.791229 516.292391 c 4
 -153.009645873 516.292391 -109.383301468 532.822396607 -94.5100832866 562.297309925 c 5
 -63.1679884136 542.883159674 l 5
 -83.1606823586 473.371078258 -141.307089954 440.408 -198.026 440.408 c 4
 -254.761536918 440.408 -312.544044379 473.329632019 -331.815151548 542.81611254 c 5
EndSplineSet
EndChar

StartChar: uni0313
Encoding: 787 787 111
Width: 0
VWidth: 1159
Flags: HW
AnchorPoint: "TopMark" -178 410 mark 0
AnchorPoint: "TopMark" -167 631 basemark 0
AnchorPoint: "Top" -179 414 mark 0
LayerCount: 2
Fore
SplineSet
-219.680638672 419.406875977 m 5
 -231.524338867 444.67971289 l 5
 -203.984299805 453.318532226 -152.020729492 486.135004883 -168.215870117 523.051882813 c 4
 -177.990510742 545.895032227 -201.095095703 561.414759765 -221.750001953 571.977439453 c 4
 -226.916067383 573.783936523 -229.652445312 581.03505957 -229.652445312 586.918145508 c 7
 -229.652445312 592.973850586 -226.852146484 597.534349609 -221.192208008 599.680636719 c 4
 -201.391150391 610.264847657 -187.05588086 627.936788086 -175.056966797 646.373671875 c 4
 -172.816480469 651.540041016 -166.592258789 656.454026367 -160.36803711 656.454026367 c 7
 -154.391728516 656.454026367 -147.75168457 651.478138672 -145.679411133 645.815205078 c 4
 -136.607770508 627.689178711 -117.407524414 611.646884765 -97.9240527342 599.680636719 c 4
 -92.7579873047 597.502052734 -88.6542451172 592.894454101 -88.6542451172 586.918145508 c 5
 -88.6542451172 583.732521484 -78.337234375 488.241734375 -219.680638672 419.406875977 c 5
EndSplineSet
EndChar

StartChar: uni0315
Encoding: 789 789 113
Width: 0
VWidth: 1159
Flags: HW
AnchorPoint: "TopRight" -110.5 531 mark 0
LayerCount: 2
Fore
SplineSet
-66.64 658.622919258 m 5
 19.853 633.043919258 l 5
 3.23089901821 575.002747741 -31.0099055637 497.403312238 -106 450.494 c 5
 -126 464.494 l 5
 -91.0823424 522.270092379 -74.2993664 588.736870898 -66.64 658.622919258 c 5
EndSplineSet
EndChar

StartChar: Circumflex
Encoding: 58020 58020 159
Width: 281
VWidth: 1159
Flags: HMW
AnchorPoint: "Top" 140 699 mark 0
LayerCount: 2
Fore
SplineSet
279.504919257 766.873226078 m 5
 258.298452156 743.720650118 l 5
 140.5 779.861462922 l 5
 22.7023139953 743.720650118 l 5
 1.49511806219 766.873226078 l 5
 121.845795453 871.113269141 l 5
 159.154204547 871.113269141 l 5
 279.504919257 766.873226078 l 5
EndSplineSet
EndChar

StartChar: Tilde
Encoding: 58022 58022 161
Width: 329
VWidth: 1159
Flags: HW
AnchorPoint: "Top" 165 699 mark 0
LayerCount: 2
Fore
SplineSet
10.9426064453 750.430260742 m 5
 40.1889189453 813.746435547 86.712703125 861.860914062 93.8540527344 861.860914062 c 7
 140.107666993 861.860914062 189.150543946 827.834080078 237.977982422 827.834080078 c 7
 251.241518555 827.834080078 268.975439453 848.217445312 278.367211914 873.904105469 c 5
 319.999970703 859.044476562 l 5
 297.971153321 800.442560547 250.492849609 743.030080078 242.675259766 743.030080078 c 7
 201.427516602 743.030080078 136.892855468 777.992804687 91.1673535156 777.992804687 c 7
 74.1640927734 777.992804687 56.7538212891 742.010364258 54.7239521484 736.577286132 c 5
 10.9426064453 750.430260742 l 5
EndSplineSet
EndChar

StartChar: Breve
Encoding: 58023 58023 162
Width: 321
VWidth: 1159
Flags: HW
AnchorPoint: "Top" 162 699 mark 0
LayerCount: 2
Fore
SplineSet
16.7646 838.464 m 5
 52.6974677031 856.243102274 l 5
 68.0810257484 832.280833845 114.006648306 820.261941809 160.081672507 820.261941809 c 7
 206.077400335 820.261941809 252.221960973 832.230647581 268.301687797 856.243102274 c 5
 304.235 838.464 l 5
 283.3205 777.7865 221.529825 747.44775 159.9293125 747.44775 c 7
 98.3288 747.44775 36.91845 777.7865 16.7646 838.464 c 5
EndSplineSet
EndChar

StartChar: Ring
Encoding: 58026 58026 165
Width: 281
VWidth: 1159
Flags: HW
AnchorPoint: "Top" 132 699 mark 0
LayerCount: 2
Fore
SplineSet
139.5 868.246 m 5
 114.908 868.246 92.1377 848.208 92.1377 820.884 c 5
 92.1377 793.56 113.998 775.344 139.5 775.344 c 5
 164.092 775.344 186.862 795.382 186.862 822.706 c 5
 186.862 848.208 165.002 868.246 139.5 868.246 c 5
139.5 916.520243406 m 5
 191.680965105 916.520243406 236.40622607 875.800148341 236.40622607 823.97609032 c 5
 236.40622607 768.067273145 189.816478828 727.06986425 139.5 727.06986425 c 5
 87.3190551054 727.06986425 42.5932672297 764.087525484 42.5932672297 819.614017336 c 5
 42.5932672297 875.520593542 89.1832085182 916.520243406 139.5 916.520243406 c 5
EndSplineSet
EndChar

StartChar: Uni030B
Encoding: 58027 58027 166
Width: 300
VWidth: 1159
Flags: HW
AnchorPoint: "Top" 87 699 mark 0
LayerCount: 2
Fore
SplineSet
17.3995 756.5737 m 5
 30.1315 798.1717 54.1019328859 865.930915663 83.287 918.201 c 5
 83.287 918.201 130.889300183 895.391856162 160.8685 876.9947 c 5
 115.038470589 833.957477845 97.5794117649 810.482629397 49.567 732.23313457 c 5
 17.3995 756.5737 l 5
119.573019 757.897988 m 5
 135.372449 783.763177 184.230012846 850.549237527 228.897858 893.83528 c 5
 228.897858 893.83528 267.464134303 857.503976285 290.548262 830.664776 c 5
 234.972583958 802.573757119 211.581730685 785.346584857 142.970727 725.352208 c 5
 119.573019 757.897988 l 5
EndSplineSet
EndChar

StartChar: eogonek
Encoding: 281 281 253
Width: 409
VWidth: 1159
UnlinkRmOvrlpSave: 1
Flags: HW
HStem: -303.658 82.0878<232.792 322.586>
VStem: 164.041 100.358<-209.469 -120.664>
AnchorPoint: "Top" 209 465 basechar 0
LayerCount: 2
Back
SplineSet
366.630859375 52.54296875 m 5xd0
 276.377929688 -47.1502175719 262.771484375 -94.5674013864 262.771484375 -186 c 7
 262.771484375 -236.143554688 288.107421875 -265.872070312 320.166015625 -265.872070312 c 7
 339.918945312 -265.872070312 363.635742188 -255.18359375 387.97265625 -231.599609375 c 13
 387.97265625 -231.599609375 399.081054688 -241.926757812 401.771484375 -250 c 5
 374.767578125 -302.788085938 329.271484375 -326 287.771484375 -326 c 7
 237.798828125 -326 193.561523438 -284.413085938 193.561523438 -214.834960938 c 7
 193.561523438 -150.617750838 236.666992188 -26.3930451996 359.931640625 73.76171875 c 5
 366.630859375 52.54296875 l 5xd0
EndSplineSet
Fore
SplineSet
364.041698243 46.9881396484 m 1
 281.483499023 -30.3625508769 264.399083984 -94.8004338158 264.399083984 -159.991915039 c 3
 264.399083984 -198.00334082 287.72655957 -221.570416992 321.535240234 -221.570416992 c 3
 327.523829101 -221.570416992 335.890836914 -220.934986328 351.70225293 -215.454262695 c 1
 346.916932618 -212.453344726 361.508987305 -225.956352539 363.662850586 -232.937556641 c 1
 338.075734375 -282.623888672 295.660052734 -303.658203125 257.560420899 -303.658203125 c 3
 208.022730468 -303.658203125 164.041109375 -266.613193359 164.041109375 -202.493164062 c 3
 164.041109375 -144.998902603 212.981916016 -27.5080554689 357.702758789 67.6484228516 c 1
 364.041698243 46.9881396484 l 1
EndSplineSet
Refer: 4 101 N 1 0 0 1 0 0 3
Substitution2: "smcp-1" eogonek.smcp
Substitution2: "case-1" Eogonek
Substitution2: "pcap-1" eogonek.pcap
EndChar

StartChar: uni0328
Encoding: 808 808 254
Width: 0
VWidth: 1159
Flags: HW
AnchorPoint: "Ogonek" -104.35 21.6582 mark 0
LayerCount: 2
Back
SplineSet
-94.3691 15.543 m 1
 -195.162388974 -70.3584937184 -226.228515625 -111.215514218 -226.228515625 -190 c 3
 -226.228515625 -221.309227792 -201.775586907 -239.872070312 -170.833984375 -239.872070312 c 3
 -154.801506148 -239.872070312 -135.55173736 -232.614365408 -115.798828125 -216.599609375 c 1
 -115.798828125 -216.599609375 -104.690305483 -226.926828613 -102 -235 c 1
 -125.978710258 -280.147631579 -166.377945685 -300 -203.228515625 -300 c 3
 -253.201025342 -300 -297.438476562 -268.513714542 -297.438476562 -215.834960938 c 3
 -297.438476562 -159.628200176 -233.56061762 -50.8996824072 -101.068 36.7617 c 1
 -94.3691 15.543 l 1
EndSplineSet
Fore
SplineSet
-94.3078425172 16.0913955547 m 5
 -176.866633688 -48.3317178172 -193.950676031 -102.047346491 -193.950676031 -156.333711914 c 7
 -193.950676031 -194.344808251 -170.623465884 -217.912192 -136.814374 -217.912192 c 7
 -130.825840663 -217.912192 -122.45934395 -217.276879098 -106.647356446 -211.796059571 c 5
 -111.432893704 -208.795081871 -96.8408640361 -222.298188061 -94.6867587891 -229.279353516 c 5
 -120.274342705 -278.965715491 -162.689782497 -300 -200.789339118 -300 c 7
 -250.327637213 -300 -294.3086555 -262.955014714 -294.3086555 -198.834973086 c 7
 -294.3086555 -148.708014742 -245.368134147 -46.2397434073 -100.647220164 36.7515943078 c 5
 -94.3078425172 16.0913955547 l 5
EndSplineSet
EndChar

StartChar: Aogonek
Encoding: 260 260 255
Width: 730
VWidth: 0
Flags: W
HStem: -346.742 106.387<531.287 573.29> -9.40318 21G<257.008 289.236> -0.115771 49.0934<35.268 76.3002>
VStem: 357.558 58.2959<614.162 712.689> 410.044 105.001<-266.332 -94.3988>
LayerCount: 2
Fore
SplineSet
262.8039375 268.451500976 m 1x80
 300.494540775 260.337689541 392.282616674 262.61030494 427.081267578 262.937584961 c 1
 395.419207321 339.408910741 373.854230977 380.987911533 336.957730469 458.981310547 c 1
 303.538943956 380.610289578 289.250608574 336.458559765 262.8039375 268.451500976 c 1x80
474.755457828 12.95796619 m 0
 473.25700539 28.2456083469 482.54625 72.115 483.024235351 94.084231445 c 0
 465.985273215 141.398027828 460.113700099 158.504651184 447.495173828 200.104041993 c 1
 398.596533073 216.341408592 316.650712394 226.14343039 242.713 213.995 c 1
 226.546125747 174.247250336 209.694710553 153.705332791 201.243679687 110.09428418 c 0
 194.029329442 77.1818517646 228.626055504 34.1283656531 291.4405 48.1648710938 c 1
 288.0625 -9.40318066406 l 1xc8
 225.95313814 4.50506824993 98.27643044 9.39693174603 35.268 -0.115770507812 c 1
 35.268 -0.115770507812 28.512 25.3316757813 26.823 48.9776757812 c 1
 74.8008191032 68.041650026 115.437448324 87.730181645 122.169295899 100.346358399 c 0
 209.898308394 303.543348236 282.631678025 470.146077316 347.817759766 637.725088868 c 0
 362.079204426 675.251898892 356.915233302 677.201220921 357.55822168 712.689 c 1
 415.85415625 712.689 l 1xb0
 418.965826769 685.176125475 409.922267826 678.287097631 423.455337891 639.882536132 c 0
 483.234256055 439.856045596 517.269753984 320.793562973 626.775307618 107.825170932 c 0
 634.792893366 92.7216323342 685.420119488 46.4770410737 707.512 44.8877988281 c 1
 707.512 44.8877988281 705.823 21.0338076172 704.134 0.765807617188 c 1
 647.692601232 58.3662583646 561.531977596 54.1074159944 517.913544922 -11.933 c 0
 509.524039245 -65.4847884656 515.045395507 -113.493429863 515.045395507 -169.347881835 c 3
 515.045395507 -203.661704411 538.131831146 -240.355291016 568.458205078 -240.355291016 c 3
 582.722054203 -240.355291016 592.228630389 -247.818665164 616.480386718 -251.012375 c 1
 616.480386718 -251.012375 621.228740241 -259.681827131 625.772085938 -273.315000976 c 1
 600.929040611 -315.838721056 549.554266489 -346.741874023 509.099091797 -346.741874023 c 3
 459.070460762 -346.741874023 410.044320313 -298.314175969 410.044320313 -234.349640625 c 3xa8
 410.044320313 -48.2070244625 493.420505757 -21.0668670242 474.755457828 12.95796619 c 0
EndSplineSet
Position2: "cpsp-1" dx=0 dy=0 dh=50 dv=100
Substitution2: "c2pc-1" aogonek.pcap
Substitution2: "c2sc-1" aogonek.smcp
EndChar

StartChar: Uni0328
Encoding: 58029 58029 257
Width: 0
VWidth: 1159
Flags: HW
AnchorPoint: "Ogonek" -105.35 23.6582 mark 0
LayerCount: 2
Fore
SplineSet
-90.793917225 6.88061507187 m 5
 -142.450177727 -34.5856302383 -170.436474609 -119.825501046 -170.436474609 -158.80378125 c 7
 -170.436474609 -197.102000583 -146.451550722 -230.412643556 -120.065241212 -230.412643556 c 7
 -105.811469935 -230.412643556 -93.5201587384 -234.381596962 -71.1366484375 -236.510742188 c 5
 -71.1366484375 -236.510742188 -61.136652208 -246.838961447 -58.7158203125 -254.911132812 c 5
 -85.7705506897 -302.647325281 -138.205109564 -338.23046875 -179.78515625 -338.23046875 c 7
 -228.965068015 -338.23046875 -275.583984375 -289.420252063 -275.583984375 -227.85546875 c 7
 -275.583984375 -144.145292738 -241.514987387 -38.8975355005 -98.8711 45.1113 c 5
 -90.793917225 6.88061507187 l 5
EndSplineSet
EndChar

StartChar: Eogonek
Encoding: 280 280 258
Width: 672
VWidth: 0
UnlinkRmOvrlpSave: 1
Flags: W
HStem: -347.889 73.7197<484.634 553.852> -9 35<56 103.477> 3.0702 37.3021<232.525 492.796> 333 36<205 473.393> 646.077 36.8925<248.298 487.505> 657 31<48 108.489>
VStem: 122 93<372.549 638.287> 126.788 78.2122<90.4625 333 369 603.172> 395.766 71.875<-257.592 -149.807> 497 36<247.75 305.348 393.846 441.094> 538 30<537 618.59>
LayerCount: 2
Fore
SplineSet
48 688 m 1xd6e0
 120.521055818 684.355725838 206.588460485 682.969176485 287.955928091 682.969176485 c 1
 429.86328558 682.969176485 557.47511282 687.186564497 574 691 c 1
 585.145145837 681.247997393 589.133414459 675.741599913 589.133414459 667.087387512 c 1
 589.133414459 650.893580795 575.168856119 623.677987617 568 537 c 1
 538 534 l 1
 527 570 546 617 510 628 c 0
 468.488636507 639.860389569 402.664140046 646.076658986 339.417525988 646.076658986 c 1
 306.677490841 646.076658986 274.628246937 644.410894684 247 641 c 0
 229 639 216 625 215 607 c 0x9ae0
 211 525.313559322 206 444.635593221 205 369 c 1
 269 371 429 371 443 372 c 0
 480 377 485 403 501 447 c 1
 535 440 l 1
 526.800908316 409.132831309 523.486685813 378.498275435 523.486685813 347.871954284 c 1
 523.486685813 314.997648821 527.305294619 282.132831309 533 249 c 1
 497 240 l 1
 477 311 484 324 443 328 c 0
 399 333 298 332 205 333 c 1
 204 235.613545816 208 147.262948207 220 81 c 0
 224 64 233 50 250 49 c 0
 295.831179232 44.5647245905 336.319436302 40.3723092792 374.696225476 40.3723092792 c 1
 414.193090286 40.3723092792 451.453436792 44.8130178498 490 58 c 0
 550.414440108 78.6680979317 560.916666667 101 601 177 c 1
 629 170 l 1
 601.909278218 96.0751847998 563.005363884 18.4683882549 538.489257812 -19.9775390625 c 0
 508.313510966 -67.2988618945 467.640625 -148.391015834 467.640625 -206.689453125 c 0
 467.640625 -242.779181534 495.826784961 -274.168945312 526.834960938 -274.168945312 c 0
 547.809960937 -274.168945312 572.993960937 -265.436945313 598.834960938 -246.168945312 c 1
 598.834960938 -246.168945312 609.943822568 -256.497164572 612.633789062 -264.569335938 c 1
 585.578932221 -312.305955472 533.145209671 -347.888671875 491.565429688 -347.888671875 c 0
 442.385016588 -347.888671875 395.765625 -303.499671875 395.765625 -247.513671875 c 0
 395.765625 -172.157942368 443.587456716 -80.3722695124 506.53125 0.1865234375 c 1
 426.116814261 0.92057786207 344.873636713 3.07020290016 269.953021447 3.07020290016 c 1xb9e0
 188.876938008 3.07020290016 115.205017511 0.552841530585 58 -9 c 1
 48 26 l 1
 101 36 124 49 124 77 c 1
 125.797958971 111.804426856 126.787753827 207.154066657 126.787753827 309.259280672 c 1xd1e0
 126.787753827 434.312117879 125.303061543 569.498316407 122 616 c 0
 121 643 116 643 43 657 c 1
 48 688 l 1xd6e0
EndSplineSet
Position2: "cpsp-1" dx=0 dy=0 dh=50 dv=100
Substitution2: "c2pc-1" eogonek.pcap
Substitution2: "c2sc-1" eogonek.smcp
EndChar

StartChar: Iogonek
Encoding: 302 302 259
Width: 341
VWidth: 0
UnlinkRmOvrlpSave: 1
Flags: W
HStem: -346.889 73.7197<164.804 231.852> -10 40<16.125 119.789> 652 43<21.3488 120.801>
VStem: 73.7656 71.875<-253.641 -109.865> 131 90<41.0295 293.416> 137.915 75.6029<80.3904 534.592>
LayerCount: 2
Fore
SplineSet
207.177734375 3.734375 m 1xf0
 167.264648438 -46.17578125 145.640625 -131.358398438 145.640625 -195.689453125 c 3
 145.640625 -237.126953125 173.827148438 -273.168945312 204.834960938 -273.168945312 c 3
 225.810546875 -273.168945312 250.994140625 -264.435546875 276.834960938 -245.168945312 c 9
 276.834960938 -245.168945312 287.944335938 -255.497070312 290.633789062 -263.569335938 c 1
 263.579101562 -311.305664062 211.14453125 -346.888671875 169.564453125 -346.888671875 c 3
 120.384765625 -346.888671875 73.765625 -298.078125 73.765625 -236.513671875 c 3
 73.765625 -152.803710938 98.1953125 -47.5556640625 200.478515625 36.453125 c 1
 207.177734375 3.734375 l 1xf0
EndSplineSet
Refer: 34 73 N 1 0 0 1 0 0 3
Position2: "cpsp-1" dx=0 dy=0 dh=50 dv=100
Substitution2: "c2pc-1" iogonek.pcap
Substitution2: "c2sc-1" iogonek.smcp
EndChar

StartChar: iogonek
Encoding: 303 303 260
Width: 263
VWidth: 0
UnlinkRmOvrlpSave: 1
Flags: HW
HStem: -326 60.1279<121.017 198.674> -7 33<33 87 184 254> 572 102<98.589 183.411>
VStem: 36.5625 69.209<-252.6 -120.517> 89 104<581.438 664.599> 97 71<57 330>
LayerCount: 2
Fore
SplineSet
168 12.9248046875 m 5xe4
 113.924804688 -74.3896484375 105.771484375 -115.919921875 105.771484375 -196 c 7
 105.771484375 -239.865234375 131.106445312 -265.872070312 163.166015625 -265.872070312 c 7
 182.918945312 -265.872070312 206.635742188 -255.18359375 230.97265625 -231.599609375 c 5
 230.97265625 -231.599609375 242.081054688 -241.926757812 244.771484375 -250 c 5
 217.768554688 -302.788085938 172.271484375 -326 130.771484375 -326 c 7
 80.798828125 -326 36.5625 -288.154296875 36.5625 -224.834960938 c 7xf0
 36.5625 -167.208984375 66.80859375 -55.732421875 153.30078125 34.1435546875 c 5
 168 12.9248046875 l 5xe4
EndSplineSet
Refer: 8 105 N 1 0 0 1 0 0 3
Substitution2: "smcp-1" iogonek.smcp
Substitution2: "case-1" Iogonek
Substitution2: "pcap-1" iogonek.pcap
EndChar

StartChar: uogonek
Encoding: 371 371 262
Width: 506
VWidth: 0
UnlinkRmOvrlpSave: 1
Flags: W
HStem: -324.658 60.1279<313.017 390.674> -18.7812 20G<319.052 378.615> -11 55<171 272> 338 31<291 350>
VStem: 69 76<71 327> 228.562 69.21<-251.259 -142.76> 358 65<36 52 75 331>
LayerCount: 2
Fore
SplineSet
379 -20 m 1xde
 308.413085938 -92.994140625 297.771484375 -127.711914062 297.771484375 -194.658203125 c 3
 297.771484375 -238.5234375 323.107421875 -264.530273438 355.166015625 -264.530273438 c 3
 374.918945312 -264.530273438 398.635742188 -253.841796875 422.97265625 -230.2578125 c 1
 422.97265625 -230.2578125 434.081054688 -240.584960938 436.771484375 -248.658203125 c 1
 409.767578125 -301.446289062 364.271484375 -324.658203125 322.771484375 -324.658203125 c 3
 272.798828125 -324.658203125 228.561523438 -286.8125 228.561523438 -223.493164062 c 3
 228.561523438 -173.491210938 265.803710938 -76.765625 372.30078125 1.21875 c 1
 379 -20 l 1xde
EndSplineSet
Refer: 20 117 N 1 0 0 1 0 0 3
Substitution2: "smcp-1" uogonek.smcp
Substitution2: "case-1" Uogonek
Substitution2: "pcap-1" uogonek.pcap
EndChar

StartChar: uni0327
Encoding: 807 807 268
Width: 0
VWidth: 1159
UnlinkRmOvrlpSave: 1
Flags: HW
AnchorPoint: "Bottom" -193 -15 mark 0
LayerCount: 2
Fore
SplineSet
-289.175 -200.003 m 5
 -286.721862356 -178.60265962 l 5
 -247.3846385 -175.89734167 -209.872710937 -165.403478221 -209.872710937 -135.273770507 c 5
 -209.872710937 -123.009296984 -220.075399064 -101.439988113 -248.490813016 -98.2900369392 c 5
 -248.235584045 -74.8337415911 l 5
 -242.92980898 -71.9336884893 -236.768247302 -70.789768615 -231.521 -67.0766 c 4
 -203.77307808 -47.1056993878 -207.107303133 -42.0425332811 -185.833698478 5.43262222267 c 5
 -145.301717478 13.432586417 l 5
 -145.301717478 13.432586417 -161.436362832 -38.5170008069 -167.168960081 -47.9772763563 c 5
 -149.314124874 -55.6154179546 -117.414183016 -73.5198520128 -117.414183016 -111.428800836 c 5
 -117.414183016 -180.249955584 -213.370265315 -229.425066157 -289.175 -200.003 c 5
EndSplineSet
EndChar

StartChar: cedillafloating
Encoding: 58084 58084 269
Width: 0
VWidth: 1159
Flags: W
VStem: -195 63.126<-165.104 -94.3473>
AnchorPoint: "Bottom" -193 -15 mark 0
LayerCount: 2
Fore
SplineSet
-289.175 -200.003 m 1
 -285.141 -177.812 l 1
 -239 -188 -195 -161.724 -195 -125 c 3
 -195 -109.445 -206 -85 -236.636 -95.1289 c 1
 -241.123 -72.4629 l 1
 -199.113 -38.5203 -131.874 -44.0724 -131.874 -109.349 c 3
 -131.874 -179.786 -219.751 -230.116 -289.175 -200.003 c 1
EndSplineSet
EndChar

StartChar: Uni0327
Encoding: 58030 58030 281
Width: 0
VWidth: 1159
Flags: HW
AnchorPoint: "Bottom" -191 -15 mark 0
LayerCount: 2
Fore
SplineSet
-302.112 -226.844 m 5
 -297.393290672 -199.503096891 l 5
 -258.158112 -197.505889 -213.48169882 -183.846537547 -213.48169882 -148.110451391 c 5
 -213.48169882 -135.98244032 -218.414380734 -108.336863828 -249.623994618 -106.208725476 c 5
 -254.848725476 -79.6890795453 l 5
 -250.443857094 -77.7178337344 -236.516642919 -70.6602235253 -231.95896232 -67.5294710531 c 4
 -204.2859921 -46.9441869217 -211.726528152 -42.16886944 -192.393800836 9.95536043063 c 5
 -134.991800836 19.3334279906 l 5
 -134.991800836 19.3334279906 -143.575928815 -31.496634684 -167.190258375 -63.0456809828 c 5
 -143.151880513 -71.8071478302 -110.25117225 -92.4142645844 -110.25117225 -124.708989234 c 5
 -110.25117225 -204.066279906 -223.518 -260.771 -302.112 -226.844 c 5
EndSplineSet
EndChar

StartChar: Cedillafloating
Encoding: 58085 58085 282
Width: 0
VWidth: 1159
Flags: W
VStem: -194.928 70.8965<-182.621 -103.74>
AnchorPoint: "Bottom" -193 -15 mark 0
LayerCount: 2
Fore
SplineSet
-302.112 -226.844 m 1
 -297.393 -200.881 l 1
 -243.408 -212.801 -194.928 -182.057 -194.928 -139.091 c 3
 -194.928 -120.892 -206.798 -92.29 -240.642 -104.142 c 1
 -245.892 -77.6221 l 1
 -199.032 -34.292 -124.031 -58.5156 -124.031 -124.709 c 3
 -124.031 -204.066 -223.518 -260.771 -302.112 -226.844 c 1
EndSplineSet
EndChar

StartChar: Uni030F
Encoding: 58034 58034 295
Width: 300
VWidth: 1159
Flags: HW
AnchorPoint: "Top" 87 699 mark 0
LayerCount: 2
Fore
SplineSet
156.6005 756.5737 m 5
 124.433 732.23313457 l 5
 76.4205882353 810.482629397 58.9615294118 833.957477845 13.1315 876.9947 c 5
 43.1100242165 895.391856162 90.713 918.201 90.713 918.201 c 5
 119.898067114 865.930915663 143.8685 798.1717 156.6005 756.5737 c 5
52.7699031 756.945392 m 5
 29.3710128 724.397923 l 5
 -39.2396530846 784.393988857 -62.6294929578 801.619472119 -118.203482 829.710491 c 5
 -95.1237457028 856.551380285 -56.5559493 892.880995 -56.5559493 892.880995 c 5
 -11.8869218461 849.596641527 36.9701353 782.810581 52.7699031 756.945392 c 5
EndSplineSet
EndChar

StartChar: uni01EA
Encoding: 490 490 308
Width: 845
VWidth: 0
UnlinkRmOvrlpSave: 1
Flags: W
HStem: -346.889 73.7197<406.804 473.852> -7 50<342.523 545.448> 657 49<304.396 495.712>
VStem: 43 93<267.4 455.825> 315.766 71.875<-253.641 -127.154> 701 101<222.803 442.21>
AnchorPoint: "Middle" 417.697 364.853 basechar 0
AnchorPoint: "Top" 420 699 basechar 0
LayerCount: 2
Fore
SplineSet
499.177734375 3.734375 m 1
 426.834960938 -46.17578125 387.640625 -131.358398438 387.640625 -195.689453125 c 3
 387.640625 -237.126953125 415.827148438 -273.168945312 446.834960938 -273.168945312 c 3
 467.810546875 -273.168945312 492.994140625 -264.435546875 518.834960938 -245.168945312 c 9
 518.834960938 -245.168945312 529.944335938 -255.497070312 532.633789062 -263.569335938 c 1
 505.579101562 -311.305664062 453.14453125 -346.888671875 411.564453125 -346.888671875 c 3
 362.384765625 -346.888671875 315.765625 -298.078125 315.765625 -236.513671875 c 3
 315.765625 -152.803710938 349.834960938 -47.5556640625 492.478515625 36.453125 c 1
 499.177734375 3.734375 l 1
EndSplineSet
Refer: 40 79 N 1 0 0 1 0 0 3
Position2: "cpsp-1" dx=0 dy=0 dh=50 dv=100
EndChar

StartChar: uni01EB
Encoding: 491 491 309
Width: 505
VWidth: 0
UnlinkRmOvrlpSave: 1
Flags: W
HStem: -326 60.1279<272.366 350.024> -11 39<199.926 327.747> 374 45<168.903 305.133>
VStem: 32 76<130.211 291.037> 187.912 69.209<-252.6 -139.048> 395 78<107.641 276.826>
AnchorPoint: "Top" 251 465 basechar 0
AnchorPoint: "Middle" 255 206 basechar 0
LayerCount: 2
Fore
SplineSet
360.98046875 13.54296875 m 1
 270.727539062 -74.0302734375 257.12109375 -115.682617188 257.12109375 -196 c 3
 257.12109375 -239.865234375 282.45703125 -265.872070312 314.515625 -265.872070312 c 3
 334.268554688 -265.872070312 357.986328125 -255.18359375 382.322265625 -231.599609375 c 9
 382.322265625 -231.599609375 393.431640625 -241.926757812 396.12109375 -250 c 1
 369.1171875 -302.788085938 323.62109375 -326 282.12109375 -326 c 3
 232.149414062 -326 187.912109375 -288.154296875 187.912109375 -224.834960938 c 3
 187.912109375 -172.674804688 223.05859375 -76.5009765625 320.63671875 8 c 9
 360.98046875 13.54296875 l 1
EndSplineSet
Refer: 14 111 N 1 0 0 1 0 0 3
Substitution2: "case-1" uni01EA
EndChar

StartChar: thorn
Encoding: 254 254 317
Width: 515
VWidth: 1159
Flags: W
HStem: -348 32<8.34375 55.6963> -342 34<151.753 229> -10 46<184.803 329.513> 369 43<198.188 323.819> 654 29<16 45.5305>
VStem: 67 82<-302.037 -18.4171> 80 65<-197.411 7 69.4004 345.78 368 599.495> 406 69<130.435 275.055>
LayerCount: 2
Fore
SplineSet
145 332 m 9x3b
 144 241 143 189 143 98 c 3
 143 92 147 85 154 79 c 0
 185 52 227 36 268 36 c 3
 345 36 406 96 406 180 c 3
 406 270 352 369 251 369 c 3
 207 369 155 342 145 332 c 9x3b
76 31 m 24
 79.1289 217.79 80 367 80 510 c 3
 80 570 80 607 76 627 c 0
 71 654 64 656 46 656 c 3
 36 656 25 654 16 654 c 1
 11 683 l 1
 48 690 104 718 154 759 c 1
 175 743 l 1
 165 717 157 687 156 667 c 0
 151 599 145 484 145 368 c 1xbb
 178 382 234 412 294 412 c 3
 399 412 475 315 475 223 c 3
 475 94 363.004 -10 225 -10 c 3
 198 -10 170 -2 144 7 c 1
 144 -75 144 -247 149 -284 c 0
 151 -299 170 -303 181 -304 c 0
 197 -305 216 -307 230 -308 c 1
 229 -342 l 1x7d
 190 -341 159 -339 117 -339 c 3
 87 -339 39 -344 9 -348 c 1
 6 -316 l 1
 17 -315 25 -313 36 -311 c 0
 59 -305 65 -294 67 -266 c 0xbd
 72 -214 74.0589 -84.8672 76 31 c 24
EndSplineSet
Substitution2: "pcap-1" thorn.pcap
Substitution2: "case-1" Thorn
Substitution2: "smcp-1" thorn.smcp
EndChar

StartChar: Thorn
Encoding: 222 222 318
Width: 594
VWidth: 1159
Flags: W
HStem: -9 35<33 79.7574> 178 45<189.142 391.092> 519 42<188.8 373.894> 661 31<15.871 81.5947>
VStem: 103 86.1416<54.7783 182.945 226.958 514.181 554.895 640.551> 465 87<299.251 431.707>
LayerCount: 2
Fore
SplineSet
300 652.244140625 m 1
 269.541015625 652.76953125 239.069335938 648.46484375 211 641 c 0
 193.498046875 636.344726562 190 622 189 604 c 0
 188.240234375 587.23828125 187.66015625 570.91015625 187.219726562 554.89453125 c 1
 223.961914062 557.525390625 259.918945312 561 309 561 c 3
 442 561 552 478 552 375 c 3
 552 258.262695312 417.193359375 178 292 178 c 3
 251.719726562 178 228.8125 181.861328125 189.141601562 182.9453125 c 1
 190.319335938 145.3203125 192.446289062 106.4140625 198 75 c 0
 201.80078125 58.8486328125 209.211914062 38.1826171875 306 36.1611328125 c 1
 302 -10.6103515625 l 1
 253.839897611 0.765337346976 217.431629665 6.17477902914 177.51514646 6.17477902914 c 3
 138.247715333 6.17477902914 95.5852303172 0.939824883774 35 -9 c 1
 25 26 l 1
 78 36 103 49 103 77 c 1
 104.6 108.20234375 105.4 187.70734375 105.4 277.3266875 c 3
 105.4 411.755703125 103.6 568.941992187 100 620 c 0
 99 647 85 647 12 661 c 1
 17 692 l 1
 64.3137479468 686.877828443 116.634803726 684.064503692 169.426581172 684.064503692 c 3
 212.805530712 684.064503692 256.502306442 685.964030206 298 690.04296875 c 1
 300 652.244140625 l 1
189.073242188 226.958007812 m 1
 228.5625 225.396484375 249.3671875 223 290 223 c 3
 436 223 465 311 465 364 c 3
 465 424 404 519 288 519 c 3
 266.518554688 519 216.749023438 516.599609375 187.26171875 510.466796875 c 1
 185.9765625 417.948242188 187.340820312 313.534179688 189.073242188 226.958007812 c 1
EndSplineSet
Position2: "cpsp-1" dx=0 dy=0 dh=50 dv=100
Substitution2: "c2pc-1" thorn.pcap
Substitution2: "c2sc-1" thorn.smcp
EndChar

StartChar: AE
Encoding: 198 198 319
Width: 1067
VWidth: 1159
Flags: W
HStem: -10.378 41.89<446.456 483.477> 4.134 21G<892.709 987.629> 9.31902 47.3741<683.453 866.47> 331.244 44.957<636.938 848.167> 629.752 46.9474<672.668 859.851> 653.421 35.134<394.592 449.054>
VStem: 520.674 116.264<109.145 235.231 289.436 331.244 376.201 569.498> 883.732 44.268<235.881 295.904 411.363 454.922> 928.177 38.268<525.909 595.57>
LayerCount: 2
Fore
SplineSet
396 688.555 m 1x9780
 502.866463784 679.319804001 592.246402498 676.699331481 647.124743839 676.699331481 c 1
 819.500556019 676.699331481 921.354132668 680.149799846 969.689 690.244 c 1
 983.490140355 678.254127189 986.656193069 674.222137869 986.656193069 665.927350367 c 1
 986.656193069 650.238679624 972.803910529 623.302651717 966.445 525.909 c 1
 928.177 520.842 l 1
 923.406708334 542.518563381 925.153 588.684 903.622 599.684 c 0
 868.151607023 619.916844372 814.773558009 629.751883913 762.487566392 629.751883913 c 3
 730.858921011 629.751883913 684.74652971 626.34035542 672.048 621.641 c 0
 662.024723632 617.097641727 653.469667315 592.225139508 652.45 580.751 c 0
 646.2452 514.105730932 638.4892 438.633110564 636.938 376.201 c 1
 686.831616827 379.579 813.35724006 379.301011653 824.22 381.268 c 0
 862.859066406 389.726063904 876.8995 441.799137552 889.11 465.225 c 1
 930 453.402 l 1
 921.801083821 418.987804391 918.48693226 384.833256654 918.48693226 350.687900708 c 1
 918.48693226 313.086330445 922.305442143 275.495625468 928 237.598 c 1
 883.732 222.397 l 1
 862.6985 288.493537109 868.683804517 314.455057272 824.22 324.177 c 0
 789.917675 331.244 709.441090865 329.8306 636.938 331.244 c 1
 635.5246 249.417072297 642.917329676 163.63778454 658.139 111.316 c 0
 662.965865302 96.1650074905 671.664447882 74.5626934886 681.938 71.048 c 0
 714.24883043 58.0673944689 746.684563894 56.6931614273 774.321674556 56.6931614273 c 1
 792.549922039 56.6931614273 820.027373874 60.8158308007 858.129 75.225 c 0
 902.66 91.78 946.421 137.517 990.244 192.158 c 1
 1021.689 184.469 l 1
 1000.01753418 101.714323243 993.946844726 72.1647685547 981.311 4.134 c 1x5b80
 804.10632392 6.58905897876 754.721961186 9.31902138063 673.522369713 9.31902138063 c 1x3380
 588.362258326 9.31902138063 548.344334306 5.21101018027 448.933 -10.378 c 1
 434.11 31.512 l 1
 480.22 41.512 515.976 70.0347647059 515.976 103.182 c 1
 518.441885139 124.106434247 520.056048906 172.989929735 520.673859375 230.752890625 c 1
 461.500656965 245.319069509 355.116556597 251.834086989 277.050992188 240.799 c 1
 246.615847418 192.10321 224.351843032 167.224577409 199.012531 115.938 c 0
 173.206827 62.713 187.465268 44.847 251.181407 43.646 c 1
 245.111419859 -8.622 l 1
 212.13118323 -2.48331176209 158.829843889 0.985264909254 108.670034969 0.985264909254 c 1
 76.3231122326 0.985264909254 45.3376515792 0.684416205608 22.546917225 -4.311 c 1
 22.546917225 -4.311 18.2831627145 26.4306666666 19.9364838516 43.646 c 1
 57.0325595535 62.3941086956 100.430776387 76.5989486236 118.790228 104.115 c 0
 243.798182884 295.630012108 358.340881428 477.32398266 454.500171875 634.402345703 c 1
 435.453050105 640.098807495 412.955315987 645.559032275 388.933 653.421 c 1
 396 688.555 l 1x9780
499.962063476 618.400640625 m 1
 474.384883334 575.039221855 353.362036851 370.01248386 307.21 294.512 c 1
 353.222580019 286.416715283 471.45813712 289.198362397 520.81253125 289.436210938 c 1
 521.13280019 412.99742368 515.917824987 574.555330882 513.287 600.775 c 0
 512.37983984 609.537828249 507.93534407 615.068359124 499.962063476 618.400640625 c 1
EndSplineSet
Position2: "cpsp-1" dx=0 dy=0 dh=50 dv=100
Substitution2: "c2pc-1" ae.pcap
Substitution2: "c2sc-1" ae.smcp
EndChar

StartChar: ae
Encoding: 230 230 322
Width: 578
VWidth: 1159
Flags: HW
HStem: -8.311 67.115<66.0144 172.786 377.29 474.831> 184.244 29.5762<168.767 230.496> 354.842 58.89<146.89 225.704 339.635 404.803>
VStem: 23.6066 94.383<66.6573 153.564> 40.7675 105.911<307.42 351.248> 230.496 93.6928<114.055 184.244 208.628 218.04 239.134 325.505>
AnchorPoint: "Bottom" 280.52 -15 basechar 0
AnchorPoint: "Top" 283.52 465 basechar 0
LayerCount: 2
Fore
SplineSet
362.543148438 356.22 m 3xe4
 323.093970821 356.22 322.967864181 263.146849438 321.94553125 239.134 c 1
 363.189752072 251.719771817 395.248319796 261.33044762 433.952 272.41754163 c 0
 435.826285644 272.955489246 437.717089424 273.497101787 439.626610351 274.043 c 1
 425.526328482 321.115781609 389.35785058 356.22 362.543148438 356.22 c 3xe4
324.189289062 212.134 m 1
 319.848082331 125.721992229 366.315441762 59.225 440.782102539 59.225 c 1
 480.694764418 59.225 508.315769318 76.5091777778 527.563234375 94.579 c 1
 552.12646875 61.378 l 1
 510.615692732 29.4418970589 451.314584136 -8.689 383.117257812 -8.689 c 1
 320.109518549 -8.689 271.262413102 27.8668603834 249.362991211 77.9562724609 c 1
 218.863068351 54.9332521305 148.445382821 -8.311 87.3625742187 -8.311 c 3
 44.666200843 -8.311 23.6065742188 26.4488 23.6065742188 68.933 c 3xf4
 23.6065742188 97.5555907116 29.9369946113 125.598480259 33.3625742187 134.823 c 0
 37.5611915017 147.392 45.7984332012 157.336274252 56.8075742187 162.713 c 0
 121.055017105 194.108609826 163.706917612 196.548770604 232.082414062 213.820695312 c 1
 232.581542882 230.718334659 233.534381248 246.073290045 234.825448242 259.986522461 c 1
 235.528328227 271.603975497 229.108844573 288.912152553 224.488049805 302.227624024 c 0
 216.602102306 325.985658259 179.398322638 354.842 165.453574219 354.842 c 3
 155.358018663 354.842 146.678574219 348.999935908 146.678574219 341.311 c 3
 146.678574219 333.918666666 152.701643415 318.188185185 153.705488281 312.933 c 1
 53.2124882813 271.22 l 1
 47.6813771702 283.11475 40.7674882813 306.90425 40.7674882813 318.799 c 1xec
 40.7674882813 330.446317073 47.7419697628 341.547585366 65.0114882812 352.909 c 1
 133.125183988 395.162625 200.588782137 413.732 217.12253125 413.732 c 1
 234.285218754 413.732 287.635555123 378.184936543 302.759664062 361.96634375 c 1
 339.408055629 398.214411136 376.018679343 412.866 388.683957031 412.866 c 1
 447.28732142 412.866 503.713075438 372.184308808 529.127375 323 c 0
 541.710568807 299.976 553.195657579 296.753066666 558.957 297.177 c 1
 557.579 273.177 l 1
 483.374698024 254.8641 400.343891842 233.063028572 324.189289062 212.134 c 1
230.496476562 184.244453125 m 1
 196.264259901 174.963916415 156.581280239 172.167391183 142.984574219 156.311 c 0
 130.280033827 146.724221341 117.989574219 133.4641484 117.989574219 109.225 c 3
 117.989574219 88.7145975681 134.005538939 58.804 162.477574219 58.804 c 3
 183.094979009 58.804 225.038824223 90.7764914755 240.205381836 102.387552734 c 1
 233.272567439 126.129752722 230.132631987 153.72774087 230.496476562 184.244453125 c 1
EndSplineSet
Substitution2: "pcap-1" ae.pcap
Substitution2: "case-1" AE
Substitution2: "smcp-1" ae.smcp
EndChar

StartChar: germandbls
Encoding: 223 223 327
Width: 579
VWidth: 1159
Flags: HW
LayerCount: 2
Fore
SplineSet
312 756 m 1
 411.877 756 454.845 679.623 454.845 588.779 c 1
 454.845 450.857944893 349.201 392.010868061 349.201 353.268 c 1
 349.201 333.293608696 364.140871429 312.465800058 423.201 284.957 c 1
 500.963707051 255.133225689 539 188.487788142 539 128 c 1
 539 33.1543 458.812 -9 408 -9 c 1
 365.699560976 -9 332.401317073 -1.0316 300 9.11 c 1
 304 26.4748837209 306 43.8397674419 306 62.445 c 0
 306 73.9024367935 304.571 107.322563206 301 118.78 c 1
 323 125.78 l 1
 357.427470916 64.9903117088 390.725072365 42.713 437.713 42.713 c 1
 452.254013817 42.713 462.531 57.5107153016 462.531 83.952 c 1
 462.531 147.366719632 416.131387314 179.138530471 391.177 193.397 c 0
 336.512031538 225.413937783 252.574 233.734490207 252.574 317.799 c 1
 261.531 328.956271284 372.829151 425.846343547 372.829151 559.785367 c 1
 372.829151 622.371000451 323.505436733 686.397 253.885 686.397 c 1
 159.839265723 686.397 210.85678098 562.841060904 203.383 463.646 c 1
 197.42174 393.696534 193.249 297.504760732 193.249 249 c 0
 193.249 184.2235472 195.220063 123.267081757 205.072 60.201 c 0
 207.217786742 45.3419129637 212.882114 40.89 220.005 39.89 c 0
 227.269502572 38.89 235.236869638 38.5455 240.627 38.579 c 1
 237.627 -6 l 1
 211.04625 -1 173.07375 1 146.493 1 c 0
 122.719574163 1 60.7734 -2 37 -6 c 1
 36 38.268 l 1
 43.6315555555 38.579 53.5098164062 38.8165166016 60.976 41.268 c 1
 76.0939517 46.89 83.5794522999 64.9645505192 88.866 106.493 c 1
 92.9383625838 136.858427859 97.0100279555 182.629133657 97.933 222 c 0
 98.5784093281 255.103055211 99.164681185 298.714817395 99.0669023937 341.531 c 1
 40 353.244 l 1
 40 386 l 1
 59.9402 389.935 79.0951 397.74 99.0097 401.801 c 1
 99 418.369 99 440.499102274 99 455.201 c 0
 99 585.733860047 133.277453076 640.190973867 205 704 c 0
 235.682387661 731.265019714 260.414 756 312 756 c 1
EndSplineSet
MultipleSubs2: "case-2" S S
Substitution2: "pcap-1" uni1E9E.pcap
Substitution2: "case-1" uni1E9E
Substitution2: "smcp-1" uni1E9E.smcp
EndChar

StartChar: greater
Encoding: 62 62 333
Width: 463
VWidth: 0
Flags: HW
LayerCount: 2
Fore
SplineSet
65.2655 347.4104 m 1
 112.89 412 l 1
 412 201.622 l 1
 73.732 -7 l 1
 56.665 22.445 l 1
 308.0405 175.6114 l 1
 65.2655 347.4104 l 1
EndSplineSet
Position2: "'case' vertical ajustments for all-caps-1" dx=0 dy=90 dh=0 dv=0
EndChar

StartChar: braceleft
Encoding: 123 123 336
Width: 266
VWidth: 1515
Flags: HW
LayerCount: 2
Fore
SplineSet
239.5 710.78813457 m 1
 239.5 710.78813457 239.5 695.38514457 239.5 674.96513457 c 1
 195.287456474 673.943564697 168.5695 641.671147234 168.5695 540.45843457 c 3
 168.5695 471.380848742 193.78 459.591231349 193.78 390 c 3
 193.78 334.827050611 122.247599238 260.060113508 100.859 243.300134571 c 1
 122.247599238 226.540112497 193.78 153.151046581 193.78 96.5995935406 c 3
 193.78 29.7636145723 168.5695 11.7736326554 168.5695 -53.8588410297 c 3
 168.5695 -153.69394347 191.822191769 -187.343297645 239.5 -188.364865429 c 1
 239.5 -224.187865429 l 1
 164.133627575 -230.601123094 84.61 -183.055130964 84.61 -12.1402032297 c 3
 84.61 36.8199922104 98.842 75.2744157154 98.842 101.666593541 c 3
 98.842 148.548770468 71.1837284039 208.955102437 11.5 230.300134571 c 1
 11.5 256.989134571 l 1
 72.5617284039 278.218810236 98.842 338.987741209 98.842 384.933 c 3
 98.842 408.568828178 84.61 453.224373906 84.61 498.74013457 c 3
 84.61 669.65537676 168.328421693 717.201394283 239.5 710.78813457 c 1
EndSplineSet
Position2: "cpsp-1" dx=0 dy=0 dh=50 dv=100
Position2: "'case' vertical ajustments for all-caps-1" dx=0 dy=90 dh=0 dv=0
EndChar

StartChar: asciitilde
Encoding: 126 126 339
Width: 394
VWidth: 0
Flags: HW
LayerCount: 2
Fore
SplineSet
16.622 178.531 m 1
 47.066516129 240.730155555 111.149462365 300.225 111 300.225 c 3
 154.673340909 300.225 247.098318182 264.335 289.756 264.335 c 3
 298.002181818 264.335 322.740727273 287.982608696 335.11 313.78 c 1
 377.378 301.469 l 1
 353.188588235 244.470340206 302.200494118 172.775 295.134 172.775 c 3
 252.148935135 172.775 146.199232433 208.665 101.177 208.665 c 3
 90.41625 208.665 66.4115 182.121 54.823 165.531 c 1
 16.622 178.531 l 1
EndSplineSet
Position2: "cpsp-1" dx=0 dy=0 dh=50 dv=100
Position2: "'case' vertical ajustments for all-caps-1" dx=0 dy=90 dh=0 dv=0
EndChar

StartChar: kgreenlandic
Encoding: 312 312 345
Width: 520
VWidth: 1159
Flags: W
HStem: -5 33<33.6364 85.0934 314.455 358.094 457 501.545> 344 29<39.7931 76.7086> 374 27<269 299.949 413.248 459.333> 395 20G<145.5 187>
VStem: 105 64<42.314 204 227 346.994>
LayerCount: 2
Fore
SplineSet
179 211 m 1xe8
 169 204 l 1
 169 140.25 171.723635175 78.5727361869 175 54 c 0
 177 39 185.619315018 37.1522739927 196 33 c 0
 206 29 216 28 230 27 c 1
 225 -7 l 1
 191 -1 172 4 130 4 c 3
 100 4 64 -3 34 -5 c 1
 32 28 l 1
 43 29 54.2438024311 30.030722479 64 33 c 0
 87 40 93.3132247115 48.0575369992 96 76 c 0
 101 128 105 170 105 235 c 3
 105 253.368013699 103.27297056 281.632471039 101 318 c 0
 100 334 94 348 77 348 c 3
 71 348 51 345 41 344 c 1
 36 373 l 1
 88 381.884615385 124 387.538461538 167 415 c 1xd8
 187 399 l 1
 181 385 174.184346429 357.982026431 173 347 c 0
 171 328.454705882 168 273.908529412 167 227 c 1
 201.5858 255.29682906 250.733796152 297.620653704 285 330 c 0
 291.596571429 336.233333333 301 348.518518519 301 355 c 3
 301 373 277 372 267 374 c 1
 269 401 l 1
 295 399 330 399 357 399 c 3
 388.166666667 399 428.777777778 399 459 403 c 1
 461 371 l 1
 400.820895522 364.000222222 364.689666047 341.369176033 333 319 c 2
 231 247 l 1
 297.824402928 186.179636497 367.532605558 122.858938129 446 52 c 1
 462 37 490 29 504 28 c 1
 501 -6 l 1
 467 0 449 4 407 4 c 3
 377 4 345 -3 315 -5 c 1
 312 28 l 1
 348 33 348 37 359 38 c 1
 296.777686305 99.8038948798 205.773756239 186.901875399 179 211 c 1xe8
EndSplineSet
MultipleSubs2: "case-2" K quoteleft
EndChar

StartChar: OE
Encoding: 338 338 346
Width: 1081
VWidth: 1159
Flags: HW
LayerCount: 2
Fore
SplineSet
358.818 636.22 m 3
 254.335 636.22 177.541 547.5768402 177.541 405.249 c 3
 177.541 225.236508445 315.82586262 59.225 456.091 59.225 c 3
 486.414862659 59.225 505.44 87.29115058 507.507 130.584 c 1
 509.908944783 149.042655637 511.565027012 192.888126573 511.565027012 244.277635245 c 1
 511.565027012 351.26957031 508.058918954 486.147040459 505.507 528.77 c 0
 500.995714968 626.672174298 422.760337932 636.22 358.818 636.22 c 3
424 -7 m 3
 210 -7 37 145.659140762 37 336 c 3
 37 527.127628169 212 694 422 694 c 3
 507.490017004 694 461.789007914 684.96875 696.956054688 684.96875 c 3
 838.863027557 684.96875 966.475003159 689.186881304 983 693 c 1
 994.145145837 683.247997393 998.133414459 677.741599913 998.133414459 669.087387512 c 0
 998.133414459 652.893580795 984.168856119 625.677987617 977 539 c 1
 941.488 534.622 l 1
 925.345395507 564.552878906 939.842 593.507 886.617 607.263 c 0
 787.233666373 633.195394126 739.067 633.708 691.139 630.598 c 0
 665.611816293 629.976 647.737 605.552066529 646.048 582.818 c 0
 639.292 511.193406779 630.847 440.453067797 628.469 374.134 c 1
 681.537638656 378.201 812.121774248 378.430344026 825.818 379.89 c 0
 872.368965518 387.967533334 885.922068966 423.080706666 903.11 449.378 c 1
 944 441 l 1
 935.800908316 410.132831309 932.486685813 379.498275435 932.486685813 348.871954284 c 0
 932.486685813 315.997648821 936.305294619 283.132831309 942 250 c 1
 897.043 238.933 l 1
 872.22 306.041715909 879.320035456 315.613943263 824.44 322.11 c 0
 788.210067227 329.866 705.045903361 328.3148 628.469 329.866 c 1
 627.0556 233.690693227 633.683618465 174.008199513 653.115 110.627 c 0
 659.747868164 89.1229316406 674.175552155 75.1318358842 692.761 64.847 c 0
 718.038496741 55.1996293476 745.319505453 50.0184739273 783.696181665 50.0184739273 c 0
 805.727746038 50.0184739273 859.409483685 67.9423215388 888.665 82.804 c 0
 936.422409664 107.350297511 961.11 133.383 1003.555 178.378 c 1
 1035 170 l 1
 1019 104 1008 62 996 0 c 1
 886.301 -0.545565 771.508 3.06988 667.928 3.06988 c 3
 487.932 3.06988 491.022 -7.00001689 424 -7 c 3
EndSplineSet
Position2: "cpsp-1" dx=0 dy=0 dh=50 dv=100
Substitution2: "c2pc-1" oe.pcap
Substitution2: "c2sc-1" oe.smcp
EndChar

StartChar: uni2605
Encoding: 9733 9733 347
Width: 821
VWidth: 0
Flags: W
LayerCount: 2
Fore
SplineSet
817.803826172 445.026674414 m 1
 566.157652344 261.752804101 l 1
 662.068108789 -33.5754130859 l 1
 410.421934961 149.699130078 l 1
 158.775761132 -33.5754130859 l 1
 254.686217578 262.702325976 l 1
 3.03970595 445.026674414 l 1
 313.561956641 444.077152539 l 1
 410.421934961 740.354891601 l 1
 506.332391406 445.026674414 l 1
 817.803826172 445.026674414 l 1
EndSplineSet
EndChar

StartChar: uni2606
Encoding: 9734 9734 348
Width: 821
VWidth: 30
Flags: HW
LayerCount: 2
Fore
SplineSet
612.181542118 379.341853711 m 1
 454.802504437 375.275525344 l 1
 410.591777578 525.844302476 l 1
 366.835734039 374.332767016 l 1
 209.221274891 379.250576594 l 1
 340.091176469 289.831440757 l 1
 285.955388445 141.374404011 l 1
 410.419781836 240.53812482 l 1
 535.159721586 141.403407664 l 1
 480.748387203 288.88868243 l 1
 612.181542118 379.341853711 l 1
817.914173828 445.13702207 m 1
 566.268 261.863151757 l 1
 662.178456445 -33.4650654297 l 1
 410.532282618 149.809477734 l 1
 158.886108789 -33.4650654297 l 1
 254.796565234 262.812673632 l 1
 3.15005360625 445.13702207 l 1
 313.672304297 444.187500195 l 1
 410.532282618 740.465239257 l 1
 506.442739063 445.13702207 l 1
 817.914173828 445.13702207 l 1
EndSplineSet
EndChar

StartChar: uni261C
Encoding: 9756 9756 349
Width: 2241
Flags: W
HStem: -39.8809 34.5928<702.366 803.644>
VStem: 65.4062 47.9918<389.495 407.811>
LayerCount: 2
Fore
SplineSet
65.4062 488.98 m 1
 133.471 493.169 171.866 495.579 238.634 514.306 c 1
 246.596 504.546 534.656 534.515 542.911 561.332 c 1
 564.898 551.482 577.512 547.037 605.929 570.229 c 1
 773.769 556.794 986.458 616.839 1106 648 c 1
 1329.25 569.701 1572.25 468.729 1696.18 430.638 c 1
 1739.57 483.052 1793.53 507.924 1848.05 516.793 c 1
 2110.43 547.303 l 1
 2163.02 255.056 2175.68 -29.6611 2148.35 -306.85 c 1
 1892.24 -297.519 l 1
 1875.45 -261.822 1858.65 -226.126 1841.85 -190.43 c 1
 1814.48 -179.761 1789.09 -165.358 1754.94 -149.172 c 1
 1614.8 -241.059 1469.34 -206.779 1327.96 -171.926 c 1
 1302.89 -235.181 1261.64 -288.312 1185.82 -267.69 c 1
 1164.81 -330.418 1107.45 -355.95 1072.25 -326.185 c 0
 999.4 -264.557 891.756 -230.288 835.198 -172.483 c 1
 682.232 -206.512 560.41 -112.538 687.913 48.1104 c 1
 660.334 112.992 745.543 185.467 777.889 271.683 c 1
 695.375 282.243 590.004 307.018 566.297 298.763 c 0
 515.511 281.073 363.284 309.172 334.218 317.119 c 1
 176.398 304.119 59.9014 331.849 65.4062 488.98 c 1
227.493 480.275 m 1
 178.401 472.663 150.689 468.371 101.594 460.757 c 1
 93.8691 413.082 244.447 408.912 227.493 480.275 c 1
1084.38 592.183 m 0
 825.397 554.269 996.286 546.32 636.788 522.399 c 0
 585.692 519 590.137 488.802 569.033 486.987 c 0
 550.55 485.4 544.591 511.314 526.415 507.695 c 0
 434.1 489.321 365.902 488.599 263.3 476.39 c 1
 250.997 394.928 192.292 410.334 113.398 407.811 c 1
 114.412 376.567 264.124 347.652 350.099 377.665 c 1
 407.623 368.682 461.089 357.379 523.575 380.384 c 1
 604.456 372.626 651.254 355.211 727.339 401.371 c 1
 807.605 356.047 974.055 358.16 1064.13 421.6 c 1
 1070.94 421.779 1071.33 413.38 1077.52 410.565 c 1
 1051.33 362.256 1084.46 312.087 1114.36 315.387 c 0
 1130.39 317.154 1149.22 354.088 1163.9 376.21 c 0
 1172.19 388.706 1208.8 379.251 1202.08 365.563 c 0
 1164.56 289.234 1183.03 221.194 1302.92 308.083 c 0
 1330.21 327.857 1391.28 329.565 1389.06 296.334 c 0
 1387.54 273.576 1345.13 302.372 1303.25 264.596 c 0
 1210.07 180.539 1123.04 118.563 1008.84 107.013 c 1
 996.464 98.4824 989.483 93.6709 977.105 85.1396 c 1
 876.257 142.62 705.042 54.8047 694.435 -5.28809 c 1
 757.921 -1.57617 796.29 11.3975 834.737 -28.0469 c 1
 861.688 11.0107 922.306 3.84277 985.483 11.0127 c 1
 998.435 5.33398 1005.74 2.13281 1018.69 -3.54395 c 1
 1031.07 4.98828 1038.05 9.79883 1050.42 18.3291 c 1
 1063.43 11.9795 1070.77 8.39844 1083.78 2.04883 c 1
 1093.29 11.6924 1098.66 17.1289 1108.17 26.7725 c 1
 1169 0.666992 1265.6 3.79102 1298.85 55.3369 c 0
 1307.77 69.1582 1331.21 74.7871 1353.92 73.9941 c 0
 1497.96 68.9609 1697.02 60.1641 1760.13 150.666 c 0
 1796.28 202.51 1766.13 361.801 1721.3 387.54 c 1
 1551.99 437.4 1391.01 515.096 1175.49 584.343 c 0
 1141.59 595.234 1119.66 597.348 1084.38 592.183 c 0
823.456 -100.385 m 1
 821.674 -60.501 792.91 -39.6387 757.787 -39.8809 c 0
 715.507 -40.1699 663.499 -75.8311 669.326 -101.442 c 0
 672.815 -116.764 791.04 -134.5 823.456 -100.385 c 1
1825.2 474.796 m 1
 1793.57 452.477 1775.72 439.887 1744.09 417.571 c 1
 1790.28 409.132 l 1
 1834.35 392.028 1910.85 90.5078 1840.19 -91.3711 c 1
 1844.61 -94.3838 1847.1 -96.085 1851.52 -99.1006 c 1
 1989.62 -17.6104 1923.24 389.222 1825.2 474.796 c 1
EndSplineSet
EndChar

StartChar: uni261E
Encoding: 9758 9758 350
Width: 2241
Flags: HMW
LayerCount: 2
Fore
SplineSet
2162.17 488.98 m 1
 2167.68 331.849 2051.18 304.119 1893.36 317.119 c 1
 1864.29 309.172 1712.07 281.073 1661.28 298.763 c 0
 1637.57 307.018 1532.2 282.243 1449.69 271.683 c 1
 1482.03 185.467 1567.24 112.992 1539.66 48.1104 c 1
 1667.17 -112.538 1545.34 -206.512 1392.38 -172.483 c 1
 1335.82 -230.288 1228.18 -264.557 1155.32 -326.185 c 0
 1120.13 -355.95 1062.77 -330.418 1041.76 -267.69 c 1
 965.937 -288.312 924.688 -235.181 899.613 -171.926 c 1
 758.235 -206.779 612.779 -241.059 472.641 -149.172 c 1
 438.485 -165.358 413.094 -179.761 385.725 -190.43 c 1
 368.927 -226.126 352.131 -261.822 335.333 -297.519 c 1
 79.2285 -306.85 l 1
 51.9014 -29.6611 64.5586 255.056 117.149 547.303 c 1
 379.524 516.793 l 1
 434.047 507.924 488.01 483.052 531.394 430.638 c 1
 655.332 468.729 898.328 569.701 1121.58 648 c 1
 1241.12 616.839 1453.81 556.794 1621.65 570.229 c 1
 1650.07 547.037 1662.68 551.482 1684.67 561.332 c 1
 1692.92 534.515 1980.98 504.546 1988.94 514.306 c 1
 2055.71 495.579 2094.11 493.169 2162.17 488.98 c 1
2000.08 480.275 m 1
 1983.13 408.912 2133.71 413.082 2125.98 460.757 c 1
 2076.89 468.371 2049.18 472.663 2000.08 480.275 c 1
1143.19 592.183 m 0
 1107.92 597.348 1085.99 595.234 1052.09 584.343 c 0
 836.569 515.096 675.586 437.4 506.281 387.54 c 1
 461.443 361.801 431.295 202.51 467.448 150.666 c 0
 530.558 60.1641 729.622 68.9609 873.661 73.9941 c 0
 896.366 74.7871 919.808 69.1582 928.726 55.3369 c 0
 961.981 3.79102 1058.58 0.666992 1119.41 26.7725 c 1
 1128.92 17.1289 1134.29 11.6924 1143.8 2.04883 c 1
 1156.8 8.39844 1164.14 11.9795 1177.15 18.3291 c 1
 1189.53 9.79883 1196.51 4.98828 1208.89 -3.54395 c 1
 1221.83 2.13281 1229.14 5.33398 1242.09 11.0127 c 1
 1305.27 3.84277 1365.89 11.0107 1392.84 -28.0469 c 1
 1431.29 11.3975 1469.66 -1.57617 1533.14 -5.28809 c 1
 1522.54 54.8047 1351.32 142.62 1250.47 85.1396 c 1
 1238.09 93.6709 1231.11 98.4824 1218.74 107.013 c 1
 1104.54 118.563 1017.5 180.539 924.325 264.596 c 0
 882.445 302.372 840.035 273.576 838.518 296.334 c 0
 836.301 329.565 897.366 327.857 924.653 308.083 c 0
 1044.55 221.194 1063.02 289.234 1025.5 365.563 c 0
 1018.77 379.251 1055.38 388.706 1063.68 376.21 c 0
 1078.36 354.088 1097.19 317.154 1113.21 315.387 c 0
 1143.12 312.087 1176.25 362.256 1150.06 410.565 c 1
 1156.25 413.38 1156.63 421.779 1163.45 421.6 c 1
 1253.52 358.16 1419.97 356.047 1500.24 401.371 c 1
 1576.32 355.211 1623.12 372.626 1704 380.384 c 1
 1766.49 357.379 1819.95 368.682 1877.48 377.665 c 1
 1963.45 347.652 2113.17 376.567 2114.18 407.811 c 1
 2035.29 410.334 1976.58 394.928 1964.28 476.39 c 1
 1861.67 488.599 1793.48 489.321 1701.16 507.695 c 0
 1682.99 511.314 1677.03 485.4 1658.54 486.987 c 0
 1637.44 488.802 1641.88 519 1590.79 522.399 c 0
 1231.29 546.32 1402.18 554.269 1143.19 592.183 c 0
1404.12 -100.385 m 1
 1436.54 -134.5 1554.76 -116.764 1558.25 -101.442 c 0
 1564.08 -75.8311 1512.07 -40.1699 1469.79 -39.8809 c 0
 1434.67 -39.6387 1405.9 -60.501 1404.12 -100.385 c 1
402.373 474.796 m 1
 304.342 389.222 237.955 -17.6104 376.058 -99.1006 c 1
 380.473 -96.085 382.967 -94.3838 387.383 -91.3711 c 1
 316.725 90.5078 393.227 392.028 437.294 409.132 c 1
 483.483 417.571 l 1
 451.853 439.887 434.009 452.477 402.373 474.796 c 1
EndSplineSet
EndChar

StartChar: uni211F
Encoding: 8479 8479 429
Width: 831
UnlinkRmOvrlpSave: 1
Flags: HW
LayerCount: 2
Fore
SplineSet
477.421 -55.464 m 1
 604.406791666 102.83480877 744.939876985 452.030401814 728.043 464.531 c 1
 606.019 510.043 l 1
 592.6015 544.234867469 666.534511157 589.701714361 713.359 623.56 c 1
 760.549 606.79 787.169 597.33 834.359 580.56 c 1
 793.360449276 500.0796 587.492445693 -9.99934150072 551.469 -90.11 c 1
 477.421 -55.464 l 1
EndSplineSet
Refer: 43 82 N 1 0 0 1 0 0 2
EndChar

StartChar: uni2123
Encoding: 8483 8483 430
Width: 841
UnlinkRmOvrlpSave: 1
Flags: HW
LayerCount: 2
Fore
SplineSet
192.732 -56.153 m 1
 319.717791666 102.355954502 460.250876985 452.016700407 443.354 464.531 c 1
 321.33 510.043 l 1
 307.9125 544.234867469 381.845511157 589.701714361 428.67 623.56 c 1
 475.86 606.79 502.48 597.33 549.67 580.56 c 1
 508.671449276 499.99692 302.803445693 -10.6060413476 266.78 -90.799 c 1
 192.732 -56.153 l 1
EndSplineSet
Refer: 54 86 N 1 0 0 1 0 0 2
EndChar

StartChar: estimated
Encoding: 8494 8494 431
Width: 752
VWidth: 0
Flags: W
HStem: -9 50.917<266.135 484.333> 310.923 51.15<191.384 562.454> 632.006 50.917<264.706 485.147>
VStem: 30.1973 161.187<217.349 310.923 362.073 455.702> 562.454 159.576<362.073 456.3>
LayerCount: 2
Fore
SplineSet
632.777 191.846 m 1
 676.861 166.441 l 1
 673.98 161.581 l 2
 613.377 59.3301 501.767 -9 376 -9 c 0
 189.553 -9 30.1973 142.604 30.1973 338.341 c 0
 30.1973 525.945 184.438 682.615 375.52 682.923 c 2
 376.044 682.923 l 2
 564.48 682.923 722.035 529.016 722.03 336.942 c 0
 722.03 329.967 721.813 323.039 721.4 316.168 c 2
 721.084 310.923 l 1
 191.384 310.923 l 1
 191.384 107.399 l 1
 242.467 66.2236 307.069 41.917 376 41.917 c 0
 483.087 41.917 578.216 100.053 629.964 187.113 c 2
 632.777 191.846 l 1
191.384 566.668 m 1
 191.384 362.073 l 1
 562.454 362.073 l 1
 562.454 565.158 l 1
 511.302 606.997 446.18 632.006 376.044 632.006 c 2
 375.598 632.006 l 2
 305.803 631.894 241.805 607.323 191.384 566.668 c 1
EndSplineSet
EndChar

StartChar: uni2023
Encoding: 8227 8227 436
Width: 614
Flags: HW
LayerCount: 2
Back
Fore
SplineSet
563.268 308.708258375 m 1
 563.268 273.933 l 1
 531.024 245.665 408.011586348 215.948333606 346.354 187.221343 c 0
 186.423718473 128.462140798 157.052911175 12.5396914234 102.254007364 -14.8502745066 c 1
 85.8544401822 -14.8502745066 60.3443117029 2.17665949589 49.4468725844 11.983503925 c 1
 57.8508772614 67.7986183096 73.4205108032 480.619790329 36.4462889 568.0455 c 1
 37.0249154214 570.45995259 69.7919555672 589.868966547 82.7804867578 589.868966547 c 1
 118.315293887 564.143046547 210.954888886 424.664727861 313.48604 396.120851 c 0
 408.758115455 359.777510603 522.17442682 336.455944619 563.268 308.708258375 c 1
EndSplineSet
EndChar

StartChar: dagger
Encoding: 8224 8224 437
Width: 442
Flags: HW
LayerCount: 2
Fore
SplineSet
303.249 370 m 1
 255.957 262 254.268 250 234 -18 c 1
 208.311 -18 l 1
 184.665 266 183.719885743 282.899414062 139.062 370 c 1
 186.354 440.680267974 194.799 459.594705882 208.311 522.311 c 1
 129.866 505.421 l 2
 70.2544734728 488.531 75.6715454545 468.263 48.043 468.263 c 3
 41.87674543 468.263 8.732 510.421 8.732 534.311 c 3
 8.732 558.677422879 43.8620751953 602.048 49.732 602.048 c 3
 76.091868421 602.048 76.5741212425 583.469 129.866 568.268 c 2
 208.311 551.378 l 1
 189.732 622.067 l 2
 177.909 663.92631317 154.263 683.57954878 154.263 704.756 c 3
 154.263 709.694783922 197.935820901 745.134003416 222 745.134 c 1
 245.984891219 745.133996525 289.737 709.693751712 289.737 708.134 c 3
 289.737 684.568035715 266.091 664.805734985 254.268 622.067 c 2
 235.689 551.378 l 1
 314.134 568.268 l 2
 372.745762627 585.158 366.853736842 603.737 394.268 603.737 c 3
 400.453994899 603.737 435.268 561.807920094 435.268 537.689 c 3
 435.268 514.038520905 398.941432573 469.952 392.579 469.952 c 3
 366.430666666 469.952 367.196285343 490.22 314.134 505.421 c 2
 234 522.311 l 1
 247.512 460.590202614 255.957 441.675764706 303.249 370 c 1
EndSplineSet
EndChar

StartChar: daggerdbl
Encoding: 8225 8225 438
Width: 442
Flags: HW
LayerCount: 2
Fore
SplineSet
152.574 369 m 1
 190.638292683 439.682344156 197.435487805 459.592863636 208.311 522.311 c 1
 134 505.421 l 2
 79.1781993593 488.531 83 468.263 57 468.263 c 3
 52.2909416992 468.263 8.732 508.792454545 8.732 534.311 c 3
 8.732 559.900533334 55.9316372904 602.048 58 602.048 c 3
 83 602.048 84.0779283763 583.469 134 568.268 c 2
 208.311 551.378 l 1
 189.732 620 l 2
 177.909 657.293408126 154.263 679.974902439 154.263 700.622 c 3
 154.263 708.548333333 196.410466666 745.134 222 745.134 c 3
 247.589533334 745.134 289.737 709.229216216 289.737 704 c 3
 289.737 681 266.091 656.915926948 254.268 620 c 2
 235.689 551.378 l 1
 310 568.268 l 2
 364.905287138 585.158 360 603.737 386 603.737 c 3
 388.216223037 603.737 435.268 563.207545455 435.268 537.689 c 3
 435.268 512.099466666 388.202726284 469.952 385 469.952 c 3
 360 469.952 359.759181527 490.22 310 505.421 c 2
 234 522.311 l 1
 244.875512195 460.588389611 251.672707317 440.67787013 289.737 369 c 1
 251.672707317 298.311585987 244.875512195 275.412522293 234 212.689 c 1
 309 229.579 l 2
 363.832307346 246.469 360 266.737 386 266.737 c 3
 390.020058301 266.737 434.268 226.207545455 434.268 200.689 c 3
 434.268 175.099466666 387.27072692 132.952 384.311 132.952 c 3
 359.537644737 132.952 358.47941917 151.531 309 166.732 c 2
 234 183.622 l 1
 252.579 115 l 2
 264.402 77.2016811061 288.048 54 288.048 33 c 3
 288.048 26.805 245.900533334 -10.134 220.311 -10.134 c 3
 194.721466666 -10.134 152.574 26.646 152.574 26.866 c 3
 152.574 50.9979285715 176.22 76.2875350762 188.043 115 c 2
 206.622 183.622 l 1
 133 166.732 l 2
 78.110084079 149.842 83 131.263 57 131.263 c 3
 54.7837769627 131.263 7.732 171.792454545 7.732 197.311 c 3
 7.732 222.900533334 54.7972737165 265.048 58 265.048 c 3
 83 265.048 83.1602753881 244.78 133 229.579 c 2
 208.311 212.689 l 1
 197.435487805 274.416910828 190.638292683 297.315974522 152.574 369 c 1
EndSplineSet
EndChar

StartChar: longs
Encoding: 383 383 445
Width: 357
VWidth: 1159
Flags: W
HStem: -6 36<34 97.3708 215.17 284.568> 1 32<191.619 282.018> 356 25<46 67.3182> 701 55<273.459 377.117>
VStem: 113 72<42.1466 356 403 602.768>
AnchorPoint: "Top" 262 748 basechar 0
AnchorPoint: "Bottom" 156 -15 basechar 0
LayerCount: 2
Fore
SplineSet
359 756 m 3x78
 391 756 441 745 466 723 c 1
 465 696 466 696 417 659 c 1
 378 677 347 701 309 701 c 3
 206 701 201 609 191 498 c 0
 187.339 461.394 185 339.326 185 293 c 3
 185 211 186 134 191 54 c 0
 192 39 198 34 214 33 c 0x78
 239 32 262 32 287 31 c 1
 284 -6 l 1xb8
 242 -1 182 1 140 1 c 3x78
 110 1 64 -2 34 -6 c 1
 33 30 l 1xb8
 44 31 58 31 69 33 c 0
 100 40 104 53 106 81 c 0
 111 133 114 201 114 266 c 3
 114 285.149 113 320.574 113 356 c 1
 46 356 l 1
 46 381 l 1
 113 403 l 1
 113 439.562 113 481.75 113 493 c 3
 113 601 156 657 224 704 c 0
 263 731 300 756 359 756 c 3x78
EndSplineSet
Substitution2: "case-1" S
Substitution2: "pcap-1" s.pcap
Substitution2: "smcp-1" s.smcp
EndChar

StartChar: ohorn
Encoding: 417 417 448
Width: 505
VWidth: 0
UnlinkRmOvrlpSave: 1
Flags: HW
HStem: -11 49.335<221.724 323.117> 363.665 53.268<177.815 280.888> 365.36 24.3843<349.604 421.731> 382.741 20G<338.441 342.053>
VStem: 32 111.828<140.172 287.255> 361.928 111.072<108.301 268.553> 442.501 86.0273<403.736 481.559>
LayerCount: 2
Fore
SplineSet
334.482421875 402.741210938 m 1x9a
 349.62424831 396.926343349 372.471667174 389.744140625 386.686523438 389.744140625 c 3
 411.796269819 389.744140625 442.501138157 408.271731058 442.501138157 441.560602678 c 3
 442.501138157 449.63955766 438.983530489 459.025418514 428.6640625 470.818359375 c 1
 444.576416165 489.781030223 464.379979468 500.219391987 482.796821553 500.219391987 c 3
 512.365850716 500.219391987 528.528388939 475.09191665 528.528388939 445.9790134 c 3
 528.528388939 396.089685559 450.426516037 365.359813167 388.72825766 365.359813167 c 3xaa
 357.132622939 365.359813167 342.400200021 377.606700862 334.482421875 402.741210938 c 1x9a
EndSplineSet
Refer: 14 111 N 1 0 0 1 0 0 2
Substitution2: "smcp-1" ohorn.smcp
Substitution2: "case-1" Ohorn
Substitution2: "pcap-1" ohorn.pcap
EndChar

StartChar: uhorn
Encoding: 432 432 449
Width: 526
VWidth: 0
UnlinkRmOvrlpSave: 1
Flags: W
HStem: -11 55<175.733 263.795> 338 31<292 351.243> 402 20G<128 167>
VStem: 70 76<75.1633 330.249> 359 64<36.0058 52 76.9705 331.63> 493.501 86.0273<404.739 481.559>
LayerCount: 2
Fore
SplineSet
410 375 m 1
 418.121414362 381.745491074 430.375771951 388.077148438 438 390.077148438 c 1
 462.968647592 396.077148438 493.500976562 408.485648026 493.500976562 441.560546875 c 3
 493.500976562 449.639517266 489.983409974 459.025396022 479.6640625 470.818359375 c 1
 495.576431876 489.781246013 515.380014732 500.219726562 533.796875 500.219726562 c 3
 563.365825233 500.219726562 579.528320312 475.092318034 579.528320312 445.979492188 c 3
 579.528320312 396.08959691 501.426629866 370.359375 439.728515625 365.359375 c 1
 422.413060772 365.359375 414.339204806 368.517835056 410 375 c 1
285 369 m 1
 339.422818792 375.199161305 395.899328859 382.557301496 438 390.077148438 c 1
 445 378 l 1
 431 335.584 423 173.632 423 137 c 3
 423 107 426.284077022 81.1592297825 429 54 c 0
 430 44 433 36 443 36 c 3
 447 36 473 43 493 48 c 1
 499 17 l 1
 463 8 419.410107664 -9.647473084 386 -18 c 0
 382 -19 381 -22 376 -22 c 3
 359 -22 359 0 354 52 c 1
 313 34 236 -11 178 -11 c 3
 140 -11 102.934188969 5.51320688895 86 44 c 0
 75 69 70 95 70 143 c 3
 70 198 73 255 73 312 c 0
 73 322 69 331 59 331 c 3
 49 331 28 319 22 317 c 1
 12 348 l 1
 53 359 107 394 149 422 c 1
 167 406 l 1
 152 336 146 254 146 177 c 3
 146 106 161 44 232 44 c 3
 269 44 322 69 353 85 c 1
 354 154 359 291 359 298 c 3
 359 337 329 337 292 338 c 1
 285 369 l 1
EndSplineSet
Substitution2: "smcp-1" uhorn.smcp
Substitution2: "case-1" Uhorn
Substitution2: "pcap-1" uhorn.pcap
EndChar

StartChar: yen
Encoding: 165 165 451
Width: 463
VWidth: 1159
UnlinkRmOvrlpSave: 1
Flags: HW
LayerCount: 2
Fore
SplineSet
274.890625 169.708984375 m 1
 274.314622807 115.248982948 272.283654214 50.1171047102 283.09765625 -128.499023438 c 0
 285.015173967 -160.170886375 292.119204273 -161.0586431 320.783203125 -167.310546875 c 1
 317.580078125 -195.142578125 l 1
 274.689595576 -186.83690152 222.038207283 -183.218788643 178.485351562 -198.678710938 c 1
 171.08984375 -171.665039062 l 1
 195.610467016 -162.26863286 206.390990071 -155.268664903 207.260742188 -117.220703125 c 0
 207.787638441 -104.621204106 205.843021338 150.767976016 205.118164062 143.750976562 c 1
 204.034116885 150.049303618 155.095264654 248.178623374 87.2695828038 343.999997223 c 0
 76.0701508093 359.82210075 59.2291043945 378.720580661 49 385 c 1
 139 433 l 1
 144.933661013 402.938576204 168.652866704 351.939024868 181.091541944 327.999991964 c 0
 221.31584563 250.585724695 252.239236655 211.848881796 255.486328125 207.837890625 c 1
 299.730787717 303.031969433 321.320964056 356.628741888 331 433 c 1
 345.5 424.066173481 396.25 400.848034565 418 391 c 1
 345.004852928 317.965777551 314.263107929 249.458544383 274.890625 169.708984375 c 1
EndSplineSet
Refer: 1970 58113 N 0.29 0 0 1.125 93 -2 2
Refer: 1970 58113 N 0.29 0 0 1.125 93 98 2
Position2: "'lnum-2' vertical adjustment" dx=0 dy=190 dh=0 dv=0
EndChar

StartChar: eth
Encoding: 240 240 453
Width: 471
VWidth: 1159
UnlinkRmOvrlpSave: 1
Flags: HW
LayerCount: 2
Fore
SplineSet
328.507 269.727 m 1
 299.680575758 343.866034285 225.039031752 345.909 209.598 345.909 c 3
 195.0426 345.909 119.56 334.846905706 119.56 263.895 c 3
 119.56 158.718421806 186.116123401 64.67 274.048 64.67 c 3
 317.017786022 64.67 334.995 125.334975277 334.995 178.574 c 3
 334.995 332.370612224 211.287 589.062 63.622 696.555 c 1
 68.1799924319 703.962988137 77.2373046875 727.453125 77.2373046875 727.453125 c 1
 260.283740169 675.166289781 435 439.719447105 435 235 c 3
 435 113.962890625 360.284179688 -5 193 -5 c 3
 102.911132812 -5 28 65.923828125 28 171 c 3
 28 327.762256999 181.114949153 407.067 279.847 407.067 c 3
 294.294011521 407.067 315.002050192 406.456750594 326.933 405.78 c 1
 328.507 269.727 l 1
EndSplineSet
Refer: 1970 58113 N 0.284488 0.177084 -0.547233 0.872389 91.665 489.958 2
Substitution2: "pcap-1" eth.pcap
Substitution2: "case-1" Eth
Substitution2: "smcp-1" eth.smcp
EndChar

StartChar: quotereversed
Encoding: 8219 8219 462
Width: 200
VWidth: 1159
Flags: W
HStem: 426.885 292.651
VStem: 11.6404 174.072
LayerCount: 2
Fore
SplineSet
173.401429688 426.885 m 1
 -1.0965703125 511.866 11.6404296875 629.756 11.6404296875 633.689 c 1
 11.6404296875 641.067 16.7074296875 646.756 23.0854296875 649.445 c 0
 47.1381572266 664.218351562 70.843265625 684.024 82.0424296875 706.402 c 0
 84.6002236328 713.392294922 92.7984296875 719.536 100.176429688 719.536 c 3
 107.860577149 719.536 115.544724609 713.469 118.310429688 707.091 c 0
 133.124152344 684.328801757 150.822429688 662.512 175.267429687 649.445 c 0
 182.255706055 646.795698243 185.712429687 641.165236328 185.712429687 633.689 c 3
 185.712429687 626.426057618 182.334429688 617.473442382 175.956429687 615.244 c 0
 150.457071289 602.203914062 121.932429688 583.043 109.865429687 554.842 c 0
 89.8716679688 509.26534375 154.023429687 468.751 188.023429687 458.086 c 1
 173.401429688 426.885 l 1
EndSplineSet
Position2: "cpsp-1" dx=0 dy=0 dh=7 dv=14
EndChar

StartChar: uni20B9
Encoding: 8377 8377 466
Width: 426
VWidth: 1159
UnlinkRmOvrlpSave: 1
Flags: W
HStem: -42 23<381.506 409> 283 31<32 113.386> 460.095 28.999<33.25 411.25> 637.095 28.999<33.25 33.25 33.5 411.25>
VStem: 248 79<400.509 544.149>
LayerCount: 2
Fore
SplineSet
33.25 666.09375 m 1
 411.25 666.09375 l 1
 411.25 637.094726562 l 1
 33.25 637.094726562 l 1
 33.25 666.09375 l 1
33.25 489.09375 m 1
 411.25 489.09375 l 1
 411.25 460.094726562 l 1
 33.25 460.094726562 l 1
 33.25 489.09375 l 1
32.5 666 m 1
 57.25390625 666 67.658203125 666 96 666 c 0
 222.431640625 666 327 583 327 480 c 0
 327 393 262.599609375 334 189 304 c 1
 265.474609375 110.581054688 332.772460938 -13.0947265625 412 -19 c 1
 409 -42 l 1
 258 -39 178 134 114 284 c 1
 100.875 283 89.2080078125 283 79 283 c 0
 60.6474609375 283 50.3525390625 285.400390625 32 286 c 1
 32 316 l 1
 49.912109375 315.5 59.087890625 314 77 314 c 3
 219.663085938 314 248 410.737304688 248 469 c 3
 248 534.418945312 188.37890625 638 75 638 c 3
 61.8720703125 638 35.193359375 638 33.5 638 c 1
 32.5 666 l 1
EndSplineSet
EndChar

StartChar: eng
Encoding: 331 331 467
Width: 499
VWidth: 1159
Flags: W
HStem: -319 60<162.258 279.828> -5 33<20.3636 69> 335 29<32 79.6511> 338 61<245.574 353.747> 396 20G<129 175>
VStem: 95 75<72.7464 318.176 330 331.265> 379 69<-89.8607 313.154>
LayerCount: 2
Fore
SplineSet
329 -267 m 4xd6
 284.360294118 -296 253 -319 194 -319 c 7
 162 -319 112 -308 87 -286 c 5
 88 -259 87 -259 136 -222 c 5
 165.972222222 -237.857142857 189.796296296 -259 219 -259 c 7
 247.822033898 -259 296.27809609 -258.437912348 316 -237 c 4
 342.595265849 -208.090672547 360.595200234 -175.050461911 367 -146 c 4
 373.749647059 -115.385402827 379 -41.9109823322 379 143 c 7
 379 192.5 376.549026451 266.820841347 374 287 c 4
 369 328.328358209 348 358 293 358 c 7xd6
 245 358 203 344.4 170 324 c 5
 168 234.329113924 161 109.430379747 161 71 c 7
 161 27.80589946 195.795590225 30.6204409775 232 27 c 5
 228 -7 l 5
 189 -1 159 4 117 4 c 7
 87 4 51 -1 21 -5 c 5
 18 28 l 5
 55.449092135 34.8089258427 78.318284601 37.5524032329 87 76 c 4
 94 107 95 167 95 199 c 7
 95 219 92.9313485794 287.976104104 86 308 c 4
 77 334 72 336 54 336 c 7
 44 336 41 335 32 335 c 5
 30 364 l 5
 67 371 104 375 154 416 c 5xee
 175 401 l 5
 170 387.056338028 167 366.915492958 167 346 c 5
 215 377 267 415 330 415 c 7
 403 415 448 375 448 304 c 7
 448 213.433607383 445 119.425469455 445 -84 c 7
 445 -134 432.819094368 -164.880515375 419 -186 c 4
 396.752808989 -220 368.44138087 -241.377070309 329 -267 c 4xd6
EndSplineSet
Substitution2: "smcp-1" eng.smcp
Substitution2: "case-1" Eng
Substitution2: "pcap-1" eng.pcap
EndChar

StartChar: Eng
Encoding: 330 330 468
Width: 836
VWidth: 1159
Flags: W
HStem: -241 62<483.653 578.44> -10 44<23.3182 86.8179 186.794 270.067> 655 39<771.217 833> 663 38<601.079 678.507>
VStem: 97 55<66.5393 314.07> 105 56<351.62 550> 676.266 70.7344<-86.2532 70.0219>
LayerCount: 2
Fore
SplineSet
628 -189 m 0xe6
 589 -216 552 -241 493 -241 c 3
 461 -241 411 -230 386 -208 c 1
 387.224489796 -178.046875 386 -178.046875 446 -137 c 1
 485 -155 508.349151158 -179 554 -179 c 3
 640.616503398 -179 676.265625 -76.9678502479 676.265625 -13.4755859375 c 3
 676.265625 48.2626834417 640.03404243 103.097021502 604 139.090820312 c 0
 459.896 279.614068929 313.026 416.065410818 161 550 c 1xe6
 152 154 l 2
 149.672574689 52.4216563039 186 44.674796748 277 35 c 1
 269 -11 l 1
 229.225006617 -2.55029543162 191.72886241 0.193359375 156.584960938 0.193359375 c 0
 107.789937357 0.193359375 63.5294692282 -6.59829339283 24 -10 c 1
 19 34 l 1
 77 34 94.2505340003 45.0370931165 97 93 c 0xea
 106 246.782786885 108.836453881 409.412965035 105 571 c 0
 104 614 69 649 12 648 c 1
 14 692 l 1
 53 688 104.987806691 684 146 684 c 0
 161 684 162.224003945 680.217054625 169 673 c 0
 318.792 516.927864326 473.300161891 367.004316767 636 223.227539062 c 0
 659.155 202.310678333 682.86 176.9488472 699 154 c 1
 708 281.98180798 710.135155394 409.964631854 709 545 c 0
 708 667 656 656 597 663 c 1
 602 701 l 1xd6
 658.737273127 693.806776525 706.285370634 691.3984375 751.0625 691.3984375 c 0
 778.931628397 691.3984375 805.747514379 692.483615703 833 694 c 1
 837 655 l 1
 788 649 766.708243919 651.026764413 763 609 c 0
 748 442.189493433 745 264.596148366 745 86 c 0
 745 63 747 43 747 0 c 3
 747 -86.94 692.388915009 -144.42305884 628 -189 c 0xe6
EndSplineSet
Position2: "cpsp-1" dx=0 dy=0 dh=50 dv=100
Substitution2: "c2pc-1" eng.pcap
Substitution2: "c2sc-1" eng.smcp
EndChar

StartChar: circumcombhigh
Encoding: 58081 58081 471
Width: 0
VWidth: 1159
Flags: HW
LayerCount: 2
Fore
SplineSet
-71.2197183016 471.071703945 m 5
 -87.8835053828 451.007558609 l 5
 -197.8445 499.564096922 l 5
 -306.427339118 451.007558609 l 5
 -323.780188399 471.071703945 l 5
 -215.364177632 589.192768539 l 5
 -179.635822368 589.192768539 l 5
 -71.2197183016 471.071703945 l 5
EndSplineSet
EndChar

StartChar: a.pcap
Encoding: 57347 57347 643
Width: 472
VWidth: 1159
Flags: HW
AnchorPoint: "Top" 250 465 basechar 0
AnchorPoint: "Bottom" 239 -15 basechar 0
LayerCount: 2
Fore
SplineSet
166.043 145.263 m 1
 189.960241109 139.40175 238.141119782 140.574 260.464 140.574 c 1
 248.375568103 176.995481445 225.110712868 213.275950683 207.153 241.66 c 1
 191.67094 202.808018408 180.1176 178.565046125 166.043 145.263 c 1
249.526 -8.378 m 1
 249.526 -8.378 246.904 14.5828 245.593 23.512 c 1
 275.58815121 26.0581 285.583584055 46.6401831278 284.483 55.024 c 0
 280.81396 76.0286666666 277.684078516 83.3015576172 272.464 103.062 c 1
 253.804324006 113.130875976 179.209907226 118.885 151.665 111.129 c 1
 144.095442382 90.8612275391 142.411770912 88.0789584659 135.646 67.536 c 0
 129.350044547 47.6551093428 153.071927273 18.8769310345 192.024 25.445 c 1
 196.536 -7 l 1
 174.328820323 -2.9169921875 131.881332808 -0.875 92.8076171875 -0.875 c 3
 65.7744648818 -0.875 40.4067609137 -1.9169921875 25.043 -4 c 1
 25.043 -1.894 21.52625 13.901 20.354 23.378 c 1
 48.0636933333 30.3072 76.1699404631 51.6487913212 79.244 58.024 c 0
 136.315777778 172.98752 189.848289414 290.174438438 226 384.402 c 0
 230.866 396.756 229.10525 396.89 229.866 415 c 1
 269.823 415 l 1
 272.1005 395 270.31532951 397.006418068 274.378 385.402 c 0
 317.284045455 259.847 347.912590909 164.445 411.134 37 c 0
 416.959371652 25.5699502868 437.610428572 21 448.201 21 c 1
 448.201 19 450.957 5 452.713 -3 c 1
 428.226027618 -0.380859375 394.42158806 1.0947265625 360.031382812 1.0947265625 c 3
 318.217283755 1.0947265625 275.482361633 -1.78400406977 249.526 -8.378 c 1
EndSplineSet
EndChar

StartChar: b.pcap
Encoding: 57348 57348 644
Width: 444
VWidth: 1159
Flags: HW
AnchorPoint: "Bottom" 218 -15 basechar 0
AnchorPoint: "Top" 213 465 basechar 0
LayerCount: 2
Fore
SplineSet
61 22 m 1
 73.2631904998 22.1022121212 88.086 30.512 94.22 70.847 c 0
 95.3338615692 73.9247213268 100.976 121.584814159 100.976 168 c 3
 100.976 226.216763506 94.949430144 305.936963733 93.909 315.086 c 0
 90.7813505038 346.750307143 87.9749597947 371.181100323 77.464 376.311 c 0
 74.7980481672 377.182164157 62.5682352941 379.7598 60 380.622 c 1
 64 407 l 1
 72 407 104 401 136 401 c 3
 168.4804 401 212.87028 407 244.268 407 c 3
 323.268 407 358.268 342 358.268 305 c 3
 358.268 264.667951807 308.378171428 228.369108433 285.512 221.311 c 1
 342.505454545 209.059014441 390 166.17657968 390 109 c 1
 390 41.5927734375 330 -3 239 -3 c 3
 209 -3 171 1 138 1 c 3
 103 1 69 -2 63 -2 c 1
 61 22 l 1
220.488 230.134 m 0
 244.0765 237.521100841 255.464 248.217112245 255.464 283.11 c 3
 255.464 307.517644445 239.512880435 367.598 215.311 367.598 c 3
 214.689 367.598 206.134 367.287 205.512 367.287 c 0
 199.560067966 364.153804052 200.003799085 350.745260244 199.091 341.354 c 0
 195.8135 284.555 195.8135 229.559142857 195.158 227.756 c 1
 217.734739132 229.823 214.241674417 227.303039839 220.488 230.134 c 0
215 205 m 3
 205.163359164 205 197.646 206.689 194.847 206.689 c 1
 194.847 163.808584616 199.668111938 122.908313953 200.981 96.426 c 0
 202.620520079 55.7324382611 212.15498139 41.0393395365 224.493 36.823 c 0
 227.493 35.512 237.08668421 33.646 240.445 33.646 c 3
 262.886346667 33.646 274.794 60.009274105 274.794 99.555 c 3
 274.794 152.810539981 258.150309278 205 215 205 c 3
EndSplineSet
EndChar

StartChar: c.pcap
Encoding: 57349 57349 645
Width: 500
VWidth: 1159
Flags: HW
AnchorPoint: "Bottom" 287 -15 basechar 0
AnchorPoint: "Top" 298 465 basechar 0
LayerCount: 2
Fore
SplineSet
56 200 m 3
 56 304.921875 136 414 307 414 c 3
 333 414 348.44295031 414.942604899 387 405 c 0
 414.099786533 398.092737822 425.526882353 405.445 435.933 403.378 c 1
 457 391 l 1
 430 357 418.257211737 337.983925826 417 319 c 0
 415.741625 300 410.708125 301 386.799 301 c 1
 380.665 311.488 373.143868648 329.611150197 353.397 348.665 c 0
 328.901493596 371.002499167 311.25445 384.933 281.665 384.933 c 3
 227.37468 384.933 184.718 326.28309905 184.718 223.646 c 3
 184.718 109.051319372 264.497931734 38.158 326.048 38.158 c 3
 348.024998674 38.158 388.74578 52.0192771084 422 111 c 1
 443 105 l 1
 438 73 435 60 429 27 c 1
 392 9 339 -6 286 -6 c 3
 174 -6 56 73 56 200 c 3
EndSplineSet
EndChar

StartChar: d.pcap
Encoding: 57350 57350 646
Width: 560
VWidth: 1159
Flags: HW
AnchorPoint: "Bottom" 258 -15 basechar 0
AnchorPoint: "Top" 269 465 basechar 0
LayerCount: 2
Fore
SplineSet
253.024 36.402 m 3
 338.381541899 36.402 380.349 92.9960042479 380.349 202.311 c 3
 380.349 307.190022757 309.289968219 377.11 255.024 377.11 c 3
 251.292 377.11 244.337520298 377.340592901 230.45 370.244 c 0
 217.368105549 362.91249256 215.529403886 352.068634978 215.45 348.244 c 0
 212.770227585 308.113977928 208.32202496 223.371276448 208.32202496 163.376269476 c 3
 208.32202496 134.395575041 210.849287358 90.674332652 212.072 71.957 c 0
 212.383895645 65.4161479037 217.171216636 56.0102900016 229.072 44.957 c 0
 235.320347826 40.1972 243.11426665 36.402 253.024 36.402 c 3
60 404 m 1
 85 403 111 401 136 401 c 3
 186 401 213 409 263 409 c 3
 426 409 504 303.909179688 504 205 c 3
 504 42.3525390625 365 -5 249 -5 c 3
 207 -5 183 -1 140 -1 c 3
 96 -1 81 -4 62 -7 c 1
 61 18 l 1
 88.0970476191 17.1674444445 93.5404634012 19.169831565 100.244 65.024 c 0
 104.949739761 99.4644558471 106.984157786 140.823019067 106.984157786 181.330678414 c 3
 106.984157786 248.584835938 101.803335098 314.420983051 94.488 347 c 0
 87.918739772 376.352454159 92.7636 374.710903226 60 376.622 c 1
 60 404 l 1
EndSplineSet
EndChar

StartChar: e.pcap
Encoding: 57351 57351 647
Width: 468
VWidth: 1159
Flags: HW
AnchorPoint: "Bottom" 243 -15 basechar 0
AnchorPoint: "Top" 243 465 basechar 0
LayerCount: 2
Fore
SplineSet
63 404 m 1
 103.716719432 402.132260577 156.294170747 401.38082533 207.075831097 401.38082533 c 3
 292.238349339 401.38082533 372.35031404 403.494191539 383 406 c 1
 390.208111566 399.821618658 392.821397686 394.350133538 392.821397686 386.87609291 c 3
 392.821397686 372.575379949 383.254052737 350.943231223 378 303 c 1
 354.555 300.311 l 1
 348.339117647 310.950095238 342.181071507 333.380374497 330.043 345.909 c 0
 316.689710355 361.49132739 297.240829247 374.032772004 274.878470178 374.032772004 c 3
 261.502189299 374.032772004 248.217111006 371.074373223 236.761 365.177 c 0
 230.424081865 362.273065469 219.448463936 349.177074439 218.005 337.909 c 0
 211.735789474 294.49140848 206.720421052 255.085133021 205.938 216 c 1
 227.854372881 216 265.69791876 217.973933431 277.775 220.689 c 0
 318.321992297 229.447181818 331.378 243.512 341 267 c 1
 362 263 l 1
 357.43132713 246.552777669 355.576114593 226.348456416 355.576114593 205.820027424 c 3
 355.576114593 181.41543193 358.198071009 156.552777669 362 137 c 1
 339 131 l 1
 330.445 174.22 308.804142064 174.595384513 276.086 184.622 c 0
 257.104651296 190.758571982 237.114888889 192 205.938 192 c 1
 206.627 139.099884973 209.990354972 97.0385859976 226.895 59.268 c 0
 230.22238193 51.4374140679 233.55420194 45.7727443946 242.895 44.268 c 0
 252.990710175 42.3053834299 261.137904082 40.6452946968 269.032743964 40.6452946968 c 3
 288.239275313 40.6452946968 305.844998449 48.751712457 329.866 63.158 c 0
 376.037383515 90.9255827239 384.168385542 102.976636364 397 120 c 1
 416 115 l 1
 407 75 398 33 391 -4 c 1
 327.763113226 -2.83969015085 258.690885532 -0.384671863407 194.928927487 -0.384671863407 c 3
 147.722224945 -0.384671863407 103.918409428 -1.74165738677 69 -6 c 1
 63 17 l 1
 84.749095238 21.933 94.8389340983 31.5214229271 101.555 53 c 1
 107.702363759 68.2456074514 110.133582353 141.57388693 110.133582353 207.545044419 c 3
 110.133582353 267.721717716 106.531435065 327.055942225 104.244 347 c 0
 101.218930663 374.945358016 90.732 376.689 60 385 c 1
 63 404 l 1
EndSplineSet
EndChar

